<?xml version="1.0" encoding="UTF-8" standalone="no"?>
<!-- Created with Inkscape (http://www.inkscape.org/) -->

<svg
   width="203.28313mm"
   height="154.30243mm"
   viewBox="0 0 203.28313 154.30243"
   version="1.1"
   id="svg1"
   xml:space="preserve"
   inkscape:version="1.4 (e7c3feb100, 2024-10-09)"
   sodipodi:docname="grundlagen.svg"
   xmlns:inkscape="http://www.inkscape.org/namespaces/inkscape"
   xmlns:sodipodi="http://sodipodi.sourceforge.net/DTD/sodipodi-0.dtd"
   xmlns="http://www.w3.org/2000/svg"
   xmlns:svg="http://www.w3.org/2000/svg"><sodipodi:namedview
     id="namedview1"
     pagecolor="#ffffff"
     bordercolor="#000000"
     borderopacity="0.25"
     inkscape:showpageshadow="2"
     inkscape:pageopacity="0.0"
     inkscape:pagecheckerboard="0"
     inkscape:deskcolor="#d1d1d1"
     inkscape:document-units="mm"
     inkscape:zoom="0.04220416"
     inkscape:cx="2926.2518"
     inkscape:cy="-3862.1785"
     inkscape:window-width="1920"
     inkscape:window-height="939"
     inkscape:window-x="1920"
     inkscape:window-y="32"
     inkscape:window-maximized="1"
     inkscape:current-layer="layer1"
     showgrid="false"><inkscape:page
       x="0"
       y="2.5664442e-12"
       width="203.28313"
       height="154.30241"
       id="page2"
       margin="0"
       bleed="0" /></sodipodi:namedview><defs
     id="defs1" /><g
     inkscape:label="Layer 1"
     inkscape:groupmode="layer"
     id="layer1"
     transform="translate(-653.73885,1152.4201)"><g
       id="g22"
       transform="matrix(0.66654494,0,0,0.66654494,549.26393,-195.46516)"
       style="stroke-width:3.96947;stroke-dasharray:none"><rect
         style="fill:#ffffff;stroke:#172329;stroke-width:3.96947;stroke-dasharray:none;paint-order:markers fill stroke"
         id="rect4"
         width="301.01093"
         height="27.032623"
         x="158.72575"
         y="-1359.8899"
         ry="12.318041" /><path
         id="rect6-7"
         style="fill:#ffffff;stroke:#172329;stroke-width:3.96947;stroke-dasharray:none;paint-order:markers fill stroke"
         d="m 381.47463,-1245.3083 c -6.23021,3.6508 1.77533,31.6138 13.6073,38.0545 4.08398,2.2231 11.25229,0.839 13.58091,-3.1857 5.48441,-9.4792 -6.63369,-24.5877 -9.43738,-31.4696 -2.29561,-5.6345 -12.50144,-6.4753 -17.75083,-3.3992 z"
         sodipodi:nodetypes="saass" /><path
         id="rect6-7-9"
         style="fill:#ffffff;stroke:#172329;stroke-width:3.96947;stroke-dasharray:none;paint-order:markers fill stroke"
         d="m 236.33699,-1245.9906 c 6.23021,3.6508 -1.77533,31.6138 -13.60731,38.0545 -4.08398,2.2231 -11.25229,0.839 -13.58091,-3.1857 -5.48441,-9.4792 6.63369,-24.5877 9.43738,-31.4696 2.29561,-5.6345 12.50145,-6.4753 17.75084,-3.3992 z"
         sodipodi:nodetypes="saass" /><path
         style="fill:none;stroke:#172329;stroke-width:3.96947;stroke-dasharray:none;paint-order:markers fill stroke"
         d="m 195.8353,-1359.8899 -0.889,-49.5565 c -0.56897,-31.7165 44.99906,-32.3635 44.99906,-1.7931"
         id="path6"
         sodipodi:nodetypes="csc" /><path
         id="rect7"
         style="fill:#ffffff;stroke:#172329;stroke-width:3.96947;stroke-dasharray:none;paint-order:markers fill stroke"
         d="m 257.82903,-1389.1739 -32.96874,0.3918 c 0,-27.2446 32.0322,-29.1613 32.96874,-0.3918 z"
         sodipodi:nodetypes="ccc" /><path
         id="rect5"
         style="fill:#ffffff;stroke:#172329;stroke-width:3.96947;stroke-dasharray:none;paint-order:markers fill stroke"
         d="m 174.86243,-1332.8572 h 269.53191 c 6.26035,0 -14.1135,100.8153 -64.09313,100.6298 l -142.58115,-0.5292 c -49.35941,-0.1832 -70.8072,-100.1006 -62.85763,-100.1006 z"
         sodipodi:nodetypes="sssss" /></g></g></svg>
