<?xml version="1.0" encoding="UTF-8" standalone="no"?>
<!-- Created with Inkscape (http://www.inkscape.org/) -->

<svg
   width="276.76889mm"
   height="144.83083mm"
   viewBox="0 0 276.76889 144.83083"
   version="1.1"
   id="svg1"
   xml:space="preserve"
   inkscape:version="1.4 (e7c3feb100, 2024-10-09)"
   sodipodi:docname="grundlagen.svg"
   xmlns:inkscape="http://www.inkscape.org/namespaces/inkscape"
   xmlns:sodipodi="http://sodipodi.sourceforge.net/DTD/sodipodi-0.dtd"
   xmlns="http://www.w3.org/2000/svg"
   xmlns:svg="http://www.w3.org/2000/svg"><sodipodi:namedview
     id="namedview1"
     pagecolor="#ffffff"
     bordercolor="#000000"
     borderopacity="0.25"
     inkscape:showpageshadow="2"
     inkscape:pageopacity="0.0"
     inkscape:pagecheckerboard="0"
     inkscape:deskcolor="#d1d1d1"
     inkscape:document-units="mm"
     inkscape:zoom="0.04220416"
     inkscape:cx="2926.2518"
     inkscape:cy="-3862.1785"
     inkscape:window-width="1920"
     inkscape:window-height="939"
     inkscape:window-x="1920"
     inkscape:window-y="32"
     inkscape:window-maximized="1"
     inkscape:current-layer="layer1"
     showgrid="false"><inkscape:page
       x="0"
       y="0"
       width="276.76889"
       height="144.83083"
       id="page2"
       margin="0"
       bleed="0" /></sodipodi:namedview><defs
     id="defs1" /><g
     inkscape:label="Layer 1"
     inkscape:groupmode="layer"
     id="layer1"
     transform="translate(-954.78914,1484.7218)"><g
       id="g1"><path
         id="rect19-7-6-1"
         style="fill:none;stroke:#ff0000;stroke-width:2.64583;stroke-linejoin:round;stroke-dasharray:none;paint-order:markers fill stroke"
         d="m 1210.3279,-1361.333 h -19.1619 l 4.7625,20.1191 h 14.3994 z"
         sodipodi:nodetypes="ccccc" /><path
         id="rect19-7-6-1-4"
         style="fill:none;stroke:#ff0000;stroke-width:2.64583;stroke-linejoin:round;stroke-dasharray:none;paint-order:markers fill stroke"
         d="m 976.01913,-1361.333 h 19.1619 l -4.7625,20.1191 h -14.3994 z"
         sodipodi:nodetypes="ccccc" /><path
         id="rect31-9"
         style="fill:none;stroke:#ff0000;stroke-width:2.64583;stroke-linejoin:round;paint-order:markers fill stroke"
         d="m 1108.689,-1483.3988 h 86.1235 c 8.5955,0 15.5154,6.9198 15.5154,15.5154 v 66.5325 c 0,8.5955 -6.9199,15.5154 -15.5154,15.5154 h -101.639 v -15.5154 -66.5325 c 0,-8.5956 6.9199,-15.5154 15.5155,-15.5154 z"
         sodipodi:nodetypes="sssssccss" /><path
         id="rect31-9-6"
         style="fill:none;stroke:#ff0000;stroke-width:2.64583;stroke-linejoin:round;paint-order:markers fill stroke"
         d="m 1077.658,-1483.3988 h -86.12347 c -8.5955,0 -15.5154,6.9198 -15.5154,15.5154 v 66.5325 c 0,8.5955 6.9199,15.5154 15.5154,15.5154 h 101.63897 v -15.5154 -66.5325 c 0,-8.5956 -6.9199,-15.5154 -15.5155,-15.5154 z"
         sodipodi:nodetypes="sssssccss" /><path
         id="rect31-9-6-6"
         style="fill:none;stroke:#ff0000;stroke-width:1.29828;stroke-linejoin:round;paint-order:markers fill stroke"
         d="m 1078.7578,-1415.0184 h -80.01837 c -7.9862,0 -14.4156,1.7933 -14.4156,4.0209 v 17.2418 c 0,2.2276 6.4294,4.0209 14.4156,4.0209 h 94.43407 v -4.0209 -17.2418 c 0,-2.2276 -6.4294,-4.0209 -14.4157,-4.0209 z"
         sodipodi:nodetypes="sssssccss" /><path
         id="rect31-9-6-6-9"
         style="fill:none;stroke:#ff0000;stroke-width:1.29828;stroke-linejoin:round;paint-order:markers fill stroke"
         d="m 1187.6075,-1415.0184 h -80.0184 c -7.9862,0 -14.4156,1.7933 -14.4156,4.0209 v 17.2418 c 0,2.2276 6.4294,4.0209 14.4156,4.0209 h 94.4341 v -4.0209 -17.2418 c 0,-2.2276 -6.4294,-4.0209 -14.4157,-4.0209 z"
         sodipodi:nodetypes="sssssccss" /><path
         id="rect30"
         style="fill:#ffffff;stroke:#ff0000;stroke-width:2.64583;stroke-linejoin:round;stroke-dasharray:none;paint-order:markers fill stroke"
         d="m 963.31573,-1443.7098 h 14.583 c 6.0658,0 6.4251,2.0313 6.4251,7.2037 v 46.7713 h 108.84977 108.3206 v -46.7713 c 0,-4.5349 0.021,-7.2037 5.2669,-7.2037 h 16.2703 c 3.9909,0 7.2037,3.2129 7.2037,7.2037 v 67.9695 c 0,3.9908 -3.2128,7.2036 -7.2037,7.2036 H 963.31573 c -3.9909,0 -7.2037,-3.2128 -7.2037,-7.2036 v -67.9695 c 0,-3.9908 3.2128,-7.2037 7.2037,-7.2037 z"
         sodipodi:nodetypes="scccccccssssssss" /></g></g></svg>
