<?xml version="1.0" encoding="UTF-8" standalone="no"?>
<!-- Created with Inkscape (http://www.inkscape.org/) -->

<svg
   width="1295.2346mm"
   height="1223.6034mm"
   viewBox="0 0 1295.2346 1223.6033"
   version="1.1"
   id="svg1"
   xml:space="preserve"
   xmlns="http://www.w3.org/2000/svg"
   xmlns:svg="http://www.w3.org/2000/svg"><defs
     id="defs1" /><g
     id="layer1"
     transform="translate(-5056.7408,4671.4438)"><path
       style="fill:#000000;stroke-width:5.54815"
       d="m 5057.0063,-3450.2397 c -0.4882,-1.2683 -0.283,-2.9061 0.4494,-3.6396 0.7335,-0.7334 12.8767,-1.5146 26.9851,-1.7365 l 25.6518,-0.4051 v -430.8419 -430.8425 l -21.2854,-0.3939 c -17.8961,-0.3273 -21.5773,-0.7828 -23.1203,-2.8495 -1.2577,-1.685 -1.8347,-8.7483 -1.8347,-22.4628 v -20.0044 l 33.4919,-51.3365 c 42.9327,-65.8071 60.0892,-91.5128 63.7898,-95.5779 l 2.9655,-3.2579 540.4506,-0.066 540.4506,-0.067 2.9749,3.3228 c 1.6361,1.827 24.2193,35.4038 50.1846,74.6148 l 47.2098,71.292 v 21.2622 c 0,14.5794 -0.5548,21.8153 -1.7616,23.0231 -1.2111,1.2112 -8.5463,1.7616 -23.4869,1.7616 h -21.7255 v 431.5432 431.5432 l 26.7898,0.3995 c 25.6779,0.3828 26.7898,0.5215 26.7898,3.3361 0,2.9194 -0.9781,2.9355 -179.0892,2.9355 -178.1111,0 -179.0898,0 -179.0898,-2.9355 0,-2.9117 1.2234,-2.9422 147.5286,-3.6701 l 147.5291,-0.7341 0.4106,-17.2408 0.4105,-17.2415 -145.0063,-0.3717 c -143.9029,-0.3717 -145.0064,-0.3994 -145.0064,-3.31 0,-2.9083 1.2234,-2.9427 130.6472,-3.6701 l 130.6472,-0.734 0.3718,-409.9238 0.3717,-409.9243 h -557.0884 -557.0889 l -0.1,355.6102 c -0.055,195.5855 -0.1165,376.4179 -0.1387,401.8506 0,25.4322 0,50.0349 0.1,54.6731 l 0.1387,8.4327 131.0145,0.3772 c 129.911,0.3718 131.0145,0.3995 131.0145,3.3106 0,2.9139 -1.1035,2.9389 -144.9598,3.31 l -144.9597,0.3718 v 17.6015 17.6009 l 147.8953,0.3717 c 146.7923,0.3718 147.8958,0.394 147.8958,3.3101 0,2.9177 -1.1029,2.9383 -178.7663,3.3089 -161.3701,0.3384 -178.8528,0.1498 -179.6518,-1.9341 z m 80.2417,-457.9063 v -410.2916 h -8.8076 -8.8077 v 410.2916 410.291 h 8.8077 8.8076 z m 1152.3386,0 v -410.2916 h -9.5417 -9.5417 v 410.2916 410.291 h 9.5417 9.5417 z m 46.7143,-434.1453 0.4716,-14.3126 -26.1629,-0.1831 c -67.6929,-0.4771 -1182.0616,-0.5381 -1207.8599,-0.067 l -29.3592,0.5382 0.4661,14.5373 0.466,14.5378 630.7528,-0.3717 630.7528,-0.3662 z m -9.0324,-32.2952 c -7.0839,-10.9637 -9.3464,-14.3792 -50.2102,-75.7883 l -36.7487,-55.2257 -535.9388,-0.3717 -535.9383,-0.3662 -19.4634,29.7275 c -10.7052,16.3504 -29.1167,44.4252 -40.9143,62.3878 -11.7981,17.9627 -23.5918,35.9637 -26.2083,40.0016 l -4.7581,7.3419 h 627.5798 627.5792 z m -1213.4259,-6.1407 c -1.3559,-1.6334 -1.3143,-2.8945 0.1887,-5.6431 3.3178,-6.0741 60.0259,-94.172 65.265,-101.3912 l 4.9734,-6.8537 84.0173,0.3773 84.0167,0.3773 0.4383,3.0864 c 0.2496,1.7549 -11.2955,26.6006 -26.7748,57.617 l -27.2159,54.5305 h -91.5822 c -77.7162,0 -91.8462,-0.3163 -93.3276,-2.1039 z m 53.6867,-19.2277 7.5277,-13.8992 -16.3354,0.055 h -16.3354 l -5.5038,9.1494 c -3.0271,5.0316 -6.8902,11.2955 -8.5846,13.9198 l -3.0815,4.7708 17.3924,-0.055 17.3928,-0.055 z m 43.4664,-0.3218 7.2486,-13.5785 h -18.3549 -18.3544 l -7.4639,13.4126 c -4.1051,7.3774 -7.4639,13.6723 -7.4639,13.9897 0,0.3162 8.3566,0.3939 18.5702,0.1664 l 18.5696,-0.4105 z m 42.9393,1.1302 c 3.6413,-7.2503 6.6206,-13.5259 6.6206,-13.9459 0,-0.4216 -8.108,-0.7628 -18.0181,-0.7628 h -18.0177 l -6.9274,13.9452 -6.9274,13.9453 h 18.325 18.325 z m 41.7665,7.4772 c 1.6006,-3.138 4.5506,-9.4135 6.5545,-13.9458 l 3.6446,-8.2401 -19.3697,0.067 -19.3697,0.066 -7.0306,13.8809 -7.0306,13.8815 h 19.8457 19.8452 z m -111.9999,-37.5998 c 3.4714,-5.6513 6.3298,-10.7706 6.352,-11.3765 0,-0.6053 -6.5335,-1.1007 -14.5683,-1.1007 h -14.6088 l -4.2077,6.2389 c -2.3142,3.431 -5.7168,8.7389 -7.5616,11.7948 l -3.3538,5.5559 15.8183,-0.4161 15.8183,-0.4161 z m 42.9637,-0.1109 c 3.2995,-6.1169 5.9992,-11.4015 5.9992,-11.7433 0,-0.3439 -7.8806,-0.6213 -17.5121,-0.6213 h -17.5128 l -5.9748,10.8233 c -3.2856,5.9526 -5.9742,11.2372 -5.9742,11.7437 0,0.5049 7.8695,0.9199 17.4877,0.9199 h 17.4878 z m 42.3008,0.4771 c 3.0309,-5.8533 5.7367,-11.1379 6.0125,-11.7432 0.2774,-0.6059 -7.4345,-1.1013 -17.1338,-1.1013 H 5240.21 l -5.9742,10.8233 c -3.2862,5.9532 -5.9748,11.2378 -5.9748,11.7438 0,0.5048 7.9183,0.9204 17.597,0.9204 h 17.5965 z m 44.9094,-0.1332 c 2.9688,-5.927 5.3978,-11.2117 5.3978,-11.7432 0,-0.5326 -8.4221,-0.9393 -18.7161,-0.9049 l -18.7161,0.061 -5.1382,10.249 c -2.8256,5.6375 -5.3578,10.8944 -5.6269,11.6817 -0.2996,0.8821 6.7865,1.4319 18.4559,1.4319 h 18.9453 z m -116.3524,-24.0961 c 1.26,-2.2154 4.1301,-7.1655 6.3782,-11.0003 l 4.0873,-6.9729 -14.4518,0.078 -14.4524,0.078 -6.933,10.931 -6.9335,10.9309 h 15.0072 c 14.8235,0 15.0349,-0.061 17.298,-4.0368 z m 45.7539,-6.8192 c 3.0443,-5.5721 5.5354,-10.3612 5.5354,-10.6425 0,-0.283 -7.8456,-0.5104 -17.4339,-0.5104 h -17.4334 l -5.3196,10.1231 c -2.9261,5.5681 -5.3196,10.5432 -5.3196,11.0564 0,0.5104 7.748,0.7467 17.2182,0.5215 l 17.2181,-0.4106 z m 42.43,-0.5105 5.8999,-10.6424 h -18.1463 -18.1463 l -5.0566,9.9084 c -2.7807,5.4499 -5.2968,10.425 -5.5903,11.0558 -0.2941,0.6314 7.4922,0.9615 17.3024,0.734 l 17.8373,-0.4105 z m 43.0897,1.1379 c 2.8362,-5.6319 5.1565,-10.5858 5.1565,-11.0097 0,-0.4217 -8.1758,-0.7706 -18.1674,-0.7706 h -18.168 l -5.3196,10.1231 c -2.9255,5.5681 -5.3195,10.5221 -5.3195,11.0098 0,0.4882 8.249,0.886 18.331,0.886 h 18.3306 z m -115.3604,-21.4058 c 1.6944,-2.8723 3.0809,-5.5143 3.0809,-5.8722 0,-0.3551 -6.1102,-0.6458 -13.5785,-0.6408 h -13.5786 l -2.5688,4.514 c -1.4131,2.4822 -2.5688,5.1204 -2.5688,5.8622 0,0.7417 5.88,1.3493 13.0665,1.3493 h 13.0664 z m 41.1279,0.2774 c 1.6805,-2.7197 3.0559,-5.3617 3.0559,-5.8722 0,-0.5104 -7.8046,-0.9276 -17.3435,-0.9276 h -17.3435 l -2.4739,5.1875 c -1.361,2.8534 -2.474,5.496 -2.474,5.8722 0,0.3772 7.5427,0.684 16.7615,0.684 h 16.7621 z m 42.5182,-0.9277 3.0609,-5.8721 h -17.4467 -17.4473 l -2.9588,5.015 c -1.6273,2.7585 -2.5732,5.4011 -2.1022,5.8721 0.4716,0.4716 8.2768,0.8566 17.3452,0.8566 h 16.4885 z m 42.7424,0 2.9954,-5.8721 h -18.3594 -18.3593 l -2.2215,5.3173 c -1.2223,2.9245 -2.222,5.5665 -2.222,5.8716 0,0.3052 7.9138,0.5548 17.5859,0.5548 h 17.5854 z m -15.4649,101.2049 c -0.5271,-0.8533 -0.516,-3.3256 0.055,-5.4938 0.941,-3.7505 25.8328,-59.4106 41.6533,-93.1423 l 7.4012,-15.7806 h 90.35 c 71.2115,0 90.3859,0.3884 90.5191,1.8348 0.3717,4.0324 -0.6258,8.9802 -8.2129,40.7356 -4.3403,18.1658 -9.6122,40.6258 -11.7161,49.9106 -2.1033,9.2843 -4.4485,18.3677 -5.2119,20.1842 l -1.3881,3.3028 h -101.2332 c -69.5349,0 -101.5333,-0.4883 -102.1919,-1.5513 z m 53.4042,-19.2565 c 2.5338,-7.4073 4.4296,-13.6457 4.2127,-13.8632 -0.2164,-0.2163 -8.3039,-0.5104 -17.9704,-0.6558 l -17.576,-0.2607 -4.666,10.1487 c -2.5666,5.5819 -5.1154,11.9379 -5.6641,14.1239 l -0.9976,3.9752 h 19.0269 19.0268 z m 48.0303,1.3576 c 2.2032,-6.6611 4.3098,-12.9366 4.6815,-13.9458 0.5216,-1.4142 -4.1627,-1.8348 -20.4249,-1.8348 h -21.1002 l -4.2515,12.1105 c -2.338,6.6611 -4.5445,12.9361 -4.9024,13.9453 -0.5048,1.4137 4.2438,1.8353 20.6702,1.8353 h 21.3216 z m 51.0563,-0.8744 c 2.1432,-7.1421 3.897,-13.4348 3.897,-13.9846 0,-0.5493 -9.6843,-0.8173 -21.5207,-0.5937 l -21.5202,0.405 -4.1688,12.4112 c -2.2925,6.8259 -4.1684,12.9361 -4.1684,13.5786 0,0.6419 9.8064,1.1673 21.7921,1.1673 h 21.7925 z m 46.3448,7.4801 c 2.3041,-8.6979 4.4518,-18.5458 4.4906,-20.5926 0.055,-1.453 -4.4879,-1.7842 -20.006,-1.468 l -20.0427,0.4106 -4.1489,13.2112 c -2.282,7.2664 -4.1622,13.3766 -4.1789,13.5786 0,0.1997 9.5229,0.3661 21.1989,0.3661 h 21.2289 z m -133.7126,-39.0479 c 2.5605,-6.7416 4.656,-12.5216 4.656,-12.8445 -5e-4,-0.3218 -7.5255,-0.7296 -16.7221,-0.9044 l -16.7221,-0.3162 -6.0309,12.5693 c -3.3172,6.913 -6.0313,12.8357 -6.0313,13.1619 0,0.3273 8.1435,0.5931 18.0969,0.5931 h 18.0975 z m 47.6103,0.233 c 2.1688,-6.6145 3.6207,-12.3491 3.2268,-12.743 -0.3939,-0.3939 -9.4102,-0.7617 -20.036,-0.8178 l -19.3203,-0.1 -4.8779,12.4777 c -2.6831,6.8626 -4.8791,12.6426 -4.8808,12.8446 0,0.1997 9.4363,0.3661 20.9715,0.3661 h 20.9737 z m 49.6537,-0.7978 c 2.2337,-6.6495 3.5997,-12.3757 3.0354,-12.7241 -1.7743,-1.0969 -40.2929,0.4327 -41.3781,1.6422 -0.5692,0.6347 -2.3707,5.1171 -4.0041,9.9612 -1.6339,4.8441 -3.4493,9.9816 -4.0351,11.4169 -0.9959,2.4407 0.3329,2.5827 20.6285,2.2015 l 21.6927,-0.405 z m 45.5414,1.0813 c 1.4575,-6.0552 2.6781,-11.8353 2.712,-12.8445 0.066,-2.0173 -16.1601,-2.3291 -30.6541,-0.5892 l -7.9627,0.9559 -3.386,11.0098 c -1.8626,6.0552 -3.3988,11.5235 -3.4144,12.1521 0,0.628 8.9908,0.9582 20.0139,0.7335 l 20.041,-0.4106 z m -130.6472,-31.1939 4.0585,-9.909 h -16.4747 -16.4752 l -4.7187,9.5695 c -2.5954,5.2635 -4.7193,9.9084 -4.7193,10.3223 0,0.4161 7.7114,0.5665 17.136,0.3384 l 17.1355,-0.4161 z m 46.2183,0.3662 c 1.9147,-5.248 3.4914,-9.7259 3.5053,-9.95 0,-0.2275 -8.9552,-0.2275 -19.9295,0 l -19.9539,0.4105 -3.5336,8.6901 c -1.943,4.7792 -3.5331,9.2571 -3.5331,9.95 0,0.693 8.9919,1.0758 19.9822,0.8517 l 19.9822,-0.4106 z m 47.6963,2.2015 c 4.6588,-13.2534 5.5704,-12.6159 -17.3729,-12.1515 l -20.1803,0.4105 -3.2196,8.8077 c -1.7709,4.8441 -3.2589,9.3209 -3.3067,9.9489 -0.055,0.6275 9.2699,0.9576 20.7063,0.7341 l 20.7933,-0.4051 z m 43.3937,0 c 3.1353,-13.5181 4.3048,-12.6215 -15.8527,-12.1554 l -17.8373,0.4105 -1.7942,5.1903 c -0.9871,2.8545 -2.2654,7.3341 -2.8407,9.9534 l -1.0464,4.7631 18.8349,-0.4106 18.8343,-0.4105 z m -129.4166,-22.1981 c 1.2217,-2.9245 2.2215,-5.567 2.2215,-5.8722 0,-0.3051 -7.2642,-0.5548 -16.1435,-0.5548 h -16.1429 l -2.0012,4.7708 c -1.1007,2.6243 -1.7243,5.2663 -1.3859,5.8722 0.3384,0.6053 7.5044,1.1008 15.9232,1.1008 h 15.3068 z m 45.5065,0 c 1.2217,-2.9245 2.2214,-5.567 2.2214,-5.8722 0,-0.3051 -8.8531,-0.5548 -19.6737,-0.5548 h -19.6737 l -1.6118,4.6233 c -0.886,2.5427 -1.6111,5.1847 -1.6111,5.8716 0,0.6868 8.5785,1.2489 19.0634,1.2489 h 19.0634 z m 46.8285,1.7837 c 0.4883,-1.9435 1.2905,-4.5861 1.7838,-5.8722 0.7939,-2.0683 -1.4054,-2.338 -19.0574,-2.338 h -19.9544 l -2.2215,5.3168 c -1.2223,2.9245 -2.222,5.567 -2.222,5.8722 0,0.3051 9.1766,0.5548 20.3922,0.5548 20.3178,0 20.3955,0 21.2793,-3.5336 z m 41.0086,2.4323 c 0.3551,-0.6053 1.1085,-3.2479 1.6711,-5.8716 l 1.0231,-4.7709 h -17.6331 c -17.0262,0 -17.6653,0.1166 -18.5824,3.3029 -2.6432,9.1955 -4.0064,8.4404 15.2457,8.4404 9.6949,0 17.9189,-0.4938 18.2756,-1.1008 z m 11.8414,95.8925 c -0.8899,-2.3186 19.5417,-107.2124 21.6816,-111.3141 1.2689,-2.4318 8.5203,-2.5561 128.5406,-2.2021 l 127.1963,0.3773 3.3522,13.2118 c 9.9306,39.1361 22.8073,98.9046 21.696,100.7033 -0.4716,0.7662 -63.8586,1.3188 -151.2397,1.3188 -128.8807,0 -150.539,-0.2996 -151.227,-2.0928 z m 48.3294,-7.2636 c 0.4272,-1.1096 1.2422,-7.3852 1.8148,-13.9458 l 1.0403,-11.9286 h -18.4399 c -16.3148,0 -18.5213,0.2941 -19.1444,2.5694 -0.6086,2.217 -2.1083,9.1788 -4.7431,22.0189 -0.6763,3.2945 -0.6292,3.3028 19.0102,3.3028 15.3445,0 19.859,-0.4438 20.4621,-2.0167 z m 49.4706,-8.6257 c 0,-5.8533 0.4161,-12.1288 0.9049,-13.9458 l 0.8855,-3.3029 h -21.2855 -21.2855 l -0.967,9.909 c -0.5326,5.4494 -1.3216,11.7249 -1.7554,13.9453 l -0.789,4.0368 h 22.136 22.136 z m 46.954,-3.3028 v -13.9459 h -20.5509 -20.5515 v 13.9459 13.9452 h 20.5515 20.5509 z m 49.197,1.1007 c -0.5836,-7.0644 -1.3609,-13.3399 -1.7282,-13.9453 -0.3662,-0.6058 -9.8768,-1.1013 -21.1323,-1.1013 h -20.4644 v 12.9672 c 0,7.1316 0.4383,13.4071 0.9787,13.9452 0.5382,0.5382 10.5249,0.9787 22.1926,0.9787 h 21.2145 z m 51.5152,3.2601 c -0.5382,-5.2713 -1.3749,-11.5468 -1.8542,-13.9453 l -0.8722,-4.3614 h -22.6686 c -20.8833,0 -22.6126,0.1998 -21.954,2.5694 0.3939,1.4125 1.1656,7.1926 1.7165,12.8445 0.5493,5.6513 1.3033,10.7706 1.6723,11.3765 0.3661,0.6053 10.6324,1.1007 22.8067,1.1007 h 22.1355 z m 47.5148,7.7497 c -0.055,-2.0118 -2.2048,-11.9219 -4.4912,-20.5515 l -1.458,-5.5049 h -19.0269 c -14.7541,0 -19.0268,0.4328 -19.0268,1.9325 0,1.9651 2.4218,16.6455 3.7373,22.6558 0.7057,3.2263 1.1828,3.3028 20.512,3.3028 14.8718,0 19.7803,-0.4549 19.7536,-1.8347 z m -240.2691,-34.4968 c 0.4438,-2.2203 1.271,-8.1657 1.8408,-13.2118 l 1.0359,-9.1744 h -17.6836 -17.6831 l -1.5668,7.3058 c -0.8616,4.018 -1.9918,9.9634 -2.5111,13.2113 l -0.9443,5.906 h 18.3533 18.3533 z m 47.0605,-4.9861 c 0.5159,-4.9628 0.9431,-10.9748 0.9431,-13.3599 v -4.337 l -15.78,0.8283 c -8.6795,0.455 -17.5122,0.8528 -19.6282,0.8827 -3.5298,0.055 -3.9287,0.6908 -4.8225,7.7602 -0.5382,4.2388 -1.3548,9.8536 -1.8203,12.4778 l -0.8461,4.7709 h 20.5054 20.5059 z m 44.9838,-3.8215 v -12.8446 l -18.7183,0.4938 c -10.2952,0.2719 -18.897,0.6697 -19.1151,0.8855 -0.2163,0.2164 -0.8111,5.7745 -1.3182,12.3519 l -0.9227,11.959 h 20.0349 20.035 z m 46.1517,0.734 c -0.562,-6.6611 -1.3493,-12.6753 -1.7499,-13.3649 -0.3995,-0.6902 -9.069,-0.9516 -19.2632,-0.5809 l -18.5347,0.6741 -0.4216,12.6908 -0.4217,12.6914 h 20.709 20.7096 z m 50.107,5.8716 c -0.5493,-3.4315 -1.3715,-8.9558 -1.8276,-12.277 l -0.8283,-6.0374 -11.0009,-0.9299 c -6.0508,-0.5104 -15.5514,-0.5049 -21.1135,0 -11.4391,1.063 -10.8821,0.061 -9.1694,16.4502 l 0.9432,9.023 h 21.9978 21.9979 z m 44.662,4.6937 c 0,-4.3065 -4.9961,-22.8273 -6.4259,-23.8215 -0.9065,-0.6303 -9.2443,-0.8267 -18.5291,-0.4383 -19.2626,0.8089 -17.7169,-0.9587 -14.5378,16.6283 l 1.6589,9.1745 h 18.9169 c 12.2631,0 18.917,-0.5438 18.917,-1.5452 z m -228.461,-34.7869 c 0.4272,-2.2198 1.1961,-6.8442 1.7138,-10.2751 l 0.9415,-6.2389 h -17.5566 -17.5571 l -0.8821,5.5048 c -0.4883,3.0277 -1.3133,7.6515 -1.8392,10.2758 l -0.9565,4.7708 h 17.6819 17.6825 z m 44.6681,-6.6056 0.4327,-9.9084 h -18.3 -18.3 l -0.7717,4.0368 c -0.4272,2.2204 -1.199,6.8636 -1.7211,10.319 l -0.9487,6.2827 19.5866,-0.4105 19.5867,-0.4106 z m 42.87,0.3662 v -10.2757 h -18.173 -18.1729 l -0.7085,9.1749 c -0.3884,5.0461 -0.4273,9.6699 -0.089,10.2758 0.3384,0.6053 8.8371,1.1007 18.8814,1.1007 h 18.2629 z m 44.0384,6.8109 c 0,-1.9058 -0.4217,-6.5296 -0.9332,-10.2757 l -0.9338,-6.8109 h -18.1496 -18.1497 v 10.2757 10.2757 h 19.0829 c 19.0762,0 19.0834,0 19.0834,-3.4648 z m 46.3215,-5.6586 c -0.5676,-5.0183 -1.3527,-9.6421 -1.7444,-10.2757 -0.3939,-0.6336 -9.5905,-1.1523 -20.4427,-1.1523 h -19.7303 v 3.4653 c 0,1.9058 0.4217,6.5297 0.9332,10.2758 l 0.9338,6.8103 h 20.5414 20.5409 z m 43.2234,7.3769 c 0,-0.9604 -0.7929,-5.5848 -1.7616,-10.2758 l -1.7615,-8.5291 h -18.0559 c -9.9306,0 -18.0553,0.4438 -18.0553,0.9809 0,0.5381 0.7279,5.1636 1.6184,10.2757 l 1.6189,9.2948 h 18.1985 c 13.0892,0 18.1985,-0.4882 18.1985,-1.7465 z m -217.5318,-29.4962 0.4605,-5.5537 -16.5479,0.4161 -16.5485,0.4161 -0.9631,4.7215 c -0.5271,2.5971 -0.5903,5.0943 -0.1332,5.5504 0.455,0.4549 8.1297,0.643 17.0528,0.4161 l 16.2245,-0.4106 z m 42.5676,0.055 0.455,-5.5049 h -18.2773 -18.2773 l -0.6053,5.1825 c -0.3329,2.8507 -0.2774,5.5121 0.1276,5.9149 0.4051,0.405 8.6951,0.5493 18.4271,0.3218 l 17.6947,-0.4106 z m 41.3809,0.3218 v -5.9171 l -17.9821,0.4105 c -17.5588,0.3995 -17.9938,0.4938 -18.4654,3.8221 -1.0236,7.2221 -0.089,7.5999 18.786,7.5999 h 17.6615 z m 41.1029,0.055 v -5.8716 h -17.6154 -17.6154 v 5.8716 5.8716 h 17.6154 17.6154 z m 45.2279,0.3662 -0.4549,-5.5049 -19.4507,-0.4105 -19.4502,-0.4106 v 4.9357 c 0,2.7147 0.4383,5.3761 0.9787,5.9143 0.5382,0.5381 9.4957,0.9787 19.9062,0.9787 h 18.927 z m 41.3609,2.9361 c 0,-1.4131 -0.4161,-4.0551 -0.9055,-5.8722 -0.8555,-3.1918 -1.4758,-3.3028 -18.4459,-3.3028 h -17.5604 l 1.023,4.7709 c 0.5626,2.6243 1.3149,5.2663 1.6711,5.8716 0.3551,0.6058 8.2057,1.1013 17.4429,1.1013 15.0238,0 16.7925,-0.2719 16.7748,-2.5688 z m 55.8171,96.1505 c -1.1984,-2.8479 -19.7852,-74.6731 -25.9048,-100.103 -1.1546,-4.7975 -1.7655,-9.5916 -1.3582,-10.6536 0.6036,-1.5729 17.4306,-1.8608 90.695,-1.5529 l 89.9532,0.3773 27.6592,55.472 c 15.2124,30.5093 27.2891,56.4369 26.8364,57.617 -0.7113,1.8531 -14.8147,2.1449 -103.6572,2.1449 h -102.8338 z m 50.9919,-6.6062 c -0.3939,-1.4125 -2.2858,-7.6819 -4.2082,-13.9314 l -3.4943,-11.3631 h -21.5467 -21.5463 l 3.5642,13.3177 c 1.9601,7.3247 3.5641,13.6002 3.5641,13.9453 0,0.344 9.9855,0.6281 22.1904,0.6281 20.4266,0 22.1337,-0.2053 21.4768,-2.5688 z m 51.7493,1.1313 c 0,-0.7906 -2.1283,-7.0661 -4.7298,-13.9453 l -4.7293,-12.5077 h -21.6938 c -11.9313,0 -21.6932,0.5437 -21.6932,1.2106 0,0.992 5.4288,17.7718 8.0387,24.8451 0.8444,2.2892 44.8074,2.6792 44.8074,0.3995 z m 51.2937,0.3384 c -0.055,-0.6053 -2.5294,-6.7155 -5.5182,-13.5785 l -5.4344,-12.4772 -21.8114,-0.4051 c -17.2287,-0.3217 -21.6567,0 -21.0763,1.4681 0.405,1.0314 2.9588,7.3247 5.6768,13.9858 l 4.9423,12.1105 h 21.6528 c 11.9091,0 21.615,-0.4938 21.5684,-1.1014 z m 42.2669,0 c -0.3107,-0.6053 -3.4032,-6.8808 -6.8758,-13.9452 l -6.3149,-12.8446 h -16.6977 c -9.1839,0 -16.6983,0.4883 -16.6983,1.083 0,0.5959 2.4512,6.8714 5.4466,13.9459 l 5.4466,12.8622 h 18.1275 c 9.97,0 17.8745,-0.4938 17.566,-1.1013 z m -155.2144,-32.2896 c 0,-3.3439 -7.7713,-23.7051 -9.2532,-24.2432 -0.966,-0.3496 -10.0366,-0.2441 -20.157,0.2385 l -18.401,0.8783 2.7303,12.1105 2.7308,12.1105 h 21.175 c 11.6461,0 21.1751,-0.4938 21.1751,-1.0957 z m 49.2786,-1.4731 c -0.5215,-1.4125 -2.677,-7.0278 -4.793,-12.4772 l -3.8471,-9.909 h -20.8527 -20.8522 l 3.4693,10.643 c 1.9085,5.8533 3.7794,11.468 4.1572,12.4773 0.5049,1.3531 6.3304,1.8347 22.176,1.8347 19.8462,0 21.4158,-0.1942 20.5425,-2.5688 z m 46.9584,-5.8716 c -1.8508,-4.6427 -4.2199,-10.2574 -5.2646,-12.4778 l -1.8991,-4.0368 h -20.3157 c -12.0445,0 -20.3156,0.5759 -20.3156,1.4137 0,0.7773 1.3887,4.9062 3.0858,9.1749 1.6967,4.2682 3.6624,9.2471 4.3675,11.0636 1.2473,3.2141 1.8548,3.3028 22.4944,3.3028 h 21.2123 z m 43.2179,7.6742 c 0,-0.4216 -2.6498,-6.0364 -5.8883,-12.4778 l -5.8882,-11.711 h -16.0281 -16.028 l 3.7356,9.175 c 2.0544,5.046 4.3037,10.6607 4.9983,12.4772 1.2089,3.1613 1.9896,3.3028 18.1807,3.3028 9.3048,0 16.918,-0.344 16.918,-0.7662 z m -149.7306,-32.7113 c 0,-0.6508 -1.3821,-5.2746 -3.0709,-10.2757 l -3.0704,-9.0929 h -19.7814 c -18.1452,0 -19.7197,0.2108 -19.0362,2.5694 0.4106,1.4125 1.5124,5.5415 2.4495,9.1744 0.9376,3.6335 2.0068,7.1011 2.3763,7.7069 0.9099,1.4914 40.1331,1.4115 40.1331,-0.083 z m 47.3001,0.3662 c 0.4494,-0.4494 -0.8733,-5.0727 -2.9377,-10.2757 l -3.7533,-9.4602 h -20.3046 c -11.1673,0 -20.3045,0.2275 -20.3045,0.5049 0,1.0242 5.7634,17.2159 6.6228,18.6068 0.9265,1.4991 39.2148,2.0872 40.6773,0.6247 z m 48.5496,-0.2885 c 0.3329,-0.6053 -1.281,-5.2297 -3.5879,-10.2757 l -4.195,-9.1745 h -20.5248 -20.5248 l 2.9777,7.5538 c 5.5353,14.0441 3.4759,12.9971 25.5692,12.9971 10.8238,0 19.9522,-0.4938 20.2856,-1.1007 z m 37.7335,0.2385 c 0,-0.4715 -2.1088,-5.0965 -4.6865,-10.2757 l -4.6859,-9.4157 h -15.1309 c -8.3223,0 -15.1315,0.2385 -15.1315,0.5326 0,0.294 1.9885,4.9156 4.4185,10.2757 l 4.4186,9.7448 h 15.3989 c 8.4692,0 15.3988,-0.3884 15.3988,-0.86 z m -141.9487,-25.1963 c 0.3384,-0.6059 -0.283,-3.2479 -1.3854,-5.8716 l -2.0012,-4.7709 h -19.079 c -10.4938,0 -19.079,0.3496 -19.079,0.7807 0,0.4272 0.9571,3.072 2.1266,5.8721 l 2.1272,5.0904 h 18.3377 c 10.0855,0 18.6146,-0.4937 18.9531,-1.1007 z m 46.5323,0.1054 c 0,-0.5493 -0.7934,-3.1907 -1.7632,-5.8722 l -1.7627,-4.8746 h -19.5222 c -10.7374,0 -19.5229,0.5621 -19.5229,1.2489 0,0.6869 0.7257,3.3289 1.6118,5.8716 l 1.6117,4.6228 h 19.6737 c 10.8206,0 19.6738,-0.4494 19.6738,-0.9965 z m 46.9739,0 c 0,-0.5493 -0.7934,-3.1907 -1.7626,-5.8722 l -1.7627,-4.8746 h -20.2568 c -11.1407,0 -20.2563,0.3052 -20.2563,0.6841 0,0.3773 1.1135,3.0188 2.4739,5.8716 l 2.4739,5.1876 h 19.5456 c 10.7495,0 19.545,-0.4494 19.545,-0.9965 z m 33.7627,-4.8752 -2.9954,-5.8716 h -13.9153 c -8.7378,0 -13.9159,0.5732 -13.9159,1.5408 0,0.8472 1.0075,3.4897 2.2398,5.8716 l 2.2392,4.3309 h 14.6715 14.6721 z m 76.6521,97.9964 c -2.5172,-4.1944 -19.1001,-36.367 -46.5401,-90.2922 -4.6221,-9.0845 -8.0226,-17.5122 -7.556,-18.7283 0.7446,-1.9402 11.235,-2.1649 85.6445,-1.8326 l 84.7957,0.3773 7.0755,10.2757 c 3.8915,5.6519 20.0017,30.3839 35.8006,54.96 22.2841,34.6642 28.4021,45.1974 27.2813,46.9745 -1.2788,2.0278 -11.8697,2.333 -92.5375,2.6681 l -91.0934,0.3772 z m 49.5916,-3.5125 c 0,-0.5104 -3.1292,-6.7882 -6.953,-13.9453 l -6.9535,-13.0132 h -20.7661 -20.7656 l 7.3701,13.9459 7.3696,13.9452 h 20.3495 c 11.1917,0 20.349,-0.4216 20.349,-0.9326 z m 44.0384,0.3828 c 0,-0.3051 -3.2379,-6.4142 -7.1954,-13.5785 l -7.1954,-13.026 -18.4936,-0.4105 c -10.1715,-0.2275 -18.4937,-0.055 -18.4937,0.3939 0,0.4438 3.345,6.7371 7.4334,13.9891 l 7.4329,13.1863 h 18.2562 c 10.0404,0 18.2556,-0.2497 18.2556,-0.5548 z m 39.955,-7.1543 c -2.3674,-4.2388 -5.8855,-10.5088 -7.8174,-13.9336 l -3.5125,-6.2267 h -17.9827 c -9.8901,0 -17.9821,0.344 -17.9821,0.775 0,0.4328 3.461,6.7078 7.6914,13.9453 l 7.6914,13.1586 h 18.1081 18.108 z m 40.7822,6.9163 c 0,-0.4328 -3.9808,-6.7099 -8.8454,-13.9453 l -8.846,-13.1552 h -14.0274 -14.0274 l 2.8374,4.7709 c 1.5601,2.6237 5.2951,8.8992 8.2994,13.9452 l 5.4627,9.175 h 14.5734 c 8.0154,0 14.5733,-0.3551 14.5733,-0.7906 z m -143.0551,-34.0734 c -0.5382,-1.4126 -3.2834,-6.6972 -6.1008,-11.7438 l -5.1226,-9.1744 h -19.7087 -19.7092 l 1.346,3.5408 c 0.7407,1.9474 3.4293,7.2321 5.9759,11.7433 l 4.6294,8.2029 h 19.834 c 18.284,0 19.7576,-0.1997 18.856,-2.5688 z m 38.5291,-9.1539 -6.3044,-11.7232 h -17.9982 -17.9987 l 5.9043,11.7437 5.9044,11.7438 h 18.3982 18.3982 z m 48.6362,10.6219 c -0.061,-0.6053 -2.894,-5.7251 -6.2994,-11.3764 l -6.1912,-10.2758 -17.3635,-0.4161 c -19.8801,-0.4771 -18.9979,-1.6799 -10.2474,13.9936 l 5.1221,9.1749 h 17.5437 c 9.6488,0 17.495,-0.4937 17.4357,-1.1013 z m 33.8703,-0.3495 c 0,-0.7967 -2.7746,-6.0813 -6.1662,-11.7438 l -6.1662,-10.2945 h -13.6635 -13.6634 l 4.6311,8.4404 c 8.9841,16.3731 7.0578,15.0465 21.8508,15.0465 7.6892,0 13.1774,-0.6036 13.1774,-1.4486 z m -136.5188,-30.2696 c 0,-0.4882 -2.4773,-5.4399 -5.5049,-10.9997 l -5.5049,-10.1088 h -19.4501 c -10.698,0 -19.4502,0.3884 -19.4502,0.8767 0,0.4882 2.3935,5.4416 5.3196,11.0097 l 5.3196,10.1231 h 19.6354 c 10.7995,0 19.6355,-0.3994 19.6355,-0.891 z m 42.3257,-0.3051 c -0.2663,-0.6586 -2.8013,-5.6103 -5.627,-11.0042 l -5.1381,-9.8069 h -18.1086 -18.1086 l 5.4744,9.9084 c 3.0109,5.45 5.7495,10.4045 6.0852,11.0098 0.8322,1.5018 36.0368,1.4064 35.4227,-0.094 z m 42.5703,0 c -0.2663,-0.6702 -3.1313,-5.6131 -6.3609,-10.9842 l -5.8716,-9.7653 -17.3751,-0.056 h -17.3746 l 5.4743,9.909 c 3.0116,5.4494 5.7496,10.4039 6.0852,11.0092 0.84,1.5163 36.0319,1.3992 35.4227,-0.1166 z m 28.6984,-7.222 c -2.9699,-4.6427 -6.1218,-9.5967 -7.004,-11.0098 -1.3277,-2.126 -3.801,-2.5688 -14.3475,-2.5688 h -12.743 l 6.1235,10.9781 6.1229,10.9776 13.6241,0.055 13.6235,0.055 z m -128.2737,-18.6668 c 0,-0.3773 -1.1135,-3.0182 -2.4739,-5.8716 l -2.474,-5.1875 h -20.1575 -20.1575 l 3.1813,5.8594 3.1807,5.8599 h 19.4502 c 10.6979,0 19.4507,-0.294 19.4507,-0.6724 z m 42.5704,0 c 0,-0.3773 -1.1136,-3.0182 -2.474,-5.8716 l -2.4739,-5.1875 h -18.0775 c -9.9423,0 -18.0775,0.294 -18.0775,0.6497 0,0.3551 1.3864,2.9999 3.0808,5.8721 l 3.0809,5.2214 h 17.4706 c 9.6088,0 17.4706,-0.3051 17.4706,-0.6841 z m 41.0967,-0.4161 c 0,-0.6053 -1.3143,-3.2479 -2.9144,-5.8716 l -2.9083,-4.7709 h -16.933 -16.9329 l 2.9954,5.8717 2.9955,5.8721 h 16.8519 c 9.2682,0 16.8492,-0.4938 16.8458,-1.1013 z m 30.8272,0 c 0,-0.6053 -1.3149,-3.2479 -2.9144,-5.8716 -2.8923,-4.7437 -2.9761,-4.7709 -14.6743,-4.7709 -6.4708,0 -11.7649,0.3551 -11.7649,0.7857 0,1.2716 4.9379,8.6612 6.5718,9.8346 1.9807,1.4226 22.7885,1.4431 22.7818,0 z m -799.2039,1018.0212 c -6.1241,-13.4143 -8.1347,-22.2392 -8.4432,-37.0655 -0.1886,-9.1966 -0.8245,-12.313 -2.9172,-14.3697 -2.945,-2.8933 -3.5836,-11.2794 -1.1979,-15.7368 1.1607,-2.1687 0.6913,-3.6013 -2.202,-6.7232 -3.4349,-3.7062 -3.9142,-4.9218 -4.3448,-11.0186 -0.089,-1.2883 -1.4292,-4.261 -2.9738,-6.6062 -6.0142,-9.1289 -4.3481,-24.5517 3.6318,-33.6223 1.4204,-1.6151 3.021,-5.3939 3.5564,-8.3977 1.2927,-7.2481 7.3163,-14.1383 15.4882,-17.7152 3.6596,-1.6018 8.3056,-4.069 10.324,-5.4827 2.0184,-1.4131 6.4941,-3.4143 9.9462,-4.4469 7.7823,-2.328 19.7774,0 24.9228,4.8308 1.8658,1.7532 6.8392,4.8691 11.0519,6.9241 8.8027,4.2943 14.2648,11.3953 14.2648,18.5464 0,2.6586 0.7296,5.2846 1.6212,5.8355 2.9189,1.8043 7.1216,12.991 7.1543,19.0457 0,3.2606 -1.195,8.3361 -2.6958,11.2788 -1.5002,2.9433 -3.1042,7.6692 -3.5636,10.5026 -0.4605,2.8329 -2.3324,7.1755 -4.1616,9.6488 -2.5755,3.4837 -2.9306,4.8924 -1.5735,6.2495 2.5,2.5 2.1915,13.7261 -0.4494,16.3676 -1.5313,1.5312 -2.2021,5.2829 -2.2021,12.313 0,14.7713 -2.4367,26.0635 -8.396,38.908 l -5.2785,11.3765 h -23.351 -23.3516 z m 46.1933,0.9088 c 4.0329,-4.0224 9.1234,-22.126 9.8518,-35.0388 l 0.7451,-13.2112 h -28.0719 -28.0714 l -6e-4,11.1102 c -5e-4,11.0852 2.1533,20.8294 7.2121,32.6308 l 2.6736,6.2373 16.9984,-0.056 c 10.6397,0 17.6209,-0.6553 18.6629,-1.6939 z m 13.9319,-57.9243 c 2.854,-2.854 1.4337,-6.9746 -2.758,-8.0027 -1.7276,-0.4216 -16.3526,-0.5836 -32.4999,-0.355 l -29.3591,0.4161 v 4.4035 c 0,3.9975 0.5437,4.494 5.8716,5.3762 3.2296,0.5326 17.2553,0.8533 31.1678,0.7079 20.673,-0.2163 25.7129,-0.6818 27.5776,-2.5466 z m -1.2672,-19.7592 c 3.9803,-3.0359 4.9096,-4.7547 4.9096,-9.0801 0,-3.5131 1.1285,-6.5368 3.3028,-8.8515 5.0926,-5.4205 4.7059,-17.7696 -0.734,-23.4476 -2.9411,-3.0698 -4.0368,-5.7112 -4.0368,-9.7342 0,-3.0365 -0.6803,-6.792 -1.5114,-8.3455 -1.6755,-3.1308 -8.7688,-7.2581 -12.4739,-7.2581 -1.3132,0 -4.3164,-1.9291 -6.6738,-4.2865 -7.6909,-7.6909 -18.2601,-7.6376 -27.1144,0.1387 -2.7419,2.4073 -5.5065,4.0546 -6.144,3.6607 -0.638,-0.394 -3.2573,0.1664 -5.8206,1.2433 -5.2474,2.2065 -9.6693,9.4357 -8.9813,14.6832 0.3107,2.3718 -1.134,5.1276 -4.5201,8.6207 -3.9025,4.0268 -5.1242,6.6722 -5.6608,12.2575 -0.5858,6.0969 -0.1331,7.7774 3.1431,11.6711 2.5371,3.0154 3.8276,6.2899 3.8276,9.7115 0,3.9625 1.0503,6.0458 4.5168,8.963 4.504,3.7899 4.59,3.8005 31.7892,3.8005 26.9745,0 27.3269,-0.055 32.182,-3.745 z m -44.1427,-8.9403 c -0.9959,-2.5943 2.6714,-9.3347 5.0793,-9.3347 0.8062,0 2.2093,1.6322 3.1181,3.6268 1.2633,2.7724 1.2134,4.1544 -0.2108,5.8716 -2.4534,2.9561 -6.8237,2.8662 -7.9866,-0.1609 z m 20.2874,-11.544 c -1.9413,-2.9633 -2.0556,-4.1029 -0.5881,-5.8716 2.5504,-3.0726 5.3217,-2.7336 7.915,0.9681 1.5945,2.277 1.8086,3.922 0.7656,5.8722 -2.0162,3.7666 -5.243,3.3805 -8.0925,-0.9687 z m -34.1883,-4.995 c -1.3465,-0.8527 -1.7088,-2.5821 -1.073,-5.1154 1.4664,-5.8422 9.712,-4.717 9.712,1.3255 0,0.9387 -4.6016,5.1231 -5.6097,5.1004 -0.5492,0 -1.9108,-0.6026 -3.0293,-1.3105 z m 47.9205,-15.8622 c -2.8601,-3.1602 -0.9732,-7.7601 3.1824,-7.7601 4.0152,0 6.8964,4.0873 5.0022,7.0955 -2.1799,3.462 -5.415,3.725 -8.1846,0.6646 z m -29.9472,-7.0378 c -1.0753,-2.8029 3.2395,-9.53 6.1135,-9.53 2.6642,0 2.9666,7.4217 0.405,9.9822 -2.4224,2.4218 -5.4994,2.2082 -6.5202,-0.4494 z m 53.3016,134.6957 c -0.3607,-0.6053 -0.1942,-11.8852 0.3717,-25.0659 1.0713,-24.8802 1.5768,-26.6023 7.8201,-26.6567 2.2659,0 2.5688,-1.6783 2.5688,-14.0645 0,-15.7329 1.3465,-19.7209 6.6578,-19.7209 h 3.6179 v -182.7593 -182.7593 h -12.298 c -9.4152,0 -12.7485,-0.5437 -14.2216,-2.3186 -1.0586,-1.275 -2.7269,-8.583 -3.7084,-16.24 l -1.7837,-13.9214 19.8529,-39.1749 c 10.9194,-21.5462 20.779,-40.6613 21.9113,-42.4777 l 2.059,-3.3028 h 172.817 c 95.0492,0 173.5643,0.5048 174.4781,1.1007 0.9138,0.5931 10.9876,19.388 22.3862,41.7659 15.8788,31.1739 20.7224,41.9862 20.7135,46.2405 0,8.1613 -2.8501,24.246 -4.6555,26.4208 -1.0458,1.2606 -5.6397,1.8853 -13.8626,1.8853 h -12.2974 v 182.4375 182.4369 l 4.1711,1.5746 c 3.8753,1.4631 4.2393,2.2936 5.1276,11.6988 0.527,5.5682 0.9604,12.5183 0.9665,15.445 0,4.6848 0.5159,5.4227 4.2349,6.1662 4.6981,0.9398 4.6271,0.5587 6.9473,37.3218 l 0.9499,15.0466 h -207.0829 c -113.8957,0 -207.3798,-0.4938 -207.7427,-1.1013 z m 403.1084,-8.8077 c 0.3162,-0.6053 0.2829,-8.2023 -0.078,-16.8813 l -0.658,-15.7806 h -195.5938 -195.5933 l -0.8056,15.7795 c -0.4439,8.6784 -0.4993,16.2749 -0.1221,16.8813 0.8905,1.4403 392.0987,1.4414 392.8549,0 z m -10.9881,-54.3141 0.4272,-12.1105 h -185.7548 -185.7547 v 12.4833 12.4834 l 185.3286,-0.3718 185.3281,-0.3717 z m -287.4102,-196.9515 c 0,-96.8185 0.3995,-177.0785 0.8911,-178.3557 0.8006,-2.0855 10.9381,-2.3219 99.5271,-2.3219 74.7596,0 99.0621,0.4272 100.397,1.7615 1.3505,1.3505 1.7616,42.784 1.7616,177.5552 v 175.793 l 4.7708,0.8711 c 2.6243,0.4771 13.3583,0.6735 23.8543,0.4327 l 19.0834,-0.4383 0.3717,-182.9418 c 0.2941,-145.2677 0,-183.2381 -1.468,-184.3788 -1.0126,-0.7906 -12.4101,-6.2245 -25.3279,-12.0755 -12.9177,-5.8506 -34.0562,-15.4572 -46.9739,-21.3477 -35.5453,-16.2078 -73.574,-33.0347 -74.6598,-33.0347 -1.8064,0 -31.3126,13.0159 -119.8433,52.8644 -14.9367,6.7232 -27.9832,12.8534 -28.9924,13.6223 -1.4503,1.1058 -1.8303,39.1062 -1.8148,181.4095 0,99.0056 0.4161,181.4965 0.9055,183.313 0.8705,3.2495 1.2622,3.3034 24.201,3.3034 h 23.3161 z m 23.1014,10.4128 c 0.1887,-90.6878 0.7263,-165.4979 1.1879,-166.2452 1.3432,-2.1732 152.3244,-1.7788 154.507,0.405 1.3493,1.3493 1.7615,40.3522 1.7615,166.6119 v 164.8505 h 6.6057 6.6056 v -173.9516 -173.9516 h -92.4804 -92.481 v 174.032 174.0321 l 6.9729,-0.4494 6.9729,-0.4494 z m 148.2881,3.0459 0.3717,-161.8416 h -70.4681 -70.4676 v 161.2297 c 0,88.676 0.4494,161.6763 0.9926,162.2223 0.5437,0.5437 32.0888,0.8211 70.0947,0.6114 l 69.1017,-0.3829 z m -117.5447,123.4496 c -0.5493,-0.5492 -0.9987,-25.9908 -0.9987,-56.5361 v -55.537 h 48.4598 48.4597 l -0.3828,56.1484 -0.3828,56.1489 -47.0766,0.3884 c -25.8921,0.2108 -47.526,-0.061 -48.0753,-0.6115 z m 88.5462,-55.5574 v -49.176 h -41.1023 -41.1029 v 49.176 49.176 h 41.1029 41.1023 z m 5.8716,-69.7275 c -5.7112,-5.7118 -2.009,-14.6793 6.0608,-14.6793 4.9146,0 7.151,2.5904 7.151,8.284 0,3.2556 -1.0314,5.4837 -3.2623,7.0461 -4.312,3.0204 -6.4159,2.8828 -9.9495,-0.6508 z m -94.7401,-26.7781 c -0.394,-1.0248 -0.5438,-24.98 -0.3274,-53.2334 l 0.3884,-51.3697 h 47.7085 47.708 v 52.8461 52.8461 l -47.3795,0.3883 c -37.2237,0.3052 -47.5327,0 -48.0947,-1.4763 z m 88.8685,-51.7454 v -46.2521 h -41.1023 -41.1029 v 45.4138 45.4132 l 4.7708,0.5327 c 2.6243,0.294 21.1202,0.6702 41.1029,0.8383 l 36.3315,0.3051 z m -199.6406,57.9726 v -182.0258 h -8.8077 -8.8077 v 182.0258 182.0247 h 8.8077 8.8077 z m 334.692,0 v -182.0258 h -8.8077 -8.8077 v 182.0258 182.0247 h 8.8077 8.8077 z m -288.1902,-210.0501 c 46.9639,-21.3309 60.4653,-27.3978 91.1921,-40.978 l 20.9925,-9.2776 8.3666,3.4187 c 4.6017,1.8797 20.587,8.9836 35.5237,15.7856 29.2765,13.3322 43.442,19.7226 67.5254,30.4616 8.4776,3.7805 21.0286,9.4152 27.8911,12.5227 l 12.4778,5.6497 26.8214,0.5792 c 30.3761,0.6563 27.3679,1.9568 28.6795,-12.3968 0.6114,-6.6894 0.5215,-6.8636 -3.9509,-7.6292 -6.2827,-1.0753 -18.5896,-2.2559 -31.7687,-3.0482 -13.1069,-0.7878 -10.7456,0 -41.0668,-13.664 -13.3217,-6.002 -29.8363,-13.442 -36.6988,-16.5335 -44.3019,-19.9555 -79.531,-36.0601 -85.6617,-39.1599 l -7.1272,-3.6035 -26.6355,12.0611 c -14.6499,6.6339 -51.0995,23.0908 -80.9996,36.5712 l -54.363,24.5095 -20.5021,0.8389 c -11.276,0.4604 -21.671,1.301 -23.0991,1.8663 -2.2021,0.8711 -2.4512,2.1755 -1.6384,8.5664 1.6883,13.2728 0.3884,12.6764 27.6686,12.6764 h 24.064 z m -60.9697,-12.9876 c 8.953,-0.1 4.6443,1.6261 75.3876,-30.1631 19.3769,-8.7067 40.8455,-18.3155 47.708,-21.3526 6.8631,-3.0365 16.7715,-7.571 22.0195,-10.076 l 9.5417,-4.5539 h -72.9104 c -40.1009,0 -73.7926,-0.3384 -74.8706,-0.7534 -1.3538,-0.5216 -7.2969,9.9317 -19.2033,33.7704 -9.484,18.988 -17.243,34.7103 -17.243,34.9389 0,0.2275 4.7891,-0.067 10.6424,-0.6513 5.8533,-0.5865 14.3708,-1.108 18.9281,-1.1579 z m 359.5715,-32.3851 -16.9063,-33.7633 h -72.9659 c -40.1314,0 -74.176,-0.4272 -75.6551,-0.9498 -1.8941,-0.6691 -2.2548,-0.4771 -1.2206,0.6536 1.2805,1.3992 17.2248,8.8199 66.7914,31.0862 20.4344,9.1794 69.4445,31.0824 73.3975,32.8012 3.3062,1.4381 18.7578,2.9827 36.7793,3.6773 l 6.686,0.2553 z m 36.1983,514.1834 c -6.3676,-13.8054 -8.4437,-23.2667 -8.4437,-38.4842 0,-8.3449 -0.5492,-11.7249 -1.9929,-12.2791 -2.794,-1.0719 -4.0634,-8.856 -2.2797,-13.9736 1.27,-3.6429 0.9287,-5.1304 -2.2531,-9.8185 -2.0623,-3.0393 -3.7495,-7.0012 -3.7495,-8.8044 0,-1.8031 -1.4003,-6.4436 -3.1119,-10.3129 -4.1678,-9.4224 -3.0654,-19.5156 3.0859,-28.2423 2.4362,-3.4565 4.4296,-7.3779 4.4296,-8.7139 0,-1.3365 1.3765,-5.2735 3.0593,-8.7489 2.551,-5.2702 4.6121,-7.0605 12.42,-10.7867 5.1487,-2.4573 9.7515,-5.0982 10.2275,-5.8688 0.4771,-0.7706 4.4896,-2.4545 8.9186,-3.7422 10.4073,-3.0249 18.0177,-1.7372 26.0752,4.4135 3.4332,2.6204 8.1292,5.238 10.4366,5.8172 6.3898,1.604 13.6169,9.6644 14.701,16.3976 0.5104,3.1719 1.5468,6.7582 2.3025,7.9694 8.0032,12.8289 9.3014,21.8291 4.5062,31.2344 -1.523,2.9876 -3.2313,7.8944 -3.7955,10.9037 -0.5648,3.0088 -2.3724,7.3608 -4.0169,9.6705 -2.212,3.1064 -2.561,4.6288 -1.3421,5.8477 2.3652,2.3652 2.0334,13.2029 -0.5049,16.5612 -1.3593,1.7971 -2.1815,6.3737 -2.227,12.3913 -0.1,13.4204 -3.5896,28.4708 -9.1844,39.6348 l -4.7825,9.5412 -23.6063,0.405 -23.6062,0.3994 z m 49.8268,-3.5974 c 4.2754,-8.421 7.7874,-23.9924 7.7869,-34.5272 v -8.5181 h -28.6251 -28.6246 v 10.2757 c 0,11.1163 2.1882,21.0292 6.9635,31.8253 3.4964,7.9039 3.6584,7.9522 25.314,7.5499 l 13.9452,-0.2607 z m 5.5854,-50.8565 c 4.692,-0.8278 5.9714,-1.7361 6.367,-4.5201 0.2719,-1.9164 -0.3884,-4.0441 -1.4675,-4.7287 -1.0802,-0.6846 -15.2929,-1.2544 -31.5845,-1.2666 -24.9916,0 -29.9816,0.3384 -31.9279,2.2841 -4.0668,4.0663 -2.6653,6.0675 5.6386,8.0526 5.845,1.3976 45.3139,1.5307 52.9743,0.1775 z m 5.0743,-21.7199 c 3.75,-3.1547 4.5095,-4.8008 4.2493,-9.2077 -0.2441,-4.1206 0.597,-6.2789 3.6207,-9.3026 5.7624,-5.7629 5.5615,-15.3301 -0.466,-22.1959 -3.1197,-3.5531 -4.4041,-6.5313 -4.4041,-10.2142 0,-6.6039 -5.7063,-13.6545 -12.1499,-15.0122 -2.6021,-0.5492 -6.3826,-2.536 -8.401,-4.4179 -7.9893,-7.449 -17.1149,-7.8867 -25.9581,-1.2462 -2.5705,1.9302 -6.2217,3.5092 -8.1142,3.5092 -7.0927,0 -15.0593,9.5545 -14.0962,16.9053 0.3107,2.3884 -1.1606,5.1553 -4.6793,8.7854 -4.5367,4.6805 -5.1365,6.1934 -5.1365,12.9605 0,5.7218 0.8362,8.7239 3.3034,11.8597 1.8492,2.3513 3.3028,6.2495 3.3028,8.8582 0,5.0516 2.0046,8.3489 6.6057,10.8655 1.8197,0.9953 13.3571,1.6228 30.3472,1.65 l 27.4112,0.056 z m -43.9685,-8.628 c -1.4681,-1.7687 -1.3538,-2.9089 0.5881,-5.8721 3.037,-4.6355 4.8973,-4.6488 6.9923,-0.055 2.7896,6.1213 -3.4015,10.9581 -7.5804,5.9226 z m 20.8815,-9.8002 c -2.5599,-2.5599 -2.2375,-8.4826 0.5216,-9.5406 1.3637,-0.5215 3.6296,0.4161 5.4843,2.2681 2.5022,2.5022 2.8257,3.6912 1.5552,5.709 -2.0329,3.2279 -5.233,3.8898 -7.5594,1.5635 z m -36.2649,-7.996 c -2.0722,-2.0722 -2.1088,-2.7635 -0.2885,-5.5021 3.0049,-4.5262 7.4839,-4.0779 8.0482,0.8056 0.6069,5.2558 -4.2555,8.1991 -7.7586,4.6965 z m 48.4797,-15.1581 c -2.1954,-2.4267 -2.3457,-3.3666 -0.8305,-5.1925 3.9858,-4.8025 12.5843,-0.3162 9.322,4.8663 -2.2509,3.5747 -5.4405,3.6973 -8.4915,0.3273 z m -29.1882,-5.4644 c -1.7621,-1.762 -1.0264,-7.43 1.2045,-9.2815 3.0615,-2.5404 6.6245,-0.7573 6.6245,3.3145 0,5.1814 -4.8885,8.907 -7.829,5.967 z m -733.9794,-73.4036 c -1.4442,-1.4442 -1.0913,-225.4479 0.3607,-227.7942 0.9958,-1.6112 21.6083,-1.9385 115.4608,-1.832 62.8366,0.072 114.7845,0.6652 115.4392,1.3199 0.6547,0.6547 1.0208,52.3479 0.8144,114.8739 l -0.3772,113.6826 -115.3477,0.3773 c -63.4408,0.2053 -115.7981,-0.078 -116.3496,-0.6258 z m 225.0911,-114.2491 v -107.8937 h -108.57 -108.5695 l -0.4272,98.7193 c -0.233,54.2958 -0.1997,102.8482 0.072,107.8942 l 0.4994,9.1739 h 108.4979 108.4973 z m -203.0444,92.2579 c -0.5493,-0.5493 -1.0003,-20.3867 -1.0003,-44.0817 v -43.0814 l 44.4057,0.3884 44.4051,0.3884 v 43.3044 43.3044 l -43.4054,0.3883 c -23.8731,0.2109 -43.8553,-0.061 -44.4051,-0.6114 z m 81.2049,-43.0814 v -36.6987 h -37.4328 -37.4328 v 36.6987 36.6988 h 37.4328 37.4328 z m 19.7558,42.2065 c -0.3939,-1.0314 -0.5437,-20.6935 -0.3273,-43.6934 l 0.3884,-41.8175 43.0647,-0.734 c 30.8349,-0.5271 43.4514,-0.2663 44.4279,0.9116 0.7912,0.9548 1.2001,19.4573 0.9742,44.0384 l -0.3883,42.3928 -43.7089,0.3884 c -34.404,0.3052 -43.8625,0 -44.429,-1.4869 z m 81.5323,-42.2065 v -36.6987 h -36.4819 -36.4818 l -0.9737,13.8531 c -0.5326,7.6193 -0.5326,24.1334 0,36.6988 l 0.9848,22.8456 h 36.4707 36.4708 z m -182.493,-56.7392 c -0.5493,-0.5493 -1.0003,-20.3867 -1.0003,-44.0811 v -43.0814 l 44.4057,0.3884 44.4051,0.3883 v 43.3044 43.3044 l -43.4054,0.3884 c -23.8731,0.2164 -43.8553,-0.061 -44.4051,-0.612 z m 80.8631,-43.2772 0.3939,-36.1612 -19.4756,-0.5581 c -10.7113,-0.3052 -27.5676,-0.3163 -37.4578,0 l -17.9826,0.5437 v 36.5695 36.569 l 37.066,-0.394 37.0655,-0.3939 z m 20.0976,42.4023 c -0.3939,-1.0314 -0.5437,-20.6935 -0.3273,-43.6934 l 0.3884,-41.8175 h 44.0384 44.0384 v 43.3044 43.3044 l -43.7089,0.3884 c -34.4035,0.3052 -43.8625,0 -44.429,-1.4863 z m 81.5323,-42.0062 v -36.4979 l -15.046,-0.9582 c -8.2757,-0.527 -24.464,-0.896 -35.9737,-0.8211 -18.8087,0.1221 -21.0746,0.4106 -22.3862,2.8628 -1.6339,3.0526 -1.9724,43.3777 -0.5104,60.6818 l 0.9493,11.2311 h 36.4835 36.4829 z m 547.0639,164.7079 c -0.5437,-0.5437 -0.9875,-52.0328 -0.9875,-114.4217 0,-87.0693 0.4105,-113.6893 1.7737,-114.5309 2.313,-1.4298 227.6161,-0.7196 229.0703,0.7218 0.6103,0.6047 0.9409,52.2574 0.734,114.7834 l -0.3773,113.6826 -114.6131,0.3773 c -63.0375,0.2053 -115.058,-0.067 -115.6012,-0.6114 z m 223.6087,-114.2641 v -107.8937 h -108.6283 -108.6283 v 107.8937 107.8937 h 108.6283 108.6283 z m -203.1454,90.9147 c -1.4309,-3.7289 -1.0409,-81.3009 0.4216,-84.0383 1.2068,-2.2576 5.0605,-2.4085 44.4052,-1.7383 l 43.0841,0.734 v 43.3044 43.3044 l -43.5063,0.3884 c -38.715,0.344 -43.6051,0.1332 -44.4052,-1.9552 z m 81.3059,-41.7382 v -36.6987 h -37.4328 -37.4328 v 36.6987 36.6988 h 37.4328 37.4328 z m 19.7558,42.2065 c -0.3939,-1.0314 -0.5437,-20.6935 -0.3273,-43.6934 l 0.3883,-41.8175 42.5704,-0.734 c 23.6762,-0.4105 43.3948,-0.1553 44.4274,0.5648 1.4403,1.0076 1.7698,10.8849 1.468,44.0384 l -0.3884,42.7396 -43.7088,0.3884 c -34.4041,0.3052 -43.8626,0 -44.429,-1.4869 z m 81.5322,-42.2065 v -36.6987 h -37.4328 -37.4322 v 33.3959 c 0,18.3677 0.4161,34.8818 0.9049,36.6988 l 0.8849,3.3028 h 36.5279 36.5274 z m -182.5939,-58.0824 c -1.3443,-3.5037 -1.042,-81.8113 0.3273,-83.964 0.9166,-1.4442 10.7967,-1.771 44.383,-1.468 l 43.204,0.3883 v 43.3044 43.3044 l -43.5064,0.3884 c -38.715,0.344 -43.6051,0.1331 -44.4051,-1.9546 z m 81.3059,-41.6322 v -36.5934 l -7.707,-0.947 c -4.2388,-0.5216 -20.4721,-0.693 -36.0735,-0.3828 -22.6303,0.4494 -28.6373,0.9914 -29.7036,2.6764 -0.7352,1.1618 -1.3466,17.8012 -1.3588,36.9762 v 34.864 h 37.4323 37.4327 z m 19.7558,42.1005 c -0.3939,-1.0314 -0.5437,-20.6935 -0.3273,-43.6934 l 0.3883,-41.8175 h 44.0384 44.0385 v 43.3044 43.3044 l -43.7089,0.3884 c -34.4041,0.3052 -43.8625,0 -44.429,-1.4863 z m 81.5322,-42.1005 v -36.5934 l -8.1524,-1.0186 c -4.484,-0.5604 -21.1634,-0.6713 -37.0661,-0.2441 l -28.9125,0.7717 -0.3939,36.8403 -0.3939,36.8397 h 37.4578 37.4577 z m -920.2495,-245.6198 c -0.683,-1.817 -1.1618,-45.1087 -1.0647,-96.2043 0.1554,-80.851 0.4605,-93.0818 2.3796,-94.293 3.5963,-2.2736 209.4531,-1.8853 210.9306,0.3995 1.2672,1.9579 2.3457,184.5297 1.1229,190.0989 l -0.7251,3.3028 h -105.7005 -105.7006 z m 205.3591,-95.0703 v -89.5243 h -99.086 -99.0866 l -5e-4,89.9116 v 89.9121 l 99.0865,-0.3883 99.0866,-0.3884 z m -185.2526,41.5129 c -0.2441,-19.1877 -0.2386,-35.3822 0,-35.9875 0.6219,-1.5091 79.1898,-1.402 80.1241,0.111 0.4106,0.6652 0.8505,16.6844 0.9759,35.5974 l 0.2275,34.388 -40.4482,0.3884 -40.4482,0.3884 z m 72.7978,23.7111 c 1.1734,-3.0581 1.1518,-42.9809 -0.056,-48.8725 l -0.9177,-4.5872 h -28.8082 c -15.8449,0 -30.3522,0.4328 -32.2386,0.9382 l -3.4299,0.9182 0.3662,25.8516 c 0.1998,14.2188 0.6275,26.3471 0.9476,26.9529 0.3218,0.6053 14.6749,1.1008 31.8997,1.1008 27.2025,0 31.4341,-0.3052 32.2081,-2.3219 z m 18.5064,-24.8351 v -35.9648 h 40.3683 40.3689 l 0.061,15.0466 c 0.055,8.2756 0.3384,23.3039 0.673,33.3959 0.3329,10.0921 0.2608,19.5051 -0.1609,20.9182 -0.7107,2.3652 -3.9625,2.5688 -41.0419,2.5688 h -40.2695 z m 73.3975,0 v -27.1571 l -9.1749,-0.089 c -5.0461,-0.056 -13.7988,-0.3828 -19.4502,-0.7384 -5.6519,-0.3551 -16.3859,-0.2386 -23.8542,0.2663 l -13.5786,0.9132 v 26.9823 26.9829 h 33.0287 33.0292 z m -164.0692,-81.8141 0.3939,-35.6213 h 39.6343 39.6348 v 35.2307 35.2307 l -40.0276,0.3884 -40.0282,0.3884 z m 72.3223,0.344 v -27.1571 h -32.2947 -32.2952 l -0.405,25.6374 c -0.2219,14.1006 -0.072,26.4991 0.3329,27.5527 0.5798,1.5107 7.4822,1.832 32.698,1.5196 l 31.9629,-0.3939 z m 19.3281,34.252 c -0.5382,-0.5382 -0.9787,-16.3798 -0.9787,-35.203 v -34.2237 l 3.3028,-0.8084 c 1.8165,-0.4439 19.8174,-0.6219 40.0016,-0.3939 l 36.6987,0.4161 0.7341,19.8174 c 0.405,10.8994 0.5104,26.9185 0.2385,35.5975 l -0.4993,15.7806 h -39.2603 c -21.5929,0 -39.7004,-0.4383 -40.2385,-0.9787 z m 71.6848,-34.252 v -27.1571 l -32.6619,-0.3939 -32.662,-0.3939 v 27.9471 27.9471 l 32.662,-0.3939 32.6619,-0.3939 z m 516.9714,138.4856 c -0.5437,-0.5437 -0.9882,-43.7344 -0.9882,-95.9802 0,-78.3193 0.3496,-95.2833 1.9974,-96.6498 1.4519,-1.2051 30.5986,-1.5546 106.7929,-1.2805 l 104.7962,0.3773 v 96.8845 96.8845 l -105.8048,0.3773 c -58.1929,0.2053 -106.2498,-0.067 -106.7935,-0.612 z m 205.9927,-97.3833 v -89.5449 h -99.8206 -99.8206 v 89.5449 89.5449 h 99.8206 99.8206 z m -185.4507,75.3544 c -0.5382,-0.5382 -0.9787,-16.7327 -0.9787,-35.9875 v -35.0094 l 40.7356,0.3884 40.7356,0.3884 0.3939,35.5974 0.3939,35.598 h -40.1502 c -22.0828,0 -40.5903,-0.4383 -41.1284,-0.9786 z m 73.5518,-35.3528 -0.3995,-27.5238 -19.0834,-0.516 c -10.4954,-0.2829 -25.1936,-0.055 -32.6614,0.5049 l -13.5785,1.017 v 27.02 27.02 h 33.0608 33.0614 z m 17.6697,35.2307 c -0.2497,-0.6053 -0.2552,-16.7898 0,-35.9647 l 0.4439,-34.8635 h 40.2928 40.2935 v 35.9642 35.9648 h -40.2818 c -22.1554,0 -40.4865,-0.4938 -40.7356,-1.1008 z m 72.2097,-35.5974 v -27.8911 h -32.2946 -32.2953 v 27.8911 27.8905 h 32.2953 32.2946 z m -163.7414,-47.3496 c -0.3994,-1.0397 -0.5492,-17.0694 -0.3273,-35.6213 l 0.3939,-33.7311 h 40.3683 40.3689 v 35.2307 35.2308 l -40.0387,0.3883 c -31.5868,0.3052 -40.1919,0 -40.7639,-1.4996 z m 73.4625,-33.3876 v -27.1571 l -32.6614,-0.3939 -32.6619,-0.3939 v 27.9471 27.9471 l 32.6619,-0.3939 32.6614,-0.3939 z m 17.9211,1.1601 c -0.6142,-23.5575 -0.3995,-34.6621 0.7029,-35.9881 1.2528,-1.5096 9.9173,-1.8348 40.6602,-1.5274 l 39.0684,0.3884 0.3939,35.5975 0.3939,35.598 h -40.1641 -40.1642 z m 72.3578,-1.1601 v -27.8911 h -32.2946 -32.2953 v 27.8911 27.8911 h 32.2953 32.2946 z m -1045.651,-365.0132 c -0.5493,-0.5493 -0.9953,-1.8758 -0.9953,-2.9522 0,-1.4264 2.5383,-1.9574 9.358,-1.9574 15.4422,0 18.3927,-1.058 20.9798,-7.5232 2.5621,-6.4037 10.4599,-13.9952 16.0092,-15.3878 2.0472,-0.516 6.0292,-0.5604 8.8482,-0.1054 4.4707,0.7251 5.3012,0.3661 6.5052,-2.7974 2.6875,-7.07 14.4751,-17.9394 22.2575,-20.5243 7.0755,-2.3496 17.8589,-2.333 25.4044,0.055 2.2781,0.7168 3.3605,-0.055 4.8341,-3.4127 3.1136,-7.1116 12.6792,-16.8907 21.0669,-21.5362 7.1676,-3.9703 9.0928,-4.3548 21.8069,-4.3548 12.5611,0 14.6255,0.3995 20.7951,4.0269 12.3501,7.2597 21.1767,18.9131 23.913,31.5712 1.0009,4.6282 1.2578,4.7714 8.6218,4.803 12.7197,0.055 24.8835,7.728 28.8388,18.1952 1.245,3.2939 1.1873,4.5483 -0.2497,5.436 -1.2267,0.7579 -4.1406,-1.2783 -8.4975,-5.9382 -8.9975,-9.6232 -14.4763,-12.1959 -24.6987,-11.6 l -8.234,0.4827 -2.4174,-9.1561 c -5.2663,-19.9506 -19.3397,-31.6439 -38.0841,-31.6439 -16.7005,0 -29.7963,8.6706 -37.4134,24.7708 -4.0363,8.5331 -5.9692,9.4069 -12.025,5.4394 -5.384,-3.528 -17.2931,-3.2218 -24.681,0.6342 -7.6464,3.9908 -11.6206,8.3788 -15.4715,17.0844 -2.6759,6.0497 -3.603,6.9551 -6.3105,6.1629 -8.381,-2.4518 -12.1194,-2.3358 -16.6805,0.5159 -5.1581,3.2285 -9.9484,11.0225 -8.3566,13.598 0.7151,1.1579 13.0037,1.4653 42.263,1.0575 40.4676,-0.5637 41.2549,-0.516 41.2549,2.3613 0,2.8806 -1.1069,2.9433 -58.8242,3.3194 -32.3529,0.2108 -59.2714,-0.067 -59.8185,-0.6119 z m 888.8559,-7.4562 c 0.5271,-2.7457 7.5599,-4.5594 18.2579,-4.7087 5.5248,-0.078 6.1318,-0.4716 6.934,-4.4795 1.1896,-5.9471 11.7266,-17.0756 18.1874,-19.2077 3.1286,-1.0325 8.922,-1.391 14.327,-0.8861 l 9.074,0.8472 2.4201,-5.0754 c 4.1006,-8.5991 13.6052,-17.5826 23.376,-22.0955 7.5283,-3.477 11.1424,-4.2355 20.1803,-4.2355 6.0552,0 13.4603,0.5216 16.4563,1.1563 5.3207,1.1301 5.5199,1.0125 8.6241,-5.0721 5.4311,-10.6458 17.8195,-22.2725 29.6293,-27.8079 9.9523,-4.6649 11.5746,-4.975 26.0275,-4.975 14.297,0 16.1318,0.3384 25.3345,4.6998 13.1746,6.2406 24.5905,17.1771 29.6138,28.3693 3.431,7.6459 4.4529,8.7672 7.9893,8.7672 12.9588,0 30.3905,10.8988 34.176,21.367 1.0142,2.8046 2.5339,4.7986 3.3766,4.4314 7.788,-3.3944 18.2618,-5.4655 23.7994,-4.7065 16.0047,2.1937 29.8446,15.8765 29.8446,29.5056 v 5.2086 l -85.5075,-0.3773 c -74.8601,-0.3329 -85.5081,-0.653 -85.5081,-2.581 0,-1.9269 10.3218,-2.2492 82.572,-2.581 45.4144,-0.2108 82.572,-0.7368 82.572,-1.174 0,-2.3086 -4.7781,-9.3226 -9.3309,-13.6984 -9.2787,-8.9175 -24.6477,-10.2607 -34.7874,-3.0409 -5.7052,4.0623 -7.8751,3.6057 -9.9351,-2.0911 -4.8047,-13.2862 -20.4588,-24.1422 -32.4861,-22.5294 -6.6145,0.8872 -7.3058,0.2941 -10.8427,-9.292 -3.441,-9.3259 -15.1509,-21.9374 -25.4843,-27.4445 -28.133,-14.995 -62.2347,-3.2534 -76.2477,26.2527 -3.4465,7.257 -4.7148,8.6929 -7.1304,8.0715 -1.6157,-0.4161 -6.5713,-1.8109 -11.0114,-3.1003 -19.458,-5.6508 -40.3501,4.8696 -51.0996,25.7317 -2.2709,4.408 -4.7492,7.8668 -5.5065,7.6859 -0.7579,-0.1831 -4.2322,-1.3493 -7.7208,-2.5971 -7.348,-2.6293 -14.9301,-1.2838 -21.3859,3.7938 -3.8238,3.0077 -8.2362,9.975 -8.2362,13.0043 0,0.9904 6.2949,1.5407 17.6153,1.5407 16.6373,0 17.6154,0.1609 17.6154,2.9361 0,2.849 -0.9781,2.9361 -33.1363,2.9361 -30.6574,0 -33.0997,-0.1886 -32.6459,-2.5466 z"
       id="path7" /></g></svg>
