<?xml version="1.0" encoding="UTF-8" standalone="no"?>
<!-- Created with Inkscape (http://www.inkscape.org/) -->

<svg
   width="1249.5129mm"
   height="1214.759mm"
   viewBox="0 0 1249.513 1214.759"
   version="1.1"
   id="svg1"
   xml:space="preserve"
   inkscape:version="1.4 (e7c3feb100, 2024-10-09)"
   sodipodi:docname="grundlagen.svg"
   xmlns:inkscape="http://www.inkscape.org/namespaces/inkscape"
   xmlns:sodipodi="http://sodipodi.sourceforge.net/DTD/sodipodi-0.dtd"
   xmlns="http://www.w3.org/2000/svg"
   xmlns:svg="http://www.w3.org/2000/svg"><sodipodi:namedview
     id="namedview1"
     pagecolor="#ffffff"
     bordercolor="#000000"
     borderopacity="0.25"
     inkscape:showpageshadow="2"
     inkscape:pageopacity="0.0"
     inkscape:pagecheckerboard="0"
     inkscape:deskcolor="#d1d1d1"
     inkscape:document-units="mm"
     inkscape:zoom="0.04220416"
     inkscape:cx="2926.2518"
     inkscape:cy="-3862.1785"
     inkscape:window-width="1920"
     inkscape:window-height="939"
     inkscape:window-x="1920"
     inkscape:window-y="32"
     inkscape:window-maximized="1"
     inkscape:current-layer="layer1"
     showgrid="false"><inkscape:page
       x="8.7061764e-12"
       y="0"
       width="1249.5131"
       height="1214.759"
       id="page2"
       margin="0"
       bleed="0" /></sodipodi:namedview><defs
     id="defs1" /><g
     inkscape:label="Layer 1"
     inkscape:groupmode="layer"
     id="layer1"
     transform="translate(-3843.8483,4214.8205)"><path
       style="fill:#000000;stroke-width:1.10831"
       d="m 3880.0324,-3001.8801 c -1.2834,-1.2834 -1.6588,-103.5786 -1.6588,-452.0046 v -450.3459 h -15.6197 c -10.3056,0 -16.1841,-0.5643 -17.2784,-1.6588 -1.1178,-1.1176 -1.6482,-7.317 -1.6261,-19.0062 l 0.033,-17.3476 18.9737,-24.3137 c 10.4355,-13.3725 21.8324,-27.9901 25.3265,-32.4835 36.1386,-46.4744 52.9899,-67.7735 54.2927,-68.6232 2.0414,-1.3317 1050.2173,-1.326 1052.3102,0.011 0.8828,0.5617 23.416,29.0099 50.0738,63.218 l 48.4688,62.1968 0.033,17.3476 c 0.023,11.6905 -0.5072,17.8884 -1.625,19.0063 -1.1026,1.1027 -7.1264,1.6588 -17.9695,1.6588 h -16.3109 v 450.3458 c 0,348.426 -0.3754,450.7213 -1.6588,452.0046 -2.4179,2.4179 -1173.3469,2.4179 -1175.7648,0 z m 1169.144,-130.6944 c 0.011,-68.2326 0.4098,-269.7686 0.8934,-447.8577 l 0.8792,-323.7984 h -12.638 -12.6381 l -0.3502,198.7024 -0.3502,198.7023 -311.5582,0.3486 c -229.1494,0.2563 -312.0537,-0.063 -313.4314,-1.206 -1.56,-1.2947 -1.8731,-34.5709 -1.8731,-199.0509 v -197.4964 h -11.7794 -11.7794 l 0.2602,197.4253 c 0.1431,108.5839 -0.1912,198.1554 -0.7427,199.0479 -1.4713,2.3806 -459.8627,2.3448 -462.2437,-0.037 -1.2747,-1.2746 -1.6588,-47.366 -1.6588,-199.0479 v -197.3891 h -11.7493 -11.7494 v 447.8577 447.8578 h 581.2475 581.2475 z m -1137.3516,97.5197 c -2.412,-2.4119 -2.412,-444.8929 0,-447.3049 2.0764,-2.0764 539.6421,-2.4023 542.9205,-0.329 1.7815,1.1266 1.9836,29.0985 1.6202,224.2137 -0.2283,122.6095 -0.7145,223.4108 -1.0804,224.0027 -0.3658,0.592 -122.4208,1.0762 -271.2334,1.0762 -208.5989,0 -270.9482,-0.3798 -272.2269,-1.6587 z m 537.4292,-223.6524 v -217.0175 h -265.3971 -265.3972 v 217.0175 217.0175 h 265.3972 265.3971 z m -490.3699,175.3346 c -0.9464,-0.9464 -1.7207,-5.0173 -1.7207,-9.0467 v -7.3261 h -5.62 c -7.0562,0 -10.3731,-1.7528 -13.0264,-6.8837 -1.7111,-3.3089 -2.0877,-10.779 -2.0877,-41.4055 v -37.3683 l 3.8458,-4.3043 c 3.1669,-3.5444 5.0586,-4.3799 10.7127,-4.7321 l 6.8668,-0.4277 0.6911,-14.9872 c 0.7921,-17.1766 2.954,-22.3602 10.9975,-26.3687 4.4241,-2.2047 9.9876,-2.4413 57.4252,-2.4413 51.6651,0 52.6064,0.05 57.4004,3.0315 l 4.8739,3.0314 4.7879,-3.0314 c 4.7156,-2.9857 5.5953,-3.0315 58.264,-3.0315 52.0942,0 53.5768,0.074 57.3786,2.8916 8.4234,6.2413 10.1229,10.6636 10.1229,26.3406 v 14.3095 h 4.1911 c 7.2816,0 13.6821,3.5786 15.9016,8.8907 2.9181,6.9839 2.9528,72.3865 0.041,78.0165 -2.9394,5.6843 -5.9104,7.6043 -13.0341,8.4238 l -6.4089,0.7372 -0.6912,8.2937 -0.6911,8.2937 -5.9769,0.43 c -7.5393,0.5426 -9.2669,-0.934 -11.9693,-10.23 l -2.1789,-7.495 -110.0247,0.3539 -110.0248,0.3537 -2.9353,8.2937 -2.9355,8.2937 -6.2273,0.4075 c -3.6479,0.2387 -6.9403,-0.3053 -7.9482,-1.3132 z m 11.5519,-10.1341 c 1.7214,-5.4999 1.35,-6.2387 -3.1359,-6.2387 -2.8413,0 -3.2253,0.6582 -3.2253,5.5291 0,7.3498 4.1384,7.8114 6.3612,0.7096 z m 243.5688,-0.364 c -0.3739,-4.5186 -0.9231,-5.2403 -4.2808,-5.6258 -3.5714,-0.41 -3.7895,-0.1585 -2.9947,3.4557 1.4945,6.7958 1.8596,7.3537 4.8132,7.3537 2.4959,0 2.8326,-0.709 2.4623,-5.1836 z m 18.4685,-13.6914 c 2.329,-2.1078 2.5279,-5.1984 2.5279,-39.2961 0,-31.8012 -0.3057,-37.3142 -2.1722,-39.1807 -2.6224,-2.6224 -15.8065,-2.9926 -18.2855,-0.5135 -1.1662,1.1662 -1.6644,9.0686 -1.6777,26.6089 -0.011,13.7225 -0.3948,26.353 -0.8543,28.0677 l -0.8354,3.1176 -122.5139,-0.3531 -122.5139,-0.353 -0.6912,-28.0441 c -0.7822,-31.7395 -0.3544,-30.6472 -12.0166,-30.6815 -11.4995,-0.034 -11.4822,-0.095 -11.4822,40.8771 0,33.0667 0.1391,34.9309 2.865,38.3963 l 2.8649,3.6421 h 141.1286 c 129.382,0 141.3391,-0.1904 143.6565,-2.2877 z m -154.1437,-28.1225 h 7.3856 v -8.2449 c 0,-7.0145 -0.4422,-8.4818 -2.9631,-9.8308 -1.6296,-0.8723 -14.0821,-2.2608 -27.6722,-3.0856 -27.9513,-1.6966 -77.1392,0.288 -80.7161,3.2566 -1.3235,1.0983 -1.9954,4.3831 -1.9954,9.7553 v 8.0994 l 32.8291,0.4932 c 18.056,0.2712 40.2356,0.2824 49.2879,0.025 9.0523,-0.2575 19.7823,-0.4682 23.8442,-0.4682 z m 127.3619,-8.1139 c 0.3679,-7.4637 0.088,-8.4804 -2.7634,-10.0058 -5.5951,-2.9945 -52.4128,-4.7068 -80.9276,-2.96 -15.3053,0.9376 -26.2152,2.2094 -27.402,3.1944 -1.2956,1.0752 -1.9719,4.4039 -1.9719,9.705 v 8.0686 l 11.4037,0.4077 c 6.2721,0.2242 31.6197,0.2931 56.3279,0.1527 l 44.9239,-0.2549 z m -176.6496,-18.8405 c 33.6249,0 49.0133,0.4884 52.1809,1.6559 l 4.4924,1.6561 v -33.1656 -33.1657 l -3.3929,-3.3928 -3.3928,-3.3929 h -52.5675 -52.5676 l -4.5143,4.0306 -4.5141,4.0305 -0.4737,15.5403 c -0.41,13.4509 -0.1603,15.7156 1.8573,16.8448 3.9816,2.2282 6.2188,10.0133 6.2188,21.64 v 11.0308 l 4.4924,-1.6561 c 3.1677,-1.1675 18.5561,-1.6559 52.1811,-1.6559 z m 120.258,0.022 c 30.6894,0 48.0124,0.5299 51.3649,1.571 l 5.0585,1.5709 0.4706,-13.5686 c 0.4241,-12.2269 0.812,-13.9317 3.9235,-17.2411 3.084,-3.2798 3.4614,-4.8801 3.5303,-14.9677 0.1009,-14.7028 -1.3691,-20.8511 -5.8207,-24.3528 -3.4954,-2.7495 -5.2479,-2.8387 -55.7625,-2.8387 -50.6694,0 -52.2574,0.082 -55.7958,2.865 l -3.6421,2.8649 v 33.654 33.6541 l 5.1836,-1.6055 c 3.4998,-1.084 20.2245,-1.6055 51.4897,-1.6055 z m 258.8848,79.1134 c -0.7271,-0.9503 -3.1358,-6.2355 -5.3528,-11.7448 l -4.0309,-10.017 h -74.8193 c -61.5889,0 -75.0967,-0.3387 -76.3878,-1.8946 -1.1879,-1.4312 -1.0966,-2.2817 0.3764,-3.5041 1.0696,-0.8877 2.4769,-1.5187 3.127,-1.402 0.6503,0.1167 17.5104,0.1385 37.4671,0.049 l 36.2847,-0.1637 v -27.6456 -27.6456 h -37.7362 c -38.5188,0 -43.1876,-0.601 -39.4692,-5.0815 1.126,-1.3567 6.4563,-1.8298 20.6137,-1.8298 h 19.0951 l 0.4332,-4.4924 c 0.432,-4.4811 0.4557,-4.4942 9.4179,-5.1836 l 8.9847,-0.6911 v -4.838 -4.838 l -30.3504,-0.3733 c -28.9056,-0.3555 -30.5015,-0.5151 -33.5202,-3.351 l -3.1698,-2.9778 0.021,-51.94 c 0.012,-28.567 0.4782,-52.6245 1.0367,-53.4609 2.9932,-4.4827 7.0557,-4.6993 88.099,-4.6993 81.0433,0 85.1059,0.2166 88.099,4.6993 0.5586,0.8364 1.0251,25.0023 1.0367,53.7018 0.02,50.3528 -0.075,52.2778 -2.7434,54.9455 -2.597,2.5971 -4.6076,2.7646 -33.1746,2.7646 h -30.4101 v 5.4632 5.4632 l 8.6392,0.4115 c 8.4149,0.4008 8.6734,0.5274 9.9543,4.8772 l 1.315,4.4657 29.0951,0.3723 29.0951,0.3723 v 33.8657 33.8658 l -4.6455,0.4446 c -4.4277,0.4237 -4.6033,0.6503 -3.7469,4.838 2.3969,11.7194 2.5704,16.4246 0.6508,17.6401 -2.8852,1.8268 -11.7705,1.5186 -13.2848,-0.4607 z m 7.1753,-12.4405 c -1.2303,-9.1208 -1.3694,-9.3303 -6.1958,-9.3303 h -3.9876 l 2.5005,5.8746 c 1.3753,3.2312 2.8759,6.9633 3.3347,8.2937 0.4587,1.3304 1.845,2.419 3.0805,2.419 1.9128,0 2.1011,-1.0779 1.2677,-7.257 z m 4.5207,-16.0561 4.4924,-0.1856 v -27.6455 -27.6457 h -46.3063 -46.3063 v 27.6186 27.6186 l 30.0646,0.3726 c 28.1162,0.3484 47.4863,0.304 58.0556,-0.133 z m -80.2993,-17.7065 c -0.5003,-0.5002 -0.9096,-5.2056 -0.9096,-10.4565 0,-8.3462 0.3043,-9.4888 2.419,-9.086 1.9318,0.368 2.5008,2.1541 2.8249,8.8668 0.2842,5.8859 -0.1684,8.8827 -1.5094,9.9957 -1.0535,0.8743 -2.3247,1.1803 -2.8249,0.68 z m 24.6627,-46.755 c 0,-0.8762 -13.0321,-1.5174 -35.5937,-1.7512 -31.2259,-0.3236 -35.5936,-0.1086 -35.5936,1.7512 0,1.8599 4.3677,2.0748 35.5936,1.7511 22.5616,-0.2338 35.5937,-0.875 35.5937,-1.7511 z m -20.0431,-13.1317 v -5.5291 h -15.8962 -15.8962 v 5.5291 5.5292 h 15.8962 15.8962 z m 66.1977,-12.9489 c 1.1218,-1.3517 1.4656,-16.0331 1.206,-51.4899 l -0.3633,-49.5989 h -82.9366 -82.9366 l -0.3632,49.5989 c -0.2597,35.4568 0.084,50.1382 1.2059,51.4899 1.2946,1.5599 15.6602,1.8907 82.0939,1.8907 66.4338,0 80.7994,-0.3308 82.0939,-1.8907 z m -160.0424,-4.1486 c -1.1193,-1.3487 -1.4658,-14.9538 -1.2059,-47.343 l 0.3646,-45.4505 h 78.7898 78.7898 l 0.3864,44.2329 c 0.2125,24.3281 0.046,45.6325 -0.3719,47.343 l -0.7583,3.1102 h -77.212 c -63.6663,0 -77.4874,-0.3321 -78.7825,-1.8926 z m 150.5181,-46.4872 v -41.4683 h -72.5696 -72.5695 v 41.4683 41.4684 h 72.5695 72.5696 z m -86.7565,122.7969 c -2.6529,-2.653 -2.2493,-17.6233 0.5037,-18.6798 3.0879,-1.185 4.6524,1.9295 4.6772,9.311 0.026,7.4279 -2.5198,12.0297 -5.1809,9.3688 z m 166.4712,96.0671 c -0.5087,-0.5087 -0.925,-101.5228 -0.925,-224.4756 0,-202.5737 0.2052,-223.6294 2.1865,-224.3897 1.2026,-0.4614 123.3542,-0.839 271.4482,-0.839 224.961,0 269.5177,0.3085 270.8175,1.8746 1.1418,1.3758 1.4626,61.2283 1.206,224.9656 l -0.3498,223.091 -271.7292,0.349 c -149.4511,0.1919 -272.1455,-0.068 -272.6542,-0.5759 z m 538.1631,-224.3931 v -217.0175 h -266.1178 -266.1179 l 0.097,217.0175 0.098,217.0175 h 266.0201 266.0201 z m -495.3159,176.0099 c -0.5069,-0.5068 -0.9215,-2.9657 -0.9215,-5.4642 0,-3.8437 -0.7539,-4.9004 -4.8989,-6.8674 -9.4798,-4.4985 -8.924,5.1649 -8.924,-155.1296 0,-142.0949 0.054,-145.091 2.7178,-148.4763 5.1712,-6.5741 6.637,-6.7057 70.0988,-6.2915 57.3483,0.3742 59.7111,0.4931 62.6936,3.1535 7.0803,6.3158 6.8645,1.5044 6.8623,153.0427 0,131.8331 -0.1655,141.709 -2.419,146.2202 -1.3698,2.742 -4.3502,5.7362 -6.8794,6.9114 -3.126,1.4524 -4.4714,3.0321 -4.4924,5.2744 -0.061,6.4698 -2.3912,8.5484 -9.5852,8.5484 -7.4108,0 -9.326,-1.4531 -10.0198,-7.6026 l -0.4679,-4.1468 -37.667,-0.3677 -37.6671,-0.3679 -0.019,3.1324 c -0.05,8.2773 -1.1522,9.3526 -9.5878,9.3526 -4.3462,0 -8.3168,-0.4147 -8.8236,-0.9216 z m 11.519,-8.0632 c 0,-1.2901 -1.3056,-2.0735 -3.4557,-2.0735 -2.1502,0 -3.4557,0.7834 -3.4557,2.0735 0,1.2901 1.3055,2.0734 3.4557,2.0734 2.1501,0 3.4557,-0.7833 3.4557,-2.0734 z m 95.3771,0.1612 c 0,-1.9603 -4.7544,-3.9308 -6.1403,-2.5451 -1.9645,1.9647 -0.4633,4.4573 2.6846,4.4573 2.0207,0 3.4557,-0.794 3.4557,-1.9122 z m 10.1806,-12.0109 3.6421,-2.8649 v -92.5122 -92.5123 h -64.967 -64.967 v 91.9843 91.9842 l 3.3928,3.3929 3.3929,3.3928 h 57.932 c 56.5153,0 58.0212,-0.07 61.5742,-2.8648 z m -108.7353,-114.1202 c -0.5331,-0.5331 -0.9693,-14.7849 -0.9693,-31.6709 0,-24.2799 0.3954,-31.0296 1.89,-32.2701 4.3691,-3.6261 5.0854,1.4269 4.7027,33.1784 -0.3207,26.6144 -0.6699,30.9662 -2.5133,31.3205 -1.1775,0.2262 -2.5769,-0.024 -3.1101,-0.5579 z m 112.3774,-128.9599 v -48.2794 l -3.6962,-2.9074 c -3.6434,-2.866 -4.5342,-2.9019 -62.3255,-2.5194 l -58.6294,0.3881 -2.6414,3.2633 c -2.486,3.0712 -2.6415,6.0616 -2.6415,50.7987 v 47.5354 h 64.967 64.967 z m -111.7855,38.1279 c -1.15,-1.3856 -1.5101,-10.3001 -1.2442,-30.8018 0.3606,-27.8056 0.4744,-28.8518 3.1387,-28.8518 2.6805,0 2.7645,0.9216 2.7645,30.2949 0,30.222 -0.6328,34.21 -4.659,29.3587 z m 133.2019,222.6869 c -0.417,-1.7163 -0.5854,-31.7336 -0.3745,-66.7052 l 0.3835,-63.5848 h 87.7745 87.7746 v 66.3493 66.3493 l -87.4001,0.3559 -87.4002,0.3559 z m 170.458,-8.9952 -0.4291,-5.1835 -81.8998,-0.3565 -81.9,-0.3565 v 5.54 5.5401 h 82.329 82.3289 z m -85.439,-63.2391 v -51.8354 h -39.395 -39.3949 v 51.8354 51.8354 h 39.3949 39.395 z m -12.4406,-34.557 c 0,-10.6388 0.2658,-11.9009 2.419,-11.4861 2.0626,0.3972 2.419,2.0896 2.419,11.4861 0,9.3966 -0.3564,11.0891 -2.419,11.4863 -2.1532,0.4146 -2.419,-0.8474 -2.419,-11.4863 z m 97.813,34.2114 0.3624,-51.4898 h -35.0922 c -19.3006,0 -37.0358,-0.3888 -39.4116,-0.8639 l -4.3196,-0.8639 v 52.7207 52.7209 l 39.0493,-0.3671 39.0492,-0.367 z m -71.5496,-34.2114 c 0,-10.6388 0.2657,-11.9009 2.419,-11.4861 2.0625,0.3972 2.4188,2.0896 2.4188,11.4861 0,9.3966 -0.3563,11.0891 -2.4188,11.4863 -2.1533,0.4146 -2.419,-0.8474 -2.419,-11.4863 z m 90.1244,108.2324 c -1.2457,-1.2457 -1.6587,-18.799 -1.6587,-70.4962 v -68.8374 h -98.1153 -98.1154 l -0.8193,-3.2644 c -0.4506,-1.7955 -0.618,-5.3721 -0.3719,-7.9481 l 0.4474,-4.6836 104.745,-0.3544 104.745,-0.3542 1.3199,-3.4717 c 2.1828,-5.7413 12.1351,-8.1163 17.3471,-4.1397 2.3225,1.7719 2.4045,2.2337 0.6098,3.4345 -1.1403,0.7631 -4.4427,1.397 -7.3385,1.4086 -3.1536,0.012 -4.9225,0.5754 -4.4109,1.4034 0.4956,0.8017 8.0777,1.3823 18.0513,1.3823 10.5431,0 17.1968,-0.5348 17.1968,-1.3823 0,-0.7603 -1.8152,-1.3822 -4.0338,-1.3822 -7.9851,0 -11.7601,-4.2785 -5.5219,-6.2584 5.409,-1.7168 12.3802,0.6072 14.8516,4.951 2.0704,3.639 3.0192,4.0553 9.2606,4.0632 6.4256,0.011 7.0701,-0.2994 8.4846,-4.0465 1.1861,-3.1426 2.678,-4.2704 6.629,-5.0116 5.6907,-1.0677 12.3429,1.1993 11.4538,3.9031 -0.3088,0.9394 -3.1568,1.8993 -6.3288,2.1331 -3.172,0.2337 -5.7673,1.0113 -5.7673,1.7278 0,0.746 7.3838,1.3028 17.2785,1.3028 10.5975,0 17.2784,-0.5345 17.2784,-1.3823 0,-0.7603 -2.1009,-1.3822 -4.6686,-1.3822 -5.5675,0 -8.8105,-2.9464 -5.901,-5.361 2.2038,-1.8291 11.3716,-0.9883 14.1229,1.295 1.0278,0.8531 2.2378,2.7134 2.6886,4.134 0.6912,2.1775 2.4893,2.6461 11.4574,2.9852 l 10.6375,0.4025 0.4145,7.948 c 0.402,7.7064 0.3074,7.9481 -3.1101,7.9481 h -3.5246 v 67.0404 c 0,36.8723 0.1052,67.196 0.2335,67.386 0.1284,0.1901 -0.5154,1.7452 -1.431,3.4558 l -1.6644,3.1101 h -67.4065 c -50.5842,0 -67.8204,-0.414 -69.0652,-1.6587 z m 132.4221,-14.9287 v -9.6759 h -63.5847 -63.5847 v 9.6759 9.676 h 63.5847 63.5847 z m 0,-58.0556 v -41.4683 h -63.9303 -63.9303 l -0.4257,41.4631 -0.4256,41.4632 h 64.3559 64.356 z m -110.4819,24.0034 c -2.5594,-3.2538 -2.8648,-5.5286 -2.8648,-21.3353 0,-17.2324 1.2285,-24.3328 4.5788,-26.463 2.989,-1.9007 85.5493,-1.2531 89.4161,0.7013 3.4385,1.7379 3.4575,1.8539 3.8361,23.4434 0.3546,20.2219 0.1903,21.8871 -2.4189,24.4962 -2.6924,2.6925 -4.4619,2.7995 -46.2409,2.7995 h -43.4414 z m 88.3655,-22.6211 v -19.3519 h -42.1594 -42.1595 v 19.3519 19.3518 h 42.1595 42.1594 z m -93.0567,-32.6973 c -0.516,-0.5159 -0.9382,-1.775 -0.9382,-2.7977 0,-1.5317 9.2057,-1.7958 52.181,-1.4976 45.3006,0.3145 52.1809,0.6356 52.1809,2.4356 0,1.7993 -6.776,2.1213 -51.2428,2.4357 -28.1836,0.1991 -51.665,-0.06 -52.1809,-0.576 z m 5.5988,-16.5176 c -0.4592,-0.4593 -1.6515,-0.5084 -2.6493,-0.1086 -1.1026,0.4412 -0.7751,0.7687 0.8351,0.8351 1.4571,0.06 2.2736,-0.2666 1.8142,-0.726 z m 61.3846,-0.027 c 4.9279,-0.8149 4.976,-0.8833 2.419,-3.4404 -3.7132,-3.7133 -3.2827,-8.7896 1.0331,-12.1846 l 3.6421,-2.8649 h -22.3028 -22.3028 l 2.7645,2.7646 c 3.3607,3.3606 3.6047,10.0275 0.4619,12.6168 -2.0222,1.6661 -1.3069,1.995 5.8747,2.7014 12.1199,1.1921 22.7431,1.3444 28.4103,0.4071 z m 47.9073,-9.2696 0.4088,-9.2203 -8.0113,0.031 c -7.814,0.03 -7.9383,0.09 -5.0483,2.4189 4.8275,3.8913 5.3167,8.0571 1.4054,11.9684 l -3.4058,3.4059 5.7389,0.5097 c 3.1565,0.2804 6.361,0.4191 7.1213,0.3083 0.7603,-0.1108 1.5662,-4.3506 1.791,-9.4217 z m -116.4944,6.5039 c -3.478,-3.4778 -2.2652,-11.7625 2.0478,-13.9881 3.1344,-1.6175 2.6844,-1.7489 -4.8379,-1.4141 l -8.2937,0.3692 -0.4282,6.7357 c -0.6117,9.6198 0.035,10.5428 7.3949,10.5428 5.872,0 6.1894,-0.1731 4.1171,-2.2455 z m 22.782,-0.5191 c -3.6981,-3.6981 -3.4853,-7.6986 0.6283,-11.8122 l 3.3929,-3.3929 h -9.5503 -9.5503 l 3.3929,3.3929 c 4.1135,4.1136 4.3264,8.1141 0.6283,11.8122 l -2.7646,2.7646 h 8.2937 8.2937 z m 71.1245,-0.6283 c -4.1396,-4.1395 -4.2399,-6.2159 -0.528,-10.9347 l 2.8648,-3.6421 -9.4307,0.042 c -7.7474,0.034 -8.9373,0.3219 -6.6661,1.6097 3.7586,2.1314 4.7919,3.91 4.8168,8.2915 0.013,2.2971 -1.1554,4.547 -3.0509,5.8746 -2.9118,2.0395 -2.5903,2.1519 6.1574,2.1519 h 9.2295 z m -86.5945,-5.0045 c -0.2724,-0.8173 -1.0862,-1.486 -1.8085,-1.486 -0.7222,0 -1.536,0.6687 -1.8084,1.486 -0.2724,0.8172 0.5414,1.486 1.8084,1.486 1.2671,0 2.081,-0.6688 1.8085,-1.486 z m 22.5887,-0.5874 c 0,-0.7223 -0.6687,-1.5362 -1.4859,-1.8086 -0.8173,-0.2724 -1.4859,0.5414 -1.4859,1.8086 0,1.267 0.6686,2.0808 1.4859,1.8084 0.8172,-0.2724 1.4859,-1.0863 1.4859,-1.8084 z m 49.2379,0.4319 c -0.8544,-2.563 -3.8301,-2.9882 -3.8301,-0.5471 0,1.2037 0.9848,2.1886 2.1886,2.1886 1.2037,0 1.9424,-0.7387 1.6415,-1.6415 z m 22.4331,-0.5471 c 0,-2.4411 -2.9757,-2.0159 -3.8299,0.5471 -0.3011,0.9028 0.4376,1.6415 1.6414,1.6415 1.2037,0 2.1885,-0.9849 2.1885,-2.1886 z m 22.8077,-17.1634 c 0,-1.8296 -19.5463,-2.1146 -166.2188,-2.4245 -165.6364,-0.3499 -166.2188,-0.3414 -166.2188,2.4245 0,2.766 0.5824,2.7746 166.2188,2.4247 146.6725,-0.3099 166.2188,-0.5951 166.2188,-2.4247 z m -329.0406,-95.7226 c -0.3646,-0.9503 -0.5006,-28.4749 -0.3021,-61.1658 l 0.3608,-59.4379 h 87.7745 87.7746 l 0.3599,61.1658 0.36,61.1657 h -87.8324 c -68.9907,0 -87.9745,-0.3706 -88.4953,-1.7278 z m 85.0687,-59.7835 v -55.9822 h -39.395 -39.3949 v 55.9822 55.9822 h 39.3949 39.395 z m -12.1509,37.6671 c 0.3182,-9.0369 0.8319,-11.4039 2.4749,-11.4039 1.643,0 2.1567,2.367 2.4749,11.4039 0.3788,10.7586 0.2388,11.4038 -2.4749,11.4038 -2.7136,0 -2.8536,-0.6452 -2.4749,-11.4038 z m 97.5222,-37.3215 -0.3614,-55.6366 -39.0492,-0.3672 -39.0493,-0.3671 v 56.0038 56.0037 h 39.4105 39.4105 z m -70.6284,49.0959 c -0.3935,-0.6367 -0.8617,-5.6699 -1.0406,-11.1848 -0.339,-10.452 1.1515,-14.3655 4.1125,-10.7976 2.1488,2.589 1.5048,21.8639 -0.7553,22.6108 -0.8806,0.2911 -1.9231,0.011 -2.3166,-0.6284 z m 89.8625,7.0146 c -0.5141,-0.514 -0.933,-4.7186 -0.9309,-9.3435 v -8.4088 l 20.0137,-25.2211 20.0139,-25.2211 0.371,-32.1434 0.3711,-32.1435 26.1623,-0.3769 c 20.0059,-0.2883 26.4249,0.037 27.2787,1.3823 0.6141,0.9675 1.1385,15.7548 1.1653,32.8604 l 0.049,31.1012 20.0585,24.8811 20.0583,24.881 -0.3885,8.9848 -0.3886,8.9847 -66.4514,0.3588 c -36.5482,0.1973 -66.872,-0.062 -67.386,-0.576 z m 128.9994,-10.1498 v -4.1468 h -61.3502 -61.3501 l -0.6545,3.4232 c -0.3599,1.8827 -0.3287,3.7487 0.069,4.1467 0.398,0.398 28.3001,0.7238 62.0046,0.7238 h 61.2809 z m -36.7049,1.2618 c -1.3062,-2.1136 1.5287,-4.5598 4.1285,-3.5622 1.1914,0.4573 2.1663,1.7839 2.1663,2.9481 0,2.4158 -4.8865,2.8925 -6.2948,0.6141 z m 9.7505,0.1205 c -1.2528,-2.0271 0.4798,-4.1468 3.3893,-4.1468 2.5614,0 4.7214,3.1778 3.1965,4.7027 -1.3206,1.3205 -5.6522,0.9548 -6.5858,-0.5559 z m 9.8488,0.2795 c -1.2174,-1.9696 1.5603,-4.8527 3.8345,-3.98 3.1233,1.1985 2.7641,5.0828 -0.4702,5.0828 -1.4756,0 -2.9895,-0.4963 -3.3643,-1.1028 z m 11.5765,-12.143 c 0,-0.4429 -7.6199,-10.3864 -16.9329,-22.0968 l -16.9329,-21.2915 -22.92,-0.02 -22.9199,-0.02 -16.4566,20.6789 c -9.0511,11.3735 -16.6721,21.3259 -16.9357,22.1165 -0.3265,0.9795 17.6104,1.4375 56.3095,1.4375 31.2336,0 56.7885,-0.3624 56.7885,-0.8053 z m -36.2561,-78.3302 -0.3743,-27.991 -20.3885,-0.3825 -20.3886,-0.3826 v 28.3737 28.3735 h 20.7627 20.7628 z m -574.7103,-151.82 c 0,-36.5555 -0.4666,-66.2258 -1.0368,-65.934 -0.5702,0.2918 -4.6655,2.2249 -9.1006,4.2958 -8.0424,3.7553 -8.0618,3.779 -7.2895,8.915 1.1942,7.9416 4.2424,68.3514 4.2704,84.6308 l 0.024,14.5138 -20.5469,0.3835 c -11.5769,0.216 -21.2379,-0.1901 -22.1299,-0.9304 -1.1302,-0.938 -1.3154,-6.3856 -0.6475,-19.0442 2.288,-43.3625 4.0838,-74.8026 4.5446,-79.57 0.485,-5.0173 0.3341,-5.2108 -5.2336,-6.71 -8.7544,-2.3574 -15.8404,-6.4161 -23.1684,-13.2706 -10.6971,-10.0059 -16.8744,-25.7072 -12.0227,-30.5589 1.1991,-1.1991 10.966,-1.6587 35.2481,-1.6587 h 33.5892 v -12.9623 c 0,-9.6455 -0.5136,-13.3887 -2.007,-14.6281 -3.0392,-2.5223 -7.3647,-0.4399 -8.3436,4.0168 -0.7476,3.404 -1.6199,4.0184 -6.3444,4.4689 -10.0242,0.9559 -11.9019,-2.8472 -6.7056,-13.5814 7.1394,-14.7479 27.2678,-15.6114 35.8486,-1.5379 2.29,3.756 2.7476,6.976 2.7519,19.3646 v 14.8594 h 4.1469 4.1468 v -102.2885 -102.2885 h -64.967 -64.9671 v 156.1974 156.1972 h 33.8658 c 32.9443,0 33.8657,0.075 33.8657,2.7646 0,2.6975 -0.9214,2.7646 -38.0125,2.7646 h -38.0126 v 4.0982 c 0,2.637 0.9532,4.6083 2.6737,5.5291 1.6389,0.8771 16.0812,1.4308 37.3215,1.4308 29.8764,0 34.6477,0.2856 34.6477,2.0734 0,1.7946 -5.2987,2.0735 -39.3948,2.0735 h -39.395 v -9.6496 c 0,-9.1358 0.1837,-9.6957 3.4499,-10.5154 l 3.4499,-0.866 0.3513,-158.4678 0.3515,-158.468 67.0404,-0.2234 67.0405,-0.2235 0.4331,-4.2689 0.4331,-4.2689 H 4143.167 3918.4594 v 194.901 194.9011 h 224.62 224.6201 z m -400.1693,46.848 c -1.5206,-0.8649 -3.2216,-2.2478 -3.7801,-3.073 -1.6604,-2.4531 -1.2003,-8.8509 1.0186,-14.1612 l 2.0763,-4.9695 -6.1578,-5.7344 c -7.7811,-7.2461 -11.6029,-15.7799 -18.2427,-40.7342 -3.4863,-13.1028 -5.9983,-20.0867 -7.3786,-20.5139 -5.3702,-1.6626 -8.2549,-3.8315 -9.6837,-7.2808 -3.7891,-9.1479 3.4936,-16.6009 16.2303,-16.6099 h 7.2569 v -19.8386 c 0,-18.3241 0.2397,-20.1971 3.1378,-24.5354 5.8456,-8.7504 17.1454,-11.8464 26.6961,-7.3143 4.5214,2.1456 10.2522,9.4017 10.2522,12.9809 0,0.9588 2.8438,4.3916 6.3195,7.6283 5.4395,5.0656 6.2576,6.5323 5.8747,10.5339 l -0.4448,4.649 -13.5013,0.396 c -15.2831,0.448 -16.2582,-0.1905 -13.4207,-8.7878 1.0029,-3.039 3.2516,-5.9519 5.6464,-7.3141 4.7928,-2.7263 4.9977,-5.1431 0.8723,-10.298 -4.0441,-5.0536 -13.0768,-6.5737 -18.3868,-3.0945 -5.9101,3.8724 -7.5162,9.9276 -7.5162,28.3356 v 16.6045 l 97.306,0.3728 c 92.5146,0.3544 97.4453,0.499 100.1367,2.9351 6.6168,5.9893 4.1759,17.7597 -4.1292,19.9118 -4.2413,1.099 -4.4231,1.5013 -10.3094,22.8184 -7.0103,25.3881 -9.8094,31.4958 -17.9413,39.1486 l -6.0051,5.6514 2.6967,7.0971 c 3.106,8.1743 2.0431,13.4067 -3.1109,15.3132 -5.0439,1.8659 -9.7169,-0.795 -14.952,-8.5139 l -4.9031,-7.2295 -52.5234,-0.3617 -52.5234,-0.3618 -5.8603,8.3099 c -3.223,4.5704 -6.4099,8.3098 -7.0817,8.3098 -0.672,0 -2.0501,0.2943 -3.0625,0.654 -1.0125,0.3596 -3.085,-0.053 -4.6055,-0.9186 z m 8.8974,-11.1098 c 3.8763,-5.2708 4.0579,-5.9405 1.8475,-6.8142 -4.5747,-1.8083 -5.8664,-1.1714 -8.0051,3.9472 -2.1352,5.11 -1.9065,8.7123 0.5529,8.7123 0.7184,0 3.2405,-2.6304 5.6047,-5.8453 z m 134.8419,4.4914 c 0.4601,-0.7445 0.071,-3.9094 -0.8648,-7.0331 -1.5957,-5.3254 -1.9593,-5.6278 -5.8379,-4.8519 -2.2751,0.4549 -4.3997,1.0905 -4.7215,1.4123 -0.7687,0.7686 8.1309,11.8266 9.5181,11.8266 0.5881,0 1.4458,-0.6092 1.9061,-1.3539 z m -5.3696,-19.449 c 8.9205,-4.3183 16.2887,-13.1888 19.5503,-23.5358 4.5215,-14.3447 9.8153,-32.0825 10.7973,-36.179 l 0.9114,-3.8012 h -96.9094 c -53.3,0 -96.9092,0.3333 -96.9092,0.7409 0,2.541 11.8722,41.0918 14.1476,45.9391 3.2552,6.9349 12.8814,15.8675 19.3244,17.9321 2.8572,0.9156 26.543,1.5073 63.8878,1.5961 57.1559,0.1359 59.5631,0.036 65.1998,-2.6922 z m 41.9543,-71.0424 c 0.9118,-1.0986 1.4544,-3.4311 1.206,-5.1836 l -0.4517,-3.1862 -108.1347,-0.354 -108.1348,-0.354 -0.8739,3.4821 c -1.9926,7.9393 -6.947,7.5929 108.6346,7.5929 90.8258,0 106.3355,-0.2875 107.7545,-1.9972 z m -153.3713,-39.09 c 10e-4,-0.9307 -1.8015,-2.6248 -4.0055,-3.7644 -3.7009,-1.914 -4.2828,-1.8555 -7.6156,0.7663 -1.9848,1.5611 -3.3184,3.308 -2.9637,3.8819 1.1138,1.8021 14.5828,0.986 14.5848,-0.8838 z m 131.318,110.8922 c 1.46,-1.7592 8.0419,-2.0734 43.4345,-2.0734 30.6011,0 42.1557,-0.4419 43.3725,-1.6587 1.2385,-1.2384 1.6587,-16.6488 1.6587,-60.8201 v -59.1615 h -56.5769 -56.577 l 0.024,14.8595 c 0.021,12.4764 -0.3272,14.9311 -2.1698,15.3064 -1.9513,0.3973 -2.1945,-2.9062 -2.1945,-29.804 0,-28.5328 0.16,-30.4226 2.8183,-33.2759 2.8094,-3.0155 2.9984,-3.0252 58.5326,-3.0252 52.2195,0 55.8577,0.1586 58.0018,2.5278 2.0704,2.2878 2.2877,9.7602 2.2877,78.6911 0,67.3962 -0.2501,76.4133 -2.1722,78.3353 -1.8857,1.8858 -8.1056,2.1722 -47.1666,2.1722 -39.8385,0 -44.7974,-0.2377 -43.2738,-2.0735 z m 11.0583,-142.3744 v -13.1317 h -15.0921 c -8.3005,0 -16.0758,0.3776 -17.2784,0.839 -1.7669,0.6781 -2.1864,3.1976 -2.1864,13.1317 v 12.2925 h 17.2784 17.2785 z m 77.4074,1.6587 c 0,-7.0803 -0.635,-12.108 -1.6587,-13.1317 -1.2027,-1.2026 -11.2732,-1.6587 -36.6303,-1.6587 h -34.9717 v 13.1317 13.1315 h 36.6304 36.6303 z m -61.8949,5.1742 c -6.2639,-4.3874 -2.3818,-14.4355 5.5773,-14.4355 4.7137,0 7.938,3.3769 7.938,8.314 0,4.1122 -4.1714,8.2733 -8.2937,8.2733 -1.1822,0 -3.5318,-0.9683 -5.2216,-2.1518 z m 9.3685,-6.3331 c 0,-3.6714 -3.8768,-4.8254 -6.6731,-1.9867 -2.1616,2.1945 -2.146,2.47 0.2415,4.2409 3.2017,2.3749 6.4316,1.2429 6.4316,-2.2542 z m 16.8605,-0.1542 0.4179,-7.257 h 13.8228 13.8227 l 0.4178,7.257 0.4179,7.2568 h -14.6584 -14.6584 z m 23.6259,0.3455 c -0.6346,-2.4268 -1.8854,-2.7645 -10.2376,-2.7645 -7.0074,0 -9.5147,0.4856 -9.5147,1.843 0,3.1678 1.5686,3.686 11.1592,3.686 8.6356,0 9.2633,-0.202 8.5931,-2.7645 z m -57.0232,113.2769 c -4.39,-1.8586 -4.4175,-1.8954 -3.4007,-4.545 0.6998,-1.8235 1.4098,-1.9527 3.7747,-0.6871 1.6019,0.8573 7.0245,1.5965 12.0502,1.6425 21.7472,0.1991 37.7844,-15.9918 37.7159,-38.0773 -0.1064,-34.2113 -38.268,-50.4034 -64.5031,-27.3687 -6.8724,6.0341 -10.2017,5.4121 -5.6691,-1.059 6.3369,-9.0472 25.6889,-16.6475 37.7952,-14.8438 14.2624,2.125 26.6673,11.1867 33.4997,24.4713 4.5789,8.903 5.1419,24.303 1.264,34.5791 -3.4566,9.1602 -12.057,18.7242 -20.9741,23.324 -6.839,3.5277 -25.6629,5.0574 -31.5527,2.564 z m 3.7507,-9.8305 c -2.0908,-0.7635 -3.8013,-2.1865 -3.8013,-3.162 0,-1.3301 2.3335,-1.6169 9.3304,-1.1471 7.9258,0.5323 10.2503,0.1323 15.4416,-2.6573 3.3612,-1.8062 7.3828,-4.987 8.9368,-7.0686 2.6687,-3.5744 2.6996,-3.9922 0.5574,-7.5228 -1.851,-3.0505 -3.122,-3.6648 -6.9085,-3.3386 -5.9107,0.5093 -12.1526,-1.835 -12.1526,-4.564 0,-2.4678 1.2541,-2.6135 6.2261,-0.7231 4.939,1.8779 10.3611,0.3661 10.3611,-2.8886 0,-1.4228 1.0166,-5.1273 2.259,-8.2323 l 2.2588,-5.6455 -4.5782,-4.7235 c -7.5204,-7.7591 -21.1772,-10.21 -30.3783,-5.4519 -2.1895,1.1322 -5.643,2.0586 -7.6744,2.0586 -3.0265,0 -3.4006,-0.353 -2.0718,-1.9543 3.2193,-3.879 13.7882,-7.7217 21.2378,-7.7217 9.871,0 20.6441,5.3574 25.4859,12.6739 3.5036,5.2943 3.5342,5.537 1.2896,10.2441 -2.8491,5.9745 -2.9387,13.8358 -0.2173,19.0539 2.9001,5.5609 2.6816,6.572 -2.8064,12.9835 -7.7617,9.0679 -22.6227,13.5029 -32.7957,9.7873 z m -133.0012,-77.6791 c 0.6994,-4.6641 0.2502,-7.3056 -1.9888,-11.6943 -3.6511,-7.1568 -3.6555,-11.3474 -0.017,-15.9732 3.8218,-4.8587 5.53,-3.447 4.543,3.7543 -0.6226,4.542 -0.1438,6.9671 2.103,10.6525 1.5999,2.6245 2.9113,6.655 2.9141,8.9567 0.011,4.8596 -3.3714,10.3291 -6.3781,10.3291 -1.6716,0 -1.9024,-1.1826 -1.1763,-6.0251 z m 17.2355,4.0417 c 0,-1.0909 0.5796,-3.5082 1.2881,-5.3716 1.0068,-2.648 0.522,-4.827 -2.22,-9.9777 -3.913,-7.3507 -3.7355,-15.1789 0.4128,-18.2122 3.5461,-2.593 4.6764,-0.8563 3.7658,5.7865 -0.6529,4.7639 -0.202,7.078 2.1081,10.8156 3.2933,5.3288 3.7147,10.1982 1.3346,15.422 -1.7023,3.7362 -6.6894,4.8823 -6.6894,1.5374 z m 18.7243,-4.1794 c 0.7411,-4.9417 0.3471,-7.0963 -1.9887,-10.8758 -3.4475,-5.5781 -3.6971,-10.6099 -0.804,-16.2048 3.5465,-6.8581 7.6746,-4.0298 4.8731,3.3386 -1.1778,3.098 -0.8001,4.9408 2.1821,10.6441 2.6556,5.0786 3.3786,8.0371 2.7421,11.2195 -1.0222,5.1107 -3.1868,8.0412 -5.9398,8.0412 -1.5712,0 -1.7948,-1.2946 -1.0648,-6.1628 z m 281.6761,-16.7843 c -0.9677,-2.5219 1.8414,-4.7947 4.6118,-3.7315 1.0193,0.3911 1.8532,1.8885 1.8532,3.3278 0,3.2658 -5.2411,3.5931 -6.465,0.4037 z m -86.8736,-13.2758 c -0.4001,-1.0427 -0.5559,-12.1355 -0.3462,-24.6504 0.3205,-19.1353 0.711,-22.7545 2.4546,-22.7545 1.7636,0 2.0734,3.5964 2.0734,24.0746 0,18.0257 -0.4339,24.2193 -1.7271,24.6504 -0.9499,0.3166 -2.0546,-0.2775 -2.4547,-1.3201 z m -92.2046,-25.3763 c -0.3872,-0.387 0.1209,-3.0137 1.1288,-5.8371 2.949,-8.2606 2.3531,-10.8118 -4.2664,-18.265 -6.7835,-7.6377 -8.1029,-13.6966 -4.0816,-18.7421 2.0203,-2.5348 2.0916,-2.4393 1.2903,1.7282 -0.9803,5.0975 0.6222,8.6943 7.1026,15.9424 6.0362,6.7513 6.9302,10.8237 4.0384,18.3957 -2.3372,6.12 -3.873,8.1171 -5.2121,6.7779 z m 200.7483,-71.7122 v -71.1089 l -3.0721,-2.1518 c -2.3855,-1.6709 -6.9607,-2.1518 -20.47,-2.1518 -19.5865,0 -22.1597,0.9334 -22.5296,8.1728 -0.2189,4.2855 0.1672,4.7125 5.7877,6.4009 7.1967,2.1619 12.2734,6.5393 14.9924,12.927 1.6474,3.8702 1.6768,4.8965 0.1675,5.8535 -1.0067,0.6382 -12.2687,1.1699 -25.0268,1.1816 -26.0251,0.023 -27.1164,-0.42 -22.4317,-9.1188 2.8892,-5.3651 7.424,-8.6566 15.0131,-10.8975 4.9207,-1.4529 5.4092,-2.0342 5.6973,-6.7797 0.2122,-3.4963 1.5208,-6.3964 4.0086,-8.8842 3.6739,-3.6739 3.8036,-3.6936 24.3649,-3.6936 h 20.6713 l 3.8327,3.8319 3.8327,3.8319 0.3816,71.8478 c 0.3789,71.3597 0.3625,71.8477 -2.419,71.8477 -2.7763,0 -2.8006,-0.6167 -2.8006,-71.1088 z m -31.7847,-49.1349 c -3.0859,-5.766 -14.7447,-9.285 -23.2103,-7.0054 -5.6592,1.5238 -12.7366,6.2324 -12.7366,8.4736 0,0.7247 8.1341,1.282 18.7094,1.282 18.2486,0 18.6731,-0.068 17.2375,-2.7502 z m -154.8713,103.7473 c 2.3979,-4.4806 1.6108,-10.4954 -2.0202,-15.437 -1.8982,-2.5833 -4.7561,-7.4077 -6.3511,-10.7209 -2.7917,-5.7995 -2.8136,-6.2499 -0.5868,-12.0807 2.6691,-6.989 5.5582,-9.806 3.8786,-3.782 -2.2932,8.2249 -1.1836,13.7544 4.1279,20.572 6.2304,7.9969 7.5884,13.918 4.5427,19.8076 -1.2272,2.3731 -2.8592,4.3147 -3.6267,4.3147 -0.9267,0 -0.9148,-0.8979 0.035,-2.6737 z m 850.149,38.6129 v -194.901 h -306.8655 -306.8656 v 194.901 194.9011 h 306.8656 306.8655 z m -576.133,154.5386 c -0.9124,-0.9123 -1.6588,-4.9198 -1.6588,-8.9054 v -7.2465 l -5.8746,-0.425 -5.8747,-0.4251 v -127.1696 -127.1694 h 83.6277 83.6278 v 127.1694 127.1696 l -5.8747,0.4251 -5.8747,0.425 v 7.2465 c 0,8.6494 -1.5698,10.5641 -8.661,10.5641 -7.9219,0 -10.241,-1.8917 -12.7035,-10.3624 l -2.2114,-7.6071 h -48.243 -48.243 l -2.2005,7.5694 c -1.275,4.3857 -3.3129,8.1647 -4.8452,8.9847 -3.6184,1.9365 -12.9622,1.7849 -14.9904,-0.2433 z m 13.0548,-10.3555 c 2.5162,-6.022 2.5494,-5.9553 -2.9642,-5.9553 -4.7101,0 -4.838,0.1438 -4.838,5.4431 0,4.7134 0.3974,5.4133 2.9642,5.2199 1.9271,-0.1451 3.62,-1.7924 4.838,-4.7077 z m 121.8697,-0.7833 c 0.4219,-5.0865 0.3475,-5.172 -4.4924,-5.172 -2.7067,0 -4.9214,0.2349 -4.9214,0.5222 0,0.2874 0.9584,2.8162 2.1298,5.6197 2.8401,6.7973 6.6822,6.2857 7.284,-0.9699 z m 12.7026,-32.8177 v -20.7341 h -77.4075 -77.4075 v 20.7341 20.7342 h 77.4075 77.4075 z m -91.0861,-1.2373 c -1.0802,-0.6988 -1.5474,-2.2435 -1.0615,-3.5097 0.7398,-1.9279 2.9619,-2.2034 15.0609,-1.8674 13.1402,0.365 14.1931,0.5993 14.1931,3.1588 0,2.5459 -1.0386,2.7923 -13.1316,3.1156 -7.2224,0.1931 -13.9999,-0.2107 -15.0609,-0.8973 z m 10.914,-123.1676 v -96.7594 h -37.3215 -37.3214 v 96.7594 96.7594 h 37.3214 37.3215 z m -14.9113,14.9459 c -2.444,-2.4441 -2.2653,-25.1765 0.214,-27.2341 3.6982,-3.0693 5.1521,1.5868 4.7295,15.1473 -0.3934,12.6272 -1.5574,15.4729 -4.9435,12.0868 z m 95.0834,-14.9459 v -96.7594 h -37.1687 -37.1687 l 0.013,96.7594 0.013,96.7594 h 37.1553 37.1552 z m -65.0552,12.8997 c -0.7711,-2.0282 -1.2222,-8.4039 -1.0025,-14.1683 0.3871,-10.1514 0.5082,-10.4807 3.8553,-10.4807 3.3954,0 3.4627,0.2131 3.857,12.2315 0.3834,11.6837 -0.7314,16.1052 -4.0605,16.1052 -0.686,0 -1.8781,-1.6595 -2.6493,-3.6877 z m 102.4595,151.746 c -0.8058,-1.5056 -1.4651,-6.8215 -1.4651,-11.8131 v -9.0757 h -4.0465 c -2.7251,0 -4.9821,-1.1894 -6.9114,-3.6422 -2.4972,-3.1748 -2.8649,-5.5606 -2.8649,-18.5957 0,-16.2186 1.2792,-20.8744 6.3727,-23.1952 2.9495,-1.344 3.3033,-2.3949 3.3033,-9.8135 0,-9.2493 3.7407,-20.7702 8.3297,-25.655 2.7871,-2.9666 2.9307,-4.6057 3.1696,-36.1528 0.273,-36.0841 0.5643,-37.4971 8.8474,-42.925 3.4476,-2.2592 10.7781,-2.4706 99.8502,-2.8799 52.8712,-0.243 99.4622,-0.034 103.5356,0.4636 5.7335,0.701 8.543,1.9468 12.4405,5.5167 l 5.0344,4.6113 0.4165,33.4525 0.4165,33.4526 4.0975,5.0989 c 5.1281,6.3813 6.8042,12.1329 6.8721,23.5811 0.051,8.6004 0.2475,9.1161 4.4924,11.7846 l 4.4391,2.7905 0.3855,18.2494 c 0.3543,16.7789 0.1593,18.4752 -2.419,21.0536 -1.5714,1.5714 -4.6279,2.8045 -6.9513,2.8045 h -4.1469 v 9.5629 c 0,13.5946 -0.2363,13.9357 -9.6546,13.9357 -4.7358,0 -8.5646,-0.7087 -9.4244,-1.7445 -0.7963,-0.9596 -2.3503,-5.6513 -3.4534,-10.4261 -1.1031,-4.7747 -2.2481,-8.9239 -2.5446,-9.2204 -0.2964,-0.2963 -44.0376,-0.6712 -97.2027,-0.8327 l -96.6639,-0.294 -2.8381,10.9133 -2.8383,10.9133 -8.5565,0.4094 c -7.355,0.3519 -8.762,0.026 -10.0214,-2.3281 z m 14.6151,-11.8159 c 0.9539,-3.7528 1.4883,-7.2214 1.1875,-7.7081 -0.3007,-0.4866 -2.5984,-0.7918 -5.106,-0.6785 -4.3441,0.1967 -4.5796,0.4861 -4.9919,6.1384 -0.5669,7.7706 0.4285,10.0561 4.1437,9.5139 2.3553,-0.3436 3.4194,-1.9658 4.7667,-7.2657 z m 221.6715,-0.088 v -7.6026 h -5.4858 c -3.7761,0 -5.3051,0.5384 -4.9061,1.7279 0.3186,0.9502 1.2561,4.3713 2.0833,7.6025 1.2576,4.9129 2.0608,5.8746 4.9061,5.8746 3.2027,0 3.4025,-0.4464 3.4025,-7.6024 z m 13.1316,-32.4836 v -15.8962 l -127.1695,-0.3575 c -118.3295,-0.3327 -127.2896,-0.1942 -128.8973,1.992 -1.791,2.4355 -2.474,24.5317 -0.8861,28.6696 0.7617,1.985 13.0208,2.1601 128.8973,1.8409 l 128.0556,-0.3526 z m -8.9848,-33.3988 c 0,-12.1817 -3.9597,-20.1128 -12.0478,-24.1314 -4.9785,-2.4735 -10.1955,-2.5989 -108.2103,-2.5989 h -102.9797 l -4.3948,3.1349 c -7.2928,5.2018 -10.4733,11.8121 -11.2106,23.2997 l -0.6543,10.1958 h 119.7488 119.7487 z m -13.0998,-93.2251 c -1.1539,-1.7609 -4.4321,-3.8003 -7.2851,-4.532 -3.1273,-0.8022 -43.7038,-1.2354 -102.18,-1.091 l -96.9929,0.2395 -3.5678,3.351 -3.5679,3.351 v 29.6393 29.6393 l 3.1102,-0.8336 c 1.7105,-0.4584 6.9978,-0.8419 11.7494,-0.8523 l 8.6392,-0.019 v -8.3382 c 0,-4.5859 0.884,-10.4538 1.9645,-13.0398 3.4075,-8.1553 6.9811,-9.0321 36.8088,-9.0321 h 26.4702 l 4.6997,4.6996 c 3.9288,3.9288 4.7416,5.7996 4.9549,11.4039 0.1404,3.6872 0.3161,8.2591 0.3907,10.1597 0.1276,3.2543 0.6362,3.4797 8.7296,3.8672 l 8.5942,0.4116 0.011,-7.323 c 0.012,-11.1944 2.2337,-17.4113 7.3342,-20.5213 3.9529,-2.4102 7.0949,-2.688 30.4575,-2.6926 34.3692,-0.011 36.069,0.9368 37.3389,20.729 l 0.5764,8.9848 10.4729,0.7567 c 5.7599,0.4161 10.9615,1.2463 11.5589,1.8447 0.5975,0.5984 1.2545,-12.117 1.46,-28.2565 0.3102,-24.3586 0.017,-29.8884 -1.7241,-32.5461 z m -122.3633,49.2947 c 0,-13.8479 -0.1171,-13.9011 -30.6173,-13.9011 h -24.4731 l -2.8649,3.6421 c -2.1588,2.7444 -2.865,5.6405 -2.865,11.7494 v 8.1073 h 30.4101 30.4102 z m 92.6125,0.3761 c 0,-14.4388 0.3379,-14.2772 -29.8328,-14.2772 h -25.2576 l -2.8649,3.6421 c -2.1587,2.7444 -2.8648,5.6405 -2.8648,11.7494 v 8.1073 h 30.4101 30.41 z m 83.9185,123.0893 c -0.54,-0.54 -0.9819,-3.636 -0.9819,-6.8799 0,-5.4066 -0.3166,-5.9344 -3.8013,-6.3354 l -3.8011,-0.4373 -0.3669,-39.7405 c -0.2885,-31.2607 0.011,-39.7717 1.3823,-39.8867 0.962,-0.081 7.9572,-0.2359 15.5448,-0.3456 12.6222,-0.1824 13.8392,-0.4345 14.3064,-2.9639 0.8976,-4.86 5.8752,-8.9849 10.8425,-8.9849 h 4.5971 v -14.4638 -14.4639 l -13.4612,-0.3955 c -11.5174,-0.3385 -13.5278,-0.7438 -13.9226,-2.8064 -0.5251,-2.7443 11.7729,-43.6546 13.9352,-46.3566 2.1682,-2.7094 32.8046,-1.7453 34.2785,1.0788 2.5031,4.796 13.8876,43.0716 13.4679,45.2798 -0.3531,1.8574 -2.1158,2.5043 -7.7019,2.8265 l -7.244,0.4179 v 6.8391 c 0,5.7888 -0.4018,6.8392 -2.6167,6.8392 -3.0751,0 -4.2947,-2.5836 -4.2947,-9.0979 0,-3.8034 -0.5392,-4.725 -2.7645,-4.725 -2.589,0 -2.7646,0.9216 -2.7646,14.514 v 14.5138 h 3.9604 c 4.7119,0 10.8834,4.4764 11.4977,8.3396 0.3972,2.4984 1.7826,2.8157 14.8572,3.4025 7.9305,0.3559 14.9383,1.1664 15.573,1.8009 0.6346,0.6346 0.9881,18.5294 0.7859,39.7662 l -0.3679,38.6124 -3.729,0.4303 c -3.3879,0.391 -3.7672,1.0233 -4.1468,6.9114 l -0.4179,6.481 -7.8154,0.4106 -7.8154,0.4105 -2.3172,-6.9764 -2.3172,-6.9763 h -21.2338 -21.2339 l -1.8487,6.5657 -1.8487,6.5659 -7.6169,0.4058 c -4.1893,0.2232 -8.0588,-0.035 -8.5987,-0.5759 z m 76.4257,-9.5875 c 0,-2.6774 -0.7135,-3.374 -3.4557,-3.374 -4.0214,0 -4.2654,0.9934 -1.2878,5.2446 2.5769,3.6789 4.7435,2.8245 4.7435,-1.8706 z m -65.0157,0.8636 c 2.043,-3.8174 1.8422,-4.2376 -2.0248,-4.2376 -2.7645,0 -3.4557,0.6911 -3.4557,3.4556 0,4.1619 3.4112,4.6486 5.4805,0.782 z m 73.3094,-26.3541 v -15.205 h -43.5418 -43.5418 v 15.205 15.2051 h 43.5418 43.5418 z m -47.4974,2.0734 c -1.9,-4.9514 3.0888,-8.963 6.6801,-5.3716 2.5476,2.5475 2.6311,3.61 0.4548,5.7863 -2.3008,2.3007 -6.1794,2.0752 -7.1349,-0.4147 z m 47.4974,-38.7038 v -14.5138 h -43.5418 -43.5418 v 14.5138 14.514 h 43.5418 43.5418 z m -55.7022,1.2017 c -0.5342,-0.5342 -0.9713,-1.824 -0.9713,-2.8661 0,-1.4971 2.6843,-1.8116 12.7861,-1.4976 10.2673,0.3192 12.7861,0.806 12.7861,2.4709 0,1.6505 -2.41,2.1541 -11.8149,2.4687 -6.4981,0.2175 -12.2518,-0.042 -12.786,-0.5759 z m 23.9098,-25.3651 c 0,-3.3356 -22.0647,-3.6899 -23.1592,-0.372 -0.4263,1.2924 2.4205,1.7279 11.2946,1.7279 6.8345,0 11.8646,-0.5749 11.8646,-1.3559 z m 11.0581,-46.4653 c 0,-0.453 -2.5538,-8.8504 -5.6754,-18.6608 l -5.6754,-17.8369 h -11.4567 -11.4567 l -5.6754,17.8369 c -3.1216,9.8104 -5.6754,18.2078 -5.6754,18.6608 0,0.4531 10.2633,0.8237 22.8075,0.8237 12.5442,0 22.8075,-0.3706 22.8075,-0.8237 z m -623.8477,146.9996 c -0.4669,-7.0324 -1.5356,-27.0926 -2.3751,-44.5785 -0.8394,-17.4858 -1.8127,-33.7671 -2.1628,-36.1808 l -0.6367,-4.3885 -10.9454,-0.4495 -10.9454,-0.4494 -0.7928,8.2936 c -1.3008,13.6091 -4.8626,74.0208 -4.8693,82.5911 l -0.011,7.9481 h 16.7913 16.7914 z m 3.9335,-94.2601 c 3.0207,-1.2583 7.5095,-3.6573 9.975,-5.3309 l 4.483,-3.0431 0.011,-12.786 0.011,-12.7861 h -44.2329 c -49.7284,0 -46.8398,-0.7288 -41.4271,10.4521 5.5439,11.4525 17.4408,20.7152 31.7847,24.747 9.6654,2.7169 31.5389,2.0212 39.3983,-1.253 z m 0.6541,-54.1274 v -14.6521 l -4.6997,-4.6997 c -7.7194,-7.7195 -18.6493,-6.0512 -23.6448,3.6092 -2.6224,5.0708 -2.6112,6.8961 0.042,6.8961 1.1592,0 2.6494,-1.4252 3.3117,-3.167 2.7396,-7.2058 11.7792,-9.2745 17.1368,-3.9219 2.6166,2.6143 3.0789,4.8386 3.4911,16.8004 0.3687,10.7002 0.9104,13.7872 2.419,13.7872 1.5481,0 1.9438,-2.9835 1.9438,-14.6522 z m 732.3152,-224.1362 -0.3994,-12.0949 -616.8411,-0.3471 -616.8412,-0.3471 v 12.442 12.442 h 617.2405 617.2405 z m -5.2374,-20.2584 c 0,-0.3087 -14.6334,-19.4359 -32.5186,-42.5051 -17.8852,-23.0692 -37.8797,-48.9418 -44.4324,-57.4946 l -11.9138,-15.5506 -523.3379,0.019 -523.338,0.019 -44.2328,56.8557 c -24.3281,31.2706 -44.4402,57.3869 -44.6936,58.0365 -0.2544,0.6519 273.8765,1.1809 612.0031,1.1809 336.8552,0 612.464,-0.2524 612.464,-0.561 z m -1189.219,-10.0366 c -2.3813,-2.3811 -0.062,-6.7696 10.5775,-20.013 6.3244,-7.8724 21.6339,-27.376 34.021,-43.3413 12.3871,-15.9653 23.765,-30.1164 25.2844,-31.4468 2.5671,-2.2478 8.802,-2.419 88.1413,-2.419 72.175,0 85.6313,0.3044 87.0122,1.9682 2.0538,2.4747 2.0487,2.4848 -27.8298,55.0507 l -23.3741,41.1228 h -96.4555 c -53.0506,0 -96.8702,-0.4146 -97.377,-0.9216 z m 48.3111,-11.8382 c 2.1917,-3.2167 4.3958,-6.483 4.8978,-7.2585 0.6084,-0.9397 -4.6916,-1.2538 -15.8962,-0.9419 l -16.809,0.468 -5.1246,5.7537 c -2.8185,3.1646 -5.1511,6.2203 -5.1836,6.7904 -0.032,0.5702 7.6338,1.0367 17.036,1.0367 h 17.0947 z m 48.8426,-0.2753 c 2.3173,-3.3681 4.2141,-6.6337 4.2152,-7.2569 0,-0.6233 -9.1736,-0.9319 -20.3885,-0.6856 l -20.3907,0.4476 -4.4924,6.0601 c -2.4707,3.333 -4.4924,6.3972 -4.4924,6.8093 0,0.4121 9.3005,0.7492 20.6679,0.7492 h 20.6677 z m 50.2539,0.9401 c 1.7736,-2.8509 3.6842,-5.961 4.2457,-6.9113 0.7993,-1.3525 -3.7423,-1.7278 -20.9109,-1.7278 h -21.9319 l -4.4129,6.2606 c -2.4272,3.4434 -4.4129,6.5535 -4.4129,6.9114 0,0.3579 9.9446,0.6507 22.0991,0.6507 h 22.0991 z m 45.7473,-1.7277 3.7617,-6.9114 h -18.6806 -18.6807 l -4.2132,6.1237 c -2.3173,3.3681 -4.2132,6.4782 -4.2132,6.9114 0,0.4332 8.6095,0.7876 19.1322,0.7876 h 19.1322 z m -125.105,-25.5722 9.8703,-13.1316 h -16.3902 -16.3902 l -8.97,11.4037 c -4.9334,6.2722 -9.4247,12.1813 -9.9806,13.1317 -0.7851,1.3423 2.6719,1.7279 15.4898,1.7279 h 16.5005 z m 47.5103,0 9.2059,-13.1316 h -20.4423 -20.4424 l -8.1901,11.3225 c -4.5046,6.2274 -8.6876,12.1366 -9.2956,13.1317 -0.8915,1.459 2.8677,1.8091 19.4267,1.8091 h 20.5319 z m 49.539,-0.3456 8.0583,-12.786 h -21.1494 -21.1494 l -8.5257,12.3233 c -4.689,6.7777 -8.5256,12.7028 -8.5256,13.1667 0,0.4639 9.7276,0.6722 21.6169,0.4628 l 21.6167,-0.3807 z m 36.5943,11.0583 c 0.8072,-1.3304 4.1105,-7.2397 7.3407,-13.1317 l 5.8731,-10.7126 h -17.7208 -17.721 l -7.6024,12.0232 c -4.1814,6.6126 -7.8099,12.5209 -8.0633,13.1293 -0.2535,0.6084 7.8387,1.1062 17.9826,1.1062 16.0846,0 18.6311,-0.3094 19.9111,-2.419 z m -114.2706,-36.9759 5.7399,-7.6026 h -15.7744 -15.7745 l -4.7566,5.8747 c -7.9799,9.8555 -8.4872,9.3304 9.0139,9.3304 h 15.8118 z m 46.1649,-0.017 5.2664,-7.5861 -19.7804,0.059 -19.7803,0.059 -5.1835,6.7244 c -2.8509,3.6985 -5.1836,7.0932 -5.1836,7.5437 0,0.4505 8.8639,0.8117 19.6975,0.8027 l 19.6974,-0.017 z m 47.6056,0.6988 c 2.4708,-3.7788 4.4924,-7.1887 4.4924,-7.5777 0,-0.3889 -9.1748,-0.696 -20.3885,-0.6824 l -20.3886,0.025 -4.4924,6.8704 c -2.4709,3.7788 -4.4924,7.1888 -4.4924,7.5777 0,0.3889 9.1748,0.696 20.3885,0.6824 l 20.3887,-0.024 z m 41.403,-0.7096 4.4271,-7.5753 h -17.0691 -17.069 l -4.291,6.6868 c -2.3599,3.6779 -4.2909,7.099 -4.2909,7.6026 0,0.5036 7.6199,0.9034 16.933,0.8884 l 16.9328,-0.028 z m -122.0846,-17.8501 c 1.9908,-2.6102 3.6197,-5.0983 3.6197,-5.5291 0,-0.4309 -6.7684,-0.7834 -15.0411,-0.7834 h -15.0409 l -3.6198,4.7458 c -1.9908,2.61 -3.6197,5.0982 -3.6197,5.529 0,0.4309 6.7685,0.7834 15.041,0.7834 h 15.0409 z m 45.5726,-0.4378 3.6908,-5.1835 -18.8307,-0.3856 c -10.5262,-0.2156 -19.5241,0.1947 -20.4029,0.9304 -0.8647,0.7238 -2.6958,3.2299 -4.0692,5.5691 l -2.4972,4.2531 h 19.2092 19.2093 z m 47.1732,0 3.5247,-5.1835 -19.7166,-0.407 -19.7166,-0.4069 -3.8012,4.5015 c -2.0908,2.4759 -3.8013,4.9916 -3.8013,5.5904 0,0.599 8.997,1.089 19.9932,1.089 h 19.9932 z m 39.2891,0.2666 c 1.5956,-2.7044 2.9011,-5.1925 2.9011,-5.5292 0,-0.3367 -7.3088,-0.6044 -16.2418,-0.595 l -16.2417,0.017 -3.1101,4.8014 c -1.7106,2.6409 -3.1102,5.1213 -3.1102,5.5121 0,0.3908 7.4029,0.7104 16.4509,0.7104 h 16.4507 z m -14.5421,81.7025 c -0.7754,-2.0207 8.3381,-20.999 22.9339,-47.7577 4.3541,-7.9827 11.7457,-21.7509 16.4257,-30.5961 7.1665,-13.5447 9.1075,-16.1997 12.3026,-16.828 5.4207,-1.066 163.925,-1.2158 166.6827,-0.1576 3.2615,1.2516 3.0144,3.1101 -3.9672,29.8367 -3.4432,13.1808 -8.4466,32.3626 -11.1189,42.6259 -2.6722,10.2634 -5.4399,20.0603 -6.1505,21.7709 l -1.2921,3.1101 h -97.5236 c -83.9141,0 -97.6308,-0.2796 -98.2926,-2.0042 z m 49.2074,-10.3813 c 4.6818,-9.1768 4.8375,-9.0879 -15.0987,-8.6184 l -17.8961,0.4214 -3.5316,6.3186 c -1.9423,3.4751 -3.5315,6.5511 -3.5315,6.8355 0,0.2843 8.3847,0.517 18.6327,0.517 h 18.6326 z m 49.369,-1.3711 c 1.5905,-3.7648 2.3457,-7.0304 1.678,-7.2569 -0.6676,-0.2265 -10.2466,-0.2242 -21.2866,0 l -20.0726,0.4167 -2.7564,5.4029 c -1.5161,2.9716 -2.7564,6.0498 -2.7564,6.8403 0,0.9324 7.4316,1.4373 21.151,1.4373 h 21.1509 z m 51.0476,-0.066 c 1.022,-3.4212 1.8675,-6.3757 1.879,-6.5658 0.011,-0.1901 -9.9534,-0.3456 -22.1445,-0.3456 h -22.1655 l -2.7155,6.3349 c -1.4934,3.4841 -2.7154,6.6093 -2.7154,6.9448 0,0.3355 10.3509,0.4394 23.0019,0.2309 l 23.0019,-0.379 z m 42.9301,0.159 c 0.9642,-3.3337 1.5182,-6.4438 1.231,-6.9114 -0.2872,-0.4676 -8.6224,-0.6607 -18.5228,-0.4292 l -18.0006,0.4211 -2.1777,6.391 c -1.1976,3.5151 -2.1776,6.6089 -2.1776,6.875 0,0.2661 8.5263,0.3109 18.9473,0.1 l 18.9474,-0.3846 z m -131.5106,-24.5981 c 3.0088,-6.5993 5.6842,-12.5276 5.9454,-13.1739 0.2611,-0.6464 -7.387,-1.0007 -16.9958,-0.7875 l -17.4707,0.3879 -6.7511,12.786 -6.7512,12.7861 h 18.2765 18.2764 z m 45.1029,6.1239 c 1.2189,-3.231 3.5211,-9.1403 5.116,-13.1317 l 2.8999,-7.2568 h -20.5159 -20.5158 l -5.1766,11.4037 c -2.8471,6.2721 -5.491,12.1813 -5.8751,13.1317 -0.5409,1.3377 4.1054,1.7278 20.5764,1.7278 h 21.2751 z m 51.865,-7.257 4.3255,-13.1315 h -21.1058 -21.1057 l -5.0348,12.1469 c -2.7691,6.6808 -5.0348,12.5901 -5.0348,13.1316 0,0.5416 9.8168,0.9847 21.815,0.9847 h 21.8152 z m 40.7053,2.7646 c 1.3426,-5.3218 2.7975,-11.0942 3.2331,-12.8276 l 0.7921,-3.1517 -17.5195,0.3872 -17.5194,0.3871 -3.9228,11.7493 c -2.1574,6.4622 -3.9316,12.2339 -3.9426,12.8262 -0.011,0.5923 8.1832,0.9033 18.2092,0.6912 l 18.229,-0.3857 z m -125.3146,-28.2907 c 1.9135,-3.776 3.479,-7.1971 3.479,-7.6025 0,-0.4054 -7.4538,-0.7372 -16.564,-0.7372 h -16.5641 l -3.479,6.8656 c -1.9133,3.7759 -3.4789,7.197 -3.4789,7.6024 0,0.4054 7.4538,0.7371 16.5641,0.7371 h 16.564 z m 45.64,0.9907 c 1.3064,-3.231 2.6845,-6.6521 3.0625,-7.6025 0.5308,-1.3341 -3.8506,-1.7279 -19.228,-1.7279 h -19.9155 l -3.04,6.2573 c -1.672,3.4414 -3.04,6.8626 -3.04,7.6026 0,0.8098 7.917,1.3452 19.8929,1.3452 h 19.8929 z m 47.8181,-2.0734 2.4651,-7.257 h -20.4998 -20.4999 l -2.3753,5.8747 c -1.3063,3.2311 -2.6908,6.6688 -3.0766,7.6395 -0.5545,1.3948 3.7236,1.6845 20.4099,1.3823 l 21.1115,-0.3825 z m 39.2103,0.7858 c 1.1698,-3.9392 2.1269,-7.3604 2.1269,-7.6024 0,-0.2422 -7.4796,-0.4404 -16.6215,-0.4404 h -16.6215 l -1.4487,3.8013 c -0.7967,2.0907 -1.7921,5.5119 -2.2119,7.6026 l -0.7634,3.8012 h 16.7066 16.7065 z m -124.2809,-18.3654 c 1.1016,-2.6365 2.0029,-5.1245 2.0029,-5.5291 0,-0.4046 -7.0381,-0.7355 -15.6402,-0.7355 h -15.6401 l -2.3294,4.8848 c -1.2813,2.6867 -2.3295,5.1748 -2.3295,5.5292 0,0.3543 7.1851,0.6441 15.9667,0.6441 h 15.9668 z m 43.4713,4.2713 c 0,-0.2873 0.9412,-2.7754 2.0919,-5.5291 l 2.0919,-5.0068 h -19.3348 -19.335 l -2.1089,4.0781 c -1.16,2.243 -2.1089,4.7312 -2.1089,5.5291 0,0.944 6.7618,1.4509 19.3518,1.4509 10.6435,0 19.352,-0.2349 19.352,-0.5222 z m 47.8243,-5.3524 1.7928,-5.1835 h -19.9521 -19.952 l -2.092,5.0068 c -1.1506,2.7537 -2.092,5.2584 -2.092,5.566 0,0.3077 9.113,0.3871 20.2512,0.1768 l 20.2512,-0.3825 z m 36.9828,3.4557 c 0.3711,-1.3305 1.0833,-3.8387 1.5828,-5.5739 l 0.9082,-3.155 -16.2125,0.3905 -16.2124,0.3903 -1.7922,5.1836 -1.7921,5.1834 h 16.4218 c 14.4613,0 16.5024,-0.2887 17.0964,-2.4189 z m 8.1495,79.4809 c -0.9438,-1.1848 0.029,-7.5931 3.0938,-20.3885 2.4587,-10.2634 7.3584,-30.7903 10.8882,-45.6152 4.2242,-17.7412 7.2032,-27.5363 8.7156,-28.6568 1.7763,-1.3159 28.7265,-1.7103 118.7325,-1.7376 64.039,-0.019 117.4321,0.3476 118.6515,0.8154 2.3704,0.9097 2.784,2.1979 12.6016,39.2549 3.5248,13.3044 8.2751,30.9224 10.5563,39.1511 2.2813,8.2287 3.8072,15.8484 3.3911,16.9329 -0.6484,1.6897 -21.0988,1.9717 -143.0053,1.9717 -112.1432,0 -142.54,-0.3657 -143.6253,-1.7279 z m 47.1716,-9.5032 c 1.9936,-9.968 2.8603,-9.5031 -17.7152,-9.5031 -10.2186,0 -18.9042,0.5258 -19.3014,1.1685 -0.3972,0.6427 -1.1354,3.7529 -1.6405,6.9114 l -0.9183,5.7428 h 19.3558 19.3557 z m 44.827,-2.9372 0.4213,-6.5659 h -19.2548 -19.2549 l -0.8639,4.3197 c -2.0244,10.1224 -3.0503,9.6215 18.8336,9.1955 l 19.6974,-0.3836 z m 44.5027,0.3455 v -6.9114 h -19.1791 -19.1791 l -0.8639,4.3197 c -2.003,10.0151 -3.0363,9.503 19.1791,9.503 h 20.043 z m 46.9974,0 v -6.9114 h -20.7341 -20.7342 v 6.9114 6.9113 h 20.7342 20.7341 z m 50.6495,4.4924 c -0.3747,-1.3305 -1.088,-4.4406 -1.5853,-6.9113 l -0.9041,-4.4925 h -22.1545 c -19.6342,0 -22.059,0.2487 -21.3155,2.1865 0.4614,1.2025 0.839,4.3127 0.839,6.9114 v 4.7248 h 22.9008 c 21.1482,0 22.8485,-0.185 22.2196,-2.4189 z m 44.7067,2.0734 c -0.011,-0.1901 -0.856,-3.1446 -1.8766,-6.5658 l -1.8556,-6.2202 -18.8604,-0.6912 c -20.8492,-0.764 -19.6196,-1.3552 -17.9675,8.6392 l 0.8567,5.1835 h 19.8622 c 10.9242,0 19.8527,-0.1555 19.8412,-0.3455 z m -229.4352,-19.3519 c 0,-0.19 0.9333,-5.6327 2.0715,-12.0949 1.1384,-6.4621 2.0706,-12.2159 2.0716,-12.786 0,-0.5702 -8.0081,-1.0367 -17.798,-1.0367 h -17.7999 l -2.9342,11.6993 c -1.6139,6.4346 -2.9344,12.3439 -2.9344,13.1316 0,0.9175 6.7074,1.4323 18.6608,1.4323 10.2634,0 18.6616,-0.1555 18.6626,-0.3456 z m 44.2462,-7.6025 c 0.011,-4.3714 0.4008,-10.2807 0.872,-13.1316 l 0.8569,-5.1835 h -18.088 -18.0878 l -0.8435,5.1835 c -0.4639,2.8509 -1.4252,8.1687 -2.136,11.8174 -0.7109,3.6486 -1.2926,7.2252 -1.2926,7.9481 0,0.7681 8.04,1.3142 19.352,1.3142 h 19.3518 z m 42.8354,-5.1836 v -13.1315 h -17.907 -17.9069 l -0.6878,4.4924 c -0.3783,2.4707 -1.0594,8.38 -1.5136,13.1316 l -0.8258,8.6392 h 19.4206 19.4205 z m 44.9499,3.8013 c -0.4869,-5.1317 -1.2078,-11.041 -1.6022,-13.1316 l -0.7168,-3.8012 h -18.5509 -18.5509 v 13.1315 13.1317 h 20.1531 20.153 z m 49.045,8.4919 c 0,-0.4613 -1.0121,-6.3706 -2.2491,-13.1317 l -2.249,-12.293 h -20.5374 -20.5373 l 0.7438,8.6391 c 0.4092,4.7517 1.0498,10.6608 1.4237,13.1317 l 0.6799,4.4924 h 21.3627 c 11.7494,0 21.3627,-0.3774 21.3627,-0.8385 z m 42.2974,-1.5805 c -0.4066,-1.3304 -1.6946,-6.134 -2.8621,-10.6745 -1.1676,-4.5407 -2.4737,-9.3614 -2.9026,-10.7127 -0.6923,-2.1809 -2.7108,-2.457 -17.9651,-2.457 -13.2888,0 -17.1854,0.4125 -17.1854,1.8195 0,1.8504 2.2801,15.6738 3.5188,21.3336 0.6651,3.0387 1.1103,3.1101 19.4083,3.1101 17.1959,0 18.6671,-0.1978 17.9881,-2.419 z m -217.7865,-31.1012 c 0.033,-0.9504 0.5717,-4.3715 1.1968,-7.6026 l 1.1364,-5.8747 h -17.0279 -17.0278 l -1.4396,5.1836 c -2.882,10.3775 -3.4441,10.0215 15.8235,10.0215 12.8692,0 17.2939,-0.441 17.3386,-1.7278 z m 40.5443,-2.5918 c 2.2609,-11.3046 2.886,-10.8855 -16.2338,-10.8855 h -17.0975 l -0.8568,5.1836 c -1.7608,10.6527 -2.7824,10.0215 16.2184,10.0215 h 17.1057 z m 40.9499,-3.2829 v -7.6026 h -17.1305 c -19.0521,0 -18.8087,-0.1266 -18.8087,9.7891 v 5.416 h 17.9696 17.9696 z m 42.3322,3.2829 c -0.4751,-2.3758 -0.8639,-5.7969 -0.8639,-7.6025 v -3.283 h -17.9696 -17.9696 v 7.6026 7.6025 h 18.8335 18.8335 z m 45.3843,-0.8639 c -1.8239,-10.8114 -0.1019,-10.0216 -21.8424,-10.0216 h -19.6409 l 0.4697,5.8747 c 0.785,9.8171 -0.3488,9.3304 21.739,9.3304 h 20.1491 z m 40.169,3.4557 c -0.3188,-0.9504 -1.2562,-4.3715 -2.0833,-7.6026 l -1.5039,-5.8747 h -16.5965 -16.5967 l 0.8744,5.1836 c 1.8137,10.7509 0.4058,10.0215 19.3435,10.0215 13.1011,0 17.0054,-0.4073 16.5625,-1.7278 z m -206.132,-21.1927 c 0.4614,-1.2027 0.839,-3.6907 0.839,-5.5292 0,-3.3405 -0.011,-3.3426 -15.8146,-3.3426 -8.6981,0 -16.0892,0.4665 -16.4248,1.0367 -0.3356,0.5701 -1.0438,3.0583 -1.5736,5.5291 l -0.9636,4.4923 h 16.5492 c 13.8157,0 16.688,-0.3611 17.3884,-2.1863 z m 38.6715,-0.9237 c 2.146,-8.008 2.2643,-7.9481 -15.7161,-7.9481 -14.8687,0 -16.5893,0.2506 -16.6061,2.419 -0.011,1.3304 -0.394,3.8185 -0.8524,5.5291 -0.8305,3.0988 -0.7733,3.11 15.7538,3.11 16.0332,0 16.6152,-0.1042 17.4208,-3.11 z m 39.575,-2.419 v -5.5291 h -17.2785 -17.2784 v 5.5291 5.529 h 17.2784 17.2785 z m 40.086,0 v -5.5291 h -17.2784 -17.2785 v 5.5291 5.529 h 17.2785 17.2784 z m 44.2141,3.1101 c -0.011,-1.3305 -0.3941,-3.8185 -0.8524,-5.5291 -0.8128,-3.0329 -1.3026,-3.1101 -19.7151,-3.1101 H 4509.31 l 0.5274,5.5291 0.5272,5.529 h 19.2068 c 17.3777,0 19.2048,-0.2303 19.1878,-2.4189 z m 37.0252,-3.1101 -1.4035,-5.5291 h -15.7281 c -8.6503,0 -15.728,0.5443 -15.728,1.2095 0,0.6652 0.3888,3.1532 0.864,5.5291 l 0.8639,4.3195 h 16.2675 16.2676 z m 49.4363,83.018 c -0.882,-1.4269 -12.7363,-43.5923 -20.7627,-73.8515 -3.4365,-12.9555 -4.6306,-19.6245 -3.6835,-20.5716 1.585,-1.5852 155.848,-2.7431 165.9208,-1.2456 l 6.0618,0.9013 21.2972,38.7038 c 27.0451,49.1496 28.6894,52.4277 27.6521,55.1309 -0.778,2.0274 -9.8502,2.2336 -98.2695,2.2336 -59.3833,0 -97.7261,-0.5079 -98.2162,-1.3009 z m 44.8736,-6.0554 c 0,-0.2447 -0.9915,-3.3549 -2.2033,-6.9114 l -2.2033,-6.4665 h -19.2483 -19.2484 l 0.9199,3.8013 c 2.5827,10.6727 1.1143,10.0214 22.5973,10.0214 10.6624,0 19.3861,-0.2001 19.3861,-0.4448 z m 51.1443,-0.5456 c 0,-0.5448 -1.0175,-3.6549 -2.2613,-6.9113 l -2.2611,-5.921 h -22.6198 c -12.4409,0 -22.6198,0.2002 -22.6198,0.4449 0,0.2447 0.9915,3.3549 2.2033,6.9114 l 2.2034,6.4664 h 22.6777 c 12.4727,0 22.6776,-0.4456 22.6776,-0.9904 z m 49.7619,0.3363 c 0,-0.3597 -1.3536,-3.4406 -3.0082,-6.8462 l -3.0084,-6.192 -21.1836,-0.4108 c -13.4894,-0.2615 -21.1716,0.091 -21.151,0.9716 0.018,0.7602 1.2322,4.0258 2.6989,7.257 l 2.6666,5.8745 h 21.4929 c 11.8211,0 21.4928,-0.2943 21.4928,-0.6541 z m 41.4422,-0.3826 c -0.014,-0.5701 -1.7248,-3.6962 -3.8013,-6.9467 l -3.7751,-5.9102 -16.9328,-0.3625 c -9.3131,-0.1993 -16.933,0.049 -16.933,0.5509 0,0.5023 1.2733,3.7915 2.8293,7.3093 l 2.8292,6.3959 h 17.9049 c 9.8478,0 17.8932,-0.4664 17.8788,-1.0367 z m -149.2598,-19.6251 c 0,-0.7205 -1.9249,-6.6298 -4.2775,-13.1317 l -4.2775,-11.8215 h -17.8389 c -9.8114,0 -17.8389,0.5048 -17.8389,1.1219 0,1.6802 5.6102,22.772 6.3948,24.0415 0.9801,1.5858 37.838,1.381 37.838,-0.2102 z m 49.762,0.3253 c 0,-0.5415 -2.2657,-6.4508 -5.0348,-13.1316 l -5.0348,-12.1469 h -21.3764 c -16.5189,0 -21.2317,0.3925 -20.74,1.7278 0.35,0.9503 2.3337,6.8596 4.4082,13.1316 l 3.772,11.4038 h 22.0029 c 12.1016,0 22.0029,-0.4431 22.0029,-0.9847 z m 48.1494,-0.1483 c -0.2535,-0.6231 -2.9225,-6.5324 -5.9314,-13.1316 l -5.4705,-11.9986 h -20.4471 c -11.246,0 -20.4472,0.2594 -20.4472,0.5765 0,0.3171 1.2441,3.4272 2.7645,6.9113 1.5205,3.4842 3.9865,9.134 5.4801,12.5551 l 2.7153,6.2203 h 20.8985 c 11.4942,0 20.6911,-0.5098 20.4378,-1.133 z m 40.309,0.096 c 0,-0.5702 -2.9605,-6.3239 -6.5698,-12.7861 l -6.5625,-11.7493 -16.2408,-0.6911 c -8.9325,-0.3802 -16.2394,-0.2123 -16.2378,0.3731 0,0.5855 2.8085,6.6501 6.2373,13.4773 l 6.2341,12.4128 h 16.5734 c 9.1154,0 16.5701,-0.4665 16.5661,-1.0367 z m -149.7232,-32.6852 c -0.4073,-1.0612 -1.5053,-4.4823 -2.4402,-7.6026 l -1.6995,-5.6729 h -17.0598 c -11.0667,0 -17.0596,0.5133 -17.0596,1.4613 0,0.8037 0.6959,4.2248 1.5463,7.6025 l 1.5464,6.1413 h 17.9534 c 14.7957,0 17.8231,-0.3394 17.213,-1.9296 z m 45.5873,-5.6702 -2.9833,-7.5998 h -20.3885 c -11.2138,0 -20.3917,0.4638 -20.3954,1.0339 0,0.5703 1.0521,3.9914 2.3465,7.6026 l 2.3532,6.5658 h 21.0254 21.0253 z m 48.8522,6.8626 c 0,-0.4054 -1.5656,-3.8265 -3.479,-7.6024 l -3.479,-6.8655 h -19.4217 c -21.8282,0 -20.4215,-0.9553 -15.5966,10.5923 l 1.9274,4.6128 h 20.0244 c 11.0135,0 20.0245,-0.3318 20.0245,-0.7372 z m 34.7452,-6.5198 -4.1866,-7.257 -15.41,-0.392 c -8.4755,-0.2157 -15.1957,0.099 -14.9337,0.6976 0.2619,0.5993 1.6493,4.0414 3.083,7.6489 l 2.6068,6.5595 h 16.5136 16.5137 z m -136.2006,-15.679 c -0.4647,-1.2111 -1.2207,-3.6991 -1.68,-5.5292 -0.8263,-3.2921 -1.0171,-3.3272 -18.0569,-3.3272 -17.2029,0 -17.2208,0 -16.3278,3.1101 0.4917,1.7106 1.1975,4.1986 1.5686,5.5291 0.5966,2.1393 2.6786,2.4189 18.0078,2.4189 15.2887,0 17.2335,-0.2596 16.4883,-2.2017 z m 45.1522,-3.3273 -2.1718,-5.5291 h -19.8334 c -10.9083,0 -19.8333,0.5292 -19.8333,1.176 0,0.6468 0.6828,3.1349 1.5175,5.5291 l 1.5175,4.353 h 20.4877 20.4878 z m 46.6272,4.8849 c 0,-0.3543 -1.0482,-2.8425 -2.3294,-5.5291 l -2.3295,-4.8849 h -19.0958 c -10.5028,0 -19.0959,0.3309 -19.0959,0.7355 0,0.4046 0.9014,2.8926 2.0029,5.5291 l 2.003,4.7935 h 19.4223 c 10.6823,0 19.4224,-0.2898 19.4224,-0.6441 z m 34.2527,-4.8742 -3.1515,-5.5185 -14.878,-0.011 -14.878,-0.011 2.092,5.0068 c 1.1505,2.7537 2.0919,5.2418 2.0919,5.5291 0,0.2873 7.1719,0.5222 15.9375,0.5222 h 15.9375 z m 70.5271,81.8985 c -2.2844,-2.6402 -6.8791,-10.4713 -25.3075,-43.133 -29.228,-51.8027 -28.5964,-50.2646 -21.2439,-51.7351 2.3759,-0.4751 41.1835,-0.8639 86.2392,-0.8639 76.0584,0 82.1147,0.1731 84.6461,2.419 2.3948,2.1247 14.3771,17.2094 59.5662,74.9886 7.1401,9.1293 11.2088,15.5394 10.9672,17.2784 -0.3793,2.7305 -1.569,2.769 -96.5753,3.1194 -90.2885,0.3332 -96.32,0.2059 -98.292,-2.0734 z m 43.6484,-6.2296 c -0.5616,-0.9503 -2.4514,-4.0275 -4.1996,-6.8381 l -3.1786,-5.1103 -19.3829,-0.4189 c -10.6607,-0.2303 -19.382,-0.1994 -19.3808,0.069 0,0.268 1.7128,3.5331 3.8035,7.2556 l 3.8013,6.7681 h 19.7789 c 15.4466,0 19.5555,-0.3772 18.7582,-1.7265 z m 51.034,-0.019 c -0.608,-0.9608 -2.6605,-4.0632 -4.5611,-6.8943 l -3.4557,-5.1474 -21.7709,-0.017 c -11.9739,-0.011 -21.7708,0.3842 -21.7708,0.8747 0,0.4904 1.7106,3.5994 3.8013,6.9088 l 3.8011,6.0172 h 22.5308 c 17.8173,0 22.2994,-0.3629 21.4253,-1.7443 z m 48.5238,0.019 c -0.5429,-0.9503 -2.9803,-4.2159 -5.4165,-7.2569 l -4.4295,-5.5291 -20.2011,0.4162 -20.201,0.4161 4.4563,6.816 4.4563,6.8159 21.1612,0.024 c 16.5394,0.02 20.9458,-0.3526 20.1743,-1.703 z m 40.8687,0.6911 c -0.022,-0.5701 -2.3553,-3.7047 -5.1836,-6.9657 l -5.1422,-5.929 -16.3573,0.3999 -16.3573,0.4 5.0169,6.5658 5.0167,6.5658 h 16.524 c 9.0882,0 16.5055,-0.4665 16.4828,-1.0368 z m -155.041,-23.5287 c -1.7537,-2.8674 -5.3554,-8.7767 -8.0038,-13.1316 l -4.8154,-7.918 h -18.4178 -18.4179 l 4.9912,8.6391 c 2.745,4.7517 6.0063,10.6608 7.2474,13.1317 l 2.2563,4.4924 h 19.1742 19.1743 z m 52.5634,4.1769 c -0.2535,-0.5702 -4.1308,-6.4794 -8.6164,-13.1317 l -8.1556,-12.0948 h -21.2993 c -16.6664,0 -21.0758,0.3758 -20.2713,1.7278 0.5656,0.9503 4.3204,6.8596 8.3442,13.1316 l 7.316,11.4038 h 21.5715 c 11.8644,0 21.3642,-0.4665 21.1109,-1.0367 z m 47.5725,-0.6911 c -0.7567,-0.9504 -5.2109,-6.8596 -9.898,-13.1317 l -8.5222,-11.4037 h -19.2989 c -10.6145,0 -19.299,0.3348 -19.299,0.7441 0,0.4093 3.7482,6.3186 8.3293,13.1317 l 8.3294,12.3874 h 20.8677 c 16.5065,0 20.5802,-0.3611 19.4917,-1.7278 z m 39.7413,1.0362 c 0,-0.3803 -4.4218,-6.2896 -9.8263,-13.1316 l -9.8262,-12.44 h -15.7255 -15.7254 l 9.3099,13.0957 9.31,13.0958 16.2417,0.036 c 8.9329,0.02 16.2418,-0.2753 16.2418,-0.6557 z m -157.5796,-31.7712 c 0,-0.3686 -1.9194,-3.7898 -4.2654,-7.6025 l -4.2654,-6.9321 h -17.1599 c -9.438,0 -17.1599,0.3748 -17.1599,0.833 0,0.4581 1.7106,3.8786 3.8013,7.6011 l 3.8013,6.7682 h 17.6239 c 9.6933,8e-4 17.6241,-0.3003 17.6241,-0.669 z m 48.3454,-0.3663 c -0.019,-0.5702 -2.202,-3.9913 -4.8514,-7.6025 l -4.8171,-6.5658 h -20.619 -20.6189 l 4.9344,7.6025 4.9344,7.6026 h 20.5359 c 11.2948,0 20.5206,-0.4665 20.5017,-1.0368 z m 41.9311,-6.5494 -5.2665,-7.5861 -19.7116,-0.017 -19.7114,-0.017 5.0477,7.6026 5.0478,7.6025 h 19.9302 19.9302 z m 41.5982,5.8583 c -0.5429,-0.9504 -3.1093,-4.3715 -5.7032,-7.6025 l -4.7162,-5.8747 h -15.2067 -15.2066 l 3.0849,4.4924 c 7.4449,10.842 7.1589,10.7127 23.6892,10.7127 11.6414,0 14.8224,-0.3909 14.0586,-1.7279 z m -147.2458,-24.5354 -3.1076,-5.5291 h -17.0239 c -9.3631,0 -17.024,0.2754 -17.024,0.6121 0,0.3367 1.3055,2.8248 2.9012,5.5291 l 2.9011,4.9169 h 17.2304 17.2303 z m 46.9974,0 -3.1075,-5.5291 h -20.5681 -20.5681 l 3.1076,5.5291 3.1075,5.529 h 20.5681 20.5681 z m 44.926,0 -3.659,-5.5291 h -19.2497 c -15.0114,0 -19.0298,0.3804 -18.2504,1.7278 0.5496,0.9503 2.1837,3.4385 3.6314,5.5292 l 2.632,3.8011 h 19.2773 19.2774 z m 39.559,4.7641 c 0,-0.4207 -1.7106,-2.9088 -3.8013,-5.529 l -3.8013,-4.7641 -14.9491,-1e-4 h -14.9491 l 3.8909,5.4995 3.8909,5.4997 14.8595,0.03 c 8.1727,0.017 14.8595,-0.3148 14.8595,-0.7355 z m -1091.5526,-85.7669 c -1.2897,-3.3611 2.1501,-4.766 11.3031,-4.6163 15.6853,0.2566 14.9361,0.5393 18.361,-6.9263 4.3585,-9.5007 9.9433,-13.1988 19.9327,-13.1988 6.8739,0 8.0684,-0.4052 9.3252,-3.1638 2.7467,-6.0284 14.0768,-16.721 20.1929,-19.0568 5.8913,-2.25 17.6714,-2.2307 24.8007,0.041 2.1888,0.6974 3.1799,-0.068 4.759,-3.6747 2.5279,-5.7741 13.487,-16.5192 20.0005,-19.6102 2.7433,-1.3017 8.7714,-3.0333 13.3959,-3.8478 21.256,-3.7442 43.6946,11.3921 47.523,32.0573 l 0.9005,4.861 7.8548,0.052 c 5.2518,0.035 9.7305,1.031 13.5147,3.0056 7.2479,3.7819 14.6733,12.1623 14.1158,15.9312 -0.6958,4.7034 -3.2184,4.1837 -7.1366,-1.4702 -2.0308,-2.9304 -6.2432,-6.7617 -9.361,-8.5139 -4.7271,-2.6568 -7.0107,-3.0644 -13.7476,-2.4535 -9.1665,0.8312 -10.1204,0.1792 -11.5821,-7.9156 -2.2118,-12.2488 -11.3875,-23.1332 -23.3544,-27.7034 -8.0966,-3.0922 -21.3983,-2.2845 -29.3719,1.7833 -6.9906,3.5663 -15.2504,12.6002 -18.7462,20.5031 -2.9052,6.5677 -4.3235,7.1138 -10.3342,3.979 -2.1776,-1.1357 -7.2498,-2.0688 -11.2714,-2.0735 -12.5581,-0.014 -21.6579,6.652 -27.1104,19.8615 -2.1019,5.092 -2.4323,5.3028 -6.7018,4.2765 -10.3111,-2.4786 -17.7328,-0.2056 -21.1961,6.4917 -4.1277,7.982 -5.3882,7.7364 36.4027,7.0938 23.3845,-0.3595 39.1113,-0.07 40.2875,0.7427 1.0611,0.7328 1.5471,2.3282 1.08,3.5452 -0.7593,1.9788 -6.7832,2.213 -56.9181,2.213 -50.1349,0 -56.1589,-0.2342 -56.9182,-2.213 z m 836.448,-6.2011 c -1.7291,-2.7977 1.4314,-3.8966 12.3895,-4.3077 l 10.9232,-0.4099 3.7107,-6.9113 c 5.1556,-9.6028 13.9788,-15.0134 24.6442,-15.1125 4.3146,-0.04 8.8912,0.4396 10.1703,1.066 1.7978,0.8805 2.8565,0.094 4.6646,-3.4655 4.408,-8.6776 11.4446,-15.8482 20.194,-20.5788 8.1123,-4.386 9.6684,-4.7345 21.1956,-4.7466 6.8423,-0.011 14.3065,0.4661 16.5873,1.0519 3.9033,1.0025 4.3481,0.6844 7.5739,-5.4191 10.9154,-20.6519 37.7821,-33.7916 60.8026,-29.7367 18.5295,3.2639 34.6829,14.9224 42.326,30.5482 l 4.0265,8.2317 6.6102,0.074 c 3.6356,0.041 8.7298,0.9599 11.3204,2.0424 6.2002,2.5905 16.5702,12.2427 18.7141,17.4186 1.9988,4.8256 1.4783,4.7029 7.9781,1.8802 17.5197,-7.6084 39.6952,2.7289 44.6944,20.8346 2.6858,9.727 8.4647,9.1029 -80.6389,8.7084 -70.526,-0.3123 -80.5567,-0.6149 -80.5567,-2.4302 0,-1.8101 9.8167,-2.1612 77.2926,-2.7646 53.0213,-0.474 77.4471,-1.1548 77.7846,-2.1679 0.9544,-2.865 -7.6756,-12.6989 -13.706,-15.6182 -9.9876,-4.8349 -22.3063,-3.4574 -30.1294,3.369 -2.8165,2.4576 -4.754,0.9555 -6.7786,-5.2552 -0.9247,-2.8372 -4.373,-7.9279 -7.6628,-11.3129 -6.7351,-6.9299 -14.7116,-9.8711 -23.1224,-8.5262 -5.1454,0.8228 -5.2753,0.7323 -8.2417,-5.744 -7.4645,-16.2966 -18.1937,-26.2829 -33.2844,-30.9795 -25.6797,-7.9925 -52.2087,4.0143 -64.0849,29.0041 -2.761,5.8097 -3.9941,7.1579 -5.8276,6.3714 -23.1031,-9.9098 -47.796,-1.3843 -57.71,19.9252 -3.829,8.2299 -4.4864,8.6983 -8.9617,6.3839 -5.0475,-2.61 -15.5328,-2.6168 -20.5678,-0.013 -4.5994,2.3786 -11.1542,9.7806 -11.1542,12.5962 0,1.5908 3.1309,1.9673 16.357,1.9673 8.9962,0 16.7287,0.3719 17.1832,0.8264 0.4544,0.4544 0.4915,1.6985 0.082,2.7645 -0.608,1.5846 -6.504,1.9383 -32.3066,1.9383 -21.2374,0 -31.8668,-0.4916 -32.4917,-1.5027 z"
       id="path2" /></g></svg>
