<?xml version="1.0" encoding="UTF-8" standalone="no"?>
<!-- Created with Inkscape (http://www.inkscape.org/) -->

<svg
   width="281.67557mm"
   height="303.328mm"
   viewBox="0 0 281.67557 303.328"
   version="1.1"
   id="svg1"
   xml:space="preserve"
   inkscape:version="1.4 (e7c3feb100, 2024-10-09)"
   sodipodi:docname="grundlagen.svg"
   xmlns:inkscape="http://www.inkscape.org/namespaces/inkscape"
   xmlns:sodipodi="http://sodipodi.sourceforge.net/DTD/sodipodi-0.dtd"
   xmlns="http://www.w3.org/2000/svg"
   xmlns:svg="http://www.w3.org/2000/svg"><sodipodi:namedview
     id="namedview1"
     pagecolor="#ffffff"
     bordercolor="#000000"
     borderopacity="0.25"
     inkscape:showpageshadow="2"
     inkscape:pageopacity="0.0"
     inkscape:pagecheckerboard="0"
     inkscape:deskcolor="#d1d1d1"
     inkscape:document-units="mm"
     inkscape:zoom="0.04220416"
     inkscape:cx="2926.2518"
     inkscape:cy="-3862.1785"
     inkscape:window-width="1920"
     inkscape:window-height="939"
     inkscape:window-x="1920"
     inkscape:window-y="32"
     inkscape:window-maximized="1"
     inkscape:current-layer="layer1"
     showgrid="false"><inkscape:page
       x="0"
       y="3.585773e-21"
       width="281.67557"
       height="303.328"
       id="page2"
       margin="0"
       bleed="0" /></sodipodi:namedview><defs
     id="defs1" /><g
     inkscape:label="Layer 1"
     inkscape:groupmode="layer"
     id="layer1"
     transform="translate(-1139.0525,1187.8139)"><g
       id="g20"
       style="stroke-width:2.64583;stroke-dasharray:none"
       inkscape:export-filename="sink_base.svg"
       inkscape:export-xdpi="96"
       inkscape:export-ydpi="96"><path
         id="rect13"
         style="fill:none;stroke:#ff0000;stroke-width:2.64583;stroke-linejoin:round;stroke-dasharray:none;paint-order:markers fill stroke"
         d="m 1410.8522,-1044.5936 h 76.5923 c 2.77,0 5,2.23 5,5 v 16.3932 c 0,7.3339 -10.6,17.7888 -20.7664,17.7888 h -30.9539 c -19.6635,0 -45.3465,-39.182 -29.872,-39.182 z"
         sodipodi:nodetypes="sssssss" /><path
         id="rect14"
         style="fill:none;stroke:#ff0000;stroke-width:2.64583;stroke-linejoin:round;stroke-dasharray:none;paint-order:markers fill stroke"
         d="m 1445.7242,-1005.4116 h 27.3039 l 4.2333,94.42871 h -37.8872 z"
         sodipodi:nodetypes="ccccc" /><path
         id="rect15"
         style="fill:none;stroke:#ff0000;stroke-width:2.64583;stroke-linejoin:round;stroke-dasharray:none;paint-order:markers fill stroke"
         d="m 1480.1022,-1044.831 -9.7625,0.2375 -0.079,-21.6106 c 0,-12.5722 -14.0881,-11.2104 -14.0881,0 h -9.8486 c 0,-21.217 33.9162,-31.7025 33.9162,0 z"
         sodipodi:nodetypes="ccccccc" /></g><g
       id="g23"
       transform="matrix(0.96213631,0,0,0.96213631,1366.5511,260.45232)"
       style="stroke-width:2.74996;stroke-dasharray:none"><rect
         style="fill:none;stroke:#ff0000;stroke-width:2.74996;stroke-linejoin:round;stroke-dasharray:none;paint-order:markers fill stroke"
         id="rect12"
         width="290.01059"
         height="22.534668"
         x="-235.07651"
         y="-1213.9055"
         rx="0"
         ry="5" /><g
         id="g12-6"
         transform="translate(-376.45087,-17.109212)"
         style="stroke-width:2.74996;stroke-dasharray:none"><path
           style="fill:none;stroke:#ff0000;stroke-width:2.74996;stroke-dasharray:none;paint-order:markers fill stroke"
           d="m 195.8353,-1196.7963 -0.889,-212.6501 c -0.13261,-31.7213 52.21316,-35.4891 52.21316,-4.9187"
           id="path6-5"
           sodipodi:nodetypes="csc" /><path
           id="rect7-6"
           style="fill:none;stroke:#ff0000;stroke-width:2.74996;stroke-dasharray:none;paint-order:markers fill stroke"
           d="m 268.58103,-1393.5929 -43.0617,-0.2771 c 0.21079,-27.4245 43.0617,-27.3219 43.0617,0.2771 z"
           sodipodi:nodetypes="ccc" /></g><path
         id="rect11"
         style="fill:none;stroke:#ff0000;stroke-width:2.74996;stroke-linejoin:round;stroke-dasharray:none;paint-order:markers fill stroke"
         d="M -221.1869,-1503.886 H 41.044479 c 2.77,0 5,2.23 5,5 v 284.9632 H -226.1869 v -284.9632 c 0,-2.77 2.23,-5 5,-5 z"
         sodipodi:nodetypes="sssccss" /><path
         id="rect11-2"
         style="fill:none;stroke:#ff0000;stroke-width:2.74996;stroke-linejoin:round;stroke-dasharray:none;paint-order:markers fill stroke"
         d="M -84.250378,-1503.886 H 41.044479 c 2.77,0 5,2.23 5,5 v 284.9632 H -84.250378 Z"
         sodipodi:nodetypes="cssccc" /></g></g></svg>
