<?xml version="1.0" encoding="UTF-8" standalone="no"?>
<!-- Created with Inkscape (http://www.inkscape.org/) -->

<svg
   width="116.6244mm"
   height="130.24043mm"
   viewBox="0 0 116.6244 130.24043"
   version="1.1"
   id="svg1"
   xml:space="preserve"
   inkscape:version="1.4 (e7c3feb100, 2024-10-09)"
   sodipodi:docname="grundlagen.svg"
   xmlns:inkscape="http://www.inkscape.org/namespaces/inkscape"
   xmlns:sodipodi="http://sodipodi.sourceforge.net/DTD/sodipodi-0.dtd"
   xmlns="http://www.w3.org/2000/svg"
   xmlns:svg="http://www.w3.org/2000/svg"><sodipodi:namedview
     id="namedview1"
     pagecolor="#ffffff"
     bordercolor="#000000"
     borderopacity="0.25"
     inkscape:showpageshadow="2"
     inkscape:pageopacity="0.0"
     inkscape:pagecheckerboard="0"
     inkscape:deskcolor="#d1d1d1"
     inkscape:document-units="mm"
     inkscape:zoom="0.04220416"
     inkscape:cx="2926.2518"
     inkscape:cy="-3862.1785"
     inkscape:window-width="1920"
     inkscape:window-height="939"
     inkscape:window-x="1920"
     inkscape:window-y="32"
     inkscape:window-maximized="1"
     inkscape:current-layer="layer1"
     showgrid="false"><inkscape:page
       x="0"
       y="0"
       width="116.6244"
       height="130.24043"
       id="page2"
       margin="0"
       bleed="0" /></sodipodi:namedview><defs
     id="defs1" /><g
     inkscape:label="Layer 1"
     inkscape:groupmode="layer"
     id="layer1"
     transform="translate(-360.03378,1003.657)"><g
       id="g38"
       transform="translate(-2474.7388,32.912928)"><rect
         style="fill:none;stroke:#ff0000;stroke-width:2.64583;stroke-linejoin:round;stroke-dasharray:none;paint-order:markers fill stroke"
         id="rect35"
         width="32.521107"
         height="53.679417"
         x="2914.3613"
         y="-1023.8271"
         ry="1.3407941" /><rect
         style="fill:none;stroke:#ff0000;stroke-width:2.75969;stroke-linejoin:round;stroke-dasharray:none;paint-order:markers fill stroke"
         id="rect36"
         width="38.790558"
         height="11.362878"
         x="2911.2266"
         y="-1035.1899"
         ry="1.3407941" /><path
         id="rect36-6"
         style="fill:none;stroke:#ff0000;stroke-width:2.64583;stroke-linejoin:round;stroke-dasharray:none;paint-order:markers fill stroke"
         d="m 2841.2559,-980.55182 h 60.7429 c 2.8589,0 5.1604,2.30154 5.1604,5.16039 v 5.36688 h -5.1604 -60.7429 -5.1604 v -5.36688 c 0,-2.85885 2.3015,-5.16039 5.1604,-5.16039 z"
         sodipodi:nodetypes="sssccccss" /><path
         id="rect37"
         style="fill:none;stroke:#ff0000;stroke-width:2.64583;stroke-linejoin:round;paint-order:markers fill stroke"
         d="m 2841.2556,-970.02448 h 98.8809 c 2.8589,0 1.4448,5.42107 -0.1313,7.80623 l -12.3221,18.64763 c -2.2233,3.36463 3.0409,35.13467 1.3046,35.13467 -6.2691,0 -58.699,0.78364 -73.1964,0.78364 -2.8588,0 4.5416,-30.61983 7.1436,-31.80419 28.2824,10.21528 38.25,-6.69938 45.0594,-20.50982 -15.0094,42.12306 -72.3463,19.7817 -66.7387,-10.05816 z"
         sodipodi:nodetypes="csssssccc" /><rect
         style="fill:none;stroke:#ff0000;stroke-width:2.64583;stroke-linejoin:round;stroke-dasharray:none;paint-order:markers fill stroke"
         id="rect38"
         width="10.187335"
         height="2.742744"
         x="2920.2388"
         y="-1015.5989"
         ry="1.371372" /></g></g></svg>
