<?xml version="1.0" encoding="UTF-8" standalone="no"?>
<!-- Created with Inkscape (http://www.inkscape.org/) -->

<svg
   width="135.924mm"
   height="150.63237mm"
   viewBox="0 0 135.924 150.63237"
   version="1.1"
   id="svg1"
   xml:space="preserve"
   inkscape:version="1.4 (e7c3feb100, 2024-10-09)"
   sodipodi:docname="grundlagen.svg"
   xmlns:inkscape="http://www.inkscape.org/namespaces/inkscape"
   xmlns:sodipodi="http://sodipodi.sourceforge.net/DTD/sodipodi-0.dtd"
   xmlns="http://www.w3.org/2000/svg"
   xmlns:svg="http://www.w3.org/2000/svg"><sodipodi:namedview
     id="namedview1"
     pagecolor="#ffffff"
     bordercolor="#000000"
     borderopacity="0.25"
     inkscape:showpageshadow="2"
     inkscape:pageopacity="0.0"
     inkscape:pagecheckerboard="0"
     inkscape:deskcolor="#d1d1d1"
     inkscape:document-units="mm"
     inkscape:zoom="0.04220416"
     inkscape:cx="2926.2518"
     inkscape:cy="-3862.1785"
     inkscape:window-width="1920"
     inkscape:window-height="939"
     inkscape:window-x="1920"
     inkscape:window-y="32"
     inkscape:window-maximized="1"
     inkscape:current-layer="layer1"
     showgrid="false"><inkscape:page
       x="0"
       y="2.2773792e-12"
       width="135.924"
       height="150.63235"
       id="page2"
       margin="0"
       bleed="0" /></sodipodi:namedview><defs
     id="defs1" /><g
     inkscape:label="Layer 1"
     inkscape:groupmode="layer"
     id="layer1"
     transform="translate(-857.02199,998.11768)"><g
       id="g21"
       transform="matrix(0.49314946,0,0,0.49314946,576.17102,-255.15386)"
       style="stroke-width:5.36518;stroke-dasharray:none"><rect
         style="fill:none;stroke:#ff0000;stroke-width:5.36518;stroke-dasharray:none;paint-order:markers fill stroke"
         id="rect8"
         width="270.25912"
         height="300.08438"
         x="572.18738"
         y="-1503.8864"
         ry="10.224769" /><path
         id="rect9"
         style="fill:none;stroke:#ff0000;stroke-width:5.36518;stroke-dasharray:none;paint-order:markers fill stroke"
         d="M 582.18738,-1503.8864 H 832.4465 c 5.54,0 10,4.46 10,10 v 52.0714 h -10 -250.25912 -10 v -52.0714 c 0,-5.54 4.46,-10 10,-10 z"
         sodipodi:nodetypes="sssccccss" /><path
         id="path9"
         style="fill:none;stroke:#ff0000;stroke-width:5.36518;stroke-dasharray:none;paint-order:markers fill stroke"
         d="m 763.65831,-1331.4064 c 2e-5,31.1611 -25.26105,56.4222 -56.42216,56.4222 -31.16112,0 -56.42219,-25.2611 -56.42217,-56.4222 3e-5,-31.1611 25.26109,-56.4221 56.42217,-56.4221 31.16107,0 56.42213,25.261 56.42216,56.4221 z"
         sodipodi:nodetypes="sssss" /><path
         id="path9-5"
         style="fill:none;stroke:#ff0000;stroke-width:5.36518;stroke-dasharray:none;paint-order:markers fill stroke"
         d="m 763.65831,-1331.4064 c 3e-5,31.1611 -25.26105,56.4222 -56.42216,56.4222 -31.16112,0 -56.4222,-25.2611 -56.42217,-56.4222 2e-5,-15.5805 0.1699,11.0212 9.65899,4.4663 6.21313,-4.2919 14.01143,-9.9171 21.54848,-10.3823 10.33141,-0.6376 13.71205,9.986 24.06301,9.9408 9.03076,-0.039 14.49405,-8.5612 23.48951,-7.7625 7.08956,0.6295 12.01452,3.82 17.60619,8.2236 9.5902,7.5525 16.47813,-20.0664 16.47815,-4.4859 z"
         sodipodi:nodetypes="sssssssss" /><circle
         style="fill:none;stroke:#ff0000;stroke-width:5.36518;stroke-dasharray:none;paint-order:markers fill stroke"
         id="path9-2"
         cx="751.75586"
         cy="-1471.6191"
         r="13.516204" /><circle
         style="fill:none;stroke:#ff0000;stroke-width:5.36518;stroke-dasharray:none;paint-order:markers fill stroke"
         id="path9-2-4"
         cx="751.75586"
         cy="-1471.6191"
         r="8.8475618" /><circle
         style="fill:none;stroke:#ff0000;stroke-width:5.36518;stroke-dasharray:none;paint-order:markers fill stroke"
         id="path9-7"
         cx="707.23615"
         cy="-1331.4064"
         r="80.158501" /><rect
         style="fill:none;stroke:#ff0000;stroke-width:5.36518;stroke-linejoin:round;stroke-dasharray:none;paint-order:markers fill stroke"
         id="rect10"
         width="49.256142"
         height="20.580536"
         x="597.85419"
         y="-1482.4432"
         rx="0"
         ry="2.7926068" /><circle
         style="fill:none;stroke:#ff0000;stroke-width:5.36518;stroke-linejoin:round;stroke-dasharray:none;paint-order:markers fill stroke"
         id="path10"
         cx="789.51849"
         cy="-1471.6191"
         r="3.9182057" /><circle
         style="fill:none;stroke:#ff0000;stroke-width:5.36518;stroke-linejoin:round;stroke-dasharray:none;paint-order:markers fill stroke"
         id="path10-1"
         cx="810.10468"
         cy="-1471.6191"
         r="3.9182057" /></g><g
       id="g22"
       transform="matrix(0.66654494,0,0,0.66654494,549.26393,-195.46516)"
       style="stroke-width:3.96947;stroke-dasharray:none"
       inkscape:export-filename="bathtube_base.svg"
       inkscape:export-xdpi="96"
       inkscape:export-ydpi="96"><rect
         style="fill:none;stroke:#ff0000;stroke-width:3.96947;stroke-dasharray:none;paint-order:markers fill stroke"
         id="rect4"
         width="301.01093"
         height="27.032623"
         x="158.72575"
         y="-1359.8899"
         ry="12.318041" /><path
         id="rect6-7"
         style="fill:none;stroke:#ff0000;stroke-width:3.96947;stroke-dasharray:none;paint-order:markers fill stroke"
         d="m 381.47463,-1245.3083 c -6.23021,3.6508 1.77533,31.6138 13.6073,38.0545 4.08398,2.2231 11.25229,0.839 13.58091,-3.1857 5.48441,-9.4792 -6.63369,-24.5877 -9.43738,-31.4696 -2.29561,-5.6345 -12.50144,-6.4753 -17.75083,-3.3992 z"
         sodipodi:nodetypes="saass" /><path
         id="rect6-7-9"
         style="fill:none;stroke:#ff0000;stroke-width:3.96947;stroke-dasharray:none;paint-order:markers fill stroke"
         d="m 236.33699,-1245.9906 c 6.23021,3.6508 -1.77533,31.6138 -13.60731,38.0545 -4.08398,2.2231 -11.25229,0.839 -13.58091,-3.1857 -5.48441,-9.4792 6.63369,-24.5877 9.43738,-31.4696 2.29561,-5.6345 12.50145,-6.4753 17.75084,-3.3992 z"
         sodipodi:nodetypes="saass" /><path
         style="fill:none;stroke:#ff0000;stroke-width:3.96947;stroke-dasharray:none;paint-order:markers fill stroke"
         d="m 195.8353,-1359.8899 -0.889,-49.5565 c -0.56897,-31.7165 44.99906,-32.3635 44.99906,-1.7931"
         id="path6"
         sodipodi:nodetypes="csc" /><path
         id="rect7"
         style="fill:none;stroke:#ff0000;stroke-width:3.96947;stroke-dasharray:none;paint-order:markers fill stroke"
         d="m 257.82903,-1389.1739 -32.96874,0.3918 c 0,-27.2446 32.0322,-29.1613 32.96874,-0.3918 z"
         sodipodi:nodetypes="ccc" /><path
         id="rect5"
         style="fill:#ffffff;stroke:#ff0000;stroke-width:3.96947;stroke-dasharray:none;paint-order:markers fill stroke"
         d="m 174.86243,-1332.8572 h 269.53191 c 6.26035,0 -14.1135,100.8153 -64.09313,100.6298 l -142.58115,-0.5292 c -49.35941,-0.1832 -70.8072,-100.1006 -62.85763,-100.1006 z"
         sodipodi:nodetypes="sssss" /></g></g></svg>
