<?xml version="1.0" encoding="UTF-8" standalone="no"?>
<!-- Created with Inkscape (http://www.inkscape.org/) -->

<svg
   width="1295.2346mm"
   height="1223.6031mm"
   viewBox="0 0 1295.2346 1223.6031"
   version="1.1"
   id="svg1"
   xml:space="preserve"
   xmlns="http://www.w3.org/2000/svg"
   xmlns:svg="http://www.w3.org/2000/svg"><defs
     id="defs1" /><g
     id="layer1"
     transform="translate(-5056.7408,4671.4438)"><path
       style="fill:#000000;stroke-width:5.54815"
       d="m 5247.4975,-4066.283 c -0.683,-1.817 -1.1618,-45.1087 -1.0647,-96.2043 0.1554,-80.851 0.4605,-93.0818 2.3796,-94.293 3.5963,-2.2736 209.4531,-1.8853 210.9306,0.3995 1.2672,1.9579 2.3457,184.5297 1.1229,190.0989 l -0.7251,3.3028 h -105.7005 -105.7006 z m 205.3591,-95.0703 v -89.5243 h -99.086 -99.0866 l -5e-4,89.9116 v 89.9121 l 99.0865,-0.3883 99.0866,-0.3884 z m -185.2526,41.5129 c -0.2441,-19.1877 -0.2386,-35.3822 0,-35.9875 0.6219,-1.5091 79.1898,-1.402 80.1241,0.111 0.4106,0.6652 0.8505,16.6844 0.9759,35.5974 l 0.2275,34.388 -40.4482,0.3884 -40.4482,0.3884 z m 72.7978,23.7111 c 1.1734,-3.0581 1.1518,-42.9809 -0.056,-48.8725 l -0.9177,-4.5872 h -28.8082 c -15.8449,0 -30.3522,0.4328 -32.2386,0.9382 l -3.4299,0.9182 0.3662,25.8516 c 0.1998,14.2188 0.6275,26.3471 0.9476,26.9529 0.3218,0.6053 14.6749,1.1008 31.8997,1.1008 27.2025,0 31.4341,-0.3052 32.2081,-2.3219 z m 18.5064,-24.8351 v -35.9648 h 40.3683 40.3689 l 0.061,15.0466 c 0.055,8.2756 0.3384,23.3039 0.673,33.3959 0.3329,10.0921 0.2608,19.5051 -0.1609,20.9182 -0.7107,2.3652 -3.9625,2.5688 -41.0419,2.5688 h -40.2695 z m 73.3975,0 v -27.1571 l -9.1749,-0.089 c -5.0461,-0.056 -13.7988,-0.3828 -19.4502,-0.7384 -5.6519,-0.3551 -16.3859,-0.2386 -23.8542,0.2663 l -13.5786,0.9132 v 26.9823 26.9829 h 33.0287 33.0292 z m -164.0692,-81.8141 0.3939,-35.6213 h 39.6343 39.6348 v 35.2307 35.2307 l -40.0276,0.3884 -40.0282,0.3884 z m 72.3223,0.344 v -27.1571 h -32.2947 -32.2952 l -0.405,25.6374 c -0.2219,14.1006 -0.072,26.4991 0.3329,27.5527 0.5798,1.5107 7.4822,1.832 32.698,1.5196 l 31.9629,-0.3939 z m 19.3281,34.252 c -0.5382,-0.5382 -0.9787,-16.3798 -0.9787,-35.203 v -34.2237 l 3.3028,-0.8084 c 1.8165,-0.4439 19.8174,-0.6219 40.0016,-0.3939 l 36.6987,0.4161 0.7341,19.8174 c 0.405,10.8994 0.5104,26.9185 0.2385,35.5975 l -0.4993,15.7806 h -39.2603 c -21.5929,0 -39.7004,-0.4383 -40.2385,-0.9787 z m 71.6848,-34.252 v -27.1571 l -32.6619,-0.3939 -32.662,-0.3939 v 27.9471 27.9471 l 32.662,-0.3939 32.6619,-0.3939 z"
       id="path7" /></g></svg>
